<?xml version="1.0" encoding="UTF-8" standalone="no"?>
<svg
   xmlns:dc="http://purl.org/dc/elements/1.1/"
   xmlns:cc="http://creativecommons.org/ns#"
   xmlns:rdf="http://www.w3.org/1999/02/22-rdf-syntax-ns#"
   xmlns:svg="http://www.w3.org/2000/svg"
   xmlns="http://www.w3.org/2000/svg"
   xmlns:xlink="http://www.w3.org/1999/xlink"
   id="svg5108"
   version="1.1"
   viewBox="0 0 1000 1000">
  <metadata
     id="metadata7">
    <rdf:RDF>
      <cc:Work
         rdf:about="">
        <dc:format>image/svg+xml</dc:format>
        <dc:type
           rdf:resource="http://purl.org/dc/dcmitype/StillImage" />
        <dc:title></dc:title>
      </cc:Work>
    </rdf:RDF>
  </metadata>
  <defs
     id="defs5">
    <linearGradient
       id="w"
       x1="222.21001"
       x2="235.28999"
       y1="439.82999"
       y2="453.26999"
       gradientUnits="userSpaceOnUse"
       xlink:href="#a" />
    <linearGradient
       id="a">
      <stop
         stop-color="#aeaeae"
         offset="0"
         id="stop14" />
      <stop
         stop-color="#fff"
         offset="1"
         id="stop16" />
    </linearGradient>
  </defs>
  <g
     transform="matrix(-49.481877,0,0,38.66482,12919.855,-16569.019)"
     id="g301">
    <g
       transform="translate(22.163,-2.1974)"
       id="g299"
       style="stroke:#000000">
      <path
         d="m 220.75,438.19 v 16.094 h 15.625 v -11.312 h -0.0312 v -4.7812 h -2.9375 v 4.7812 h -2.125 v -4.6875 h -5.4688 v 4.6875 h -2.125 v -4.7812 H 220.75 Z m 2.5938,6.75 h 2.6875 v 2.6875 h -2.6875 z"
         id="path285"
         style="fill:url(#w)" />
      <path
         d="m 228.56,437.89 v -6.364"
         id="path287"
         style="fill:none" />
      <g
         transform="translate(-29.257,21.158)"
         id="g293"
         style="fill:#ff6600">
        <path
           d="m 259.44,410.88 h 3.5489 v 3.2464 H 259.44 Z"
           id="path289" />
        <path
           d="m 257.76,410.36 h 2.5409 v 3.248 H 257.76 Z"
           id="path291" />
      </g>
      <path
         d="m 225.47,449.59 h 3.0921 v 4.6881 H 225.47 Z"
         id="path295"
         style="fill:#ff6600" />
      <path
         d="m 228.56,449.59 h 3.0921 v 4.6881 H 228.56 Z"
         id="path297"
         style="fill:#ff6600" />
    </g>
    <path
       style="opacity:1;fill:#ff0000;fill-opacity:0.76751589;stroke-width:2"
       d="m 524.36477,92.814919 v -47 h 37 37 v 47 47.000001 h -37 -37 z"
       id="path4514"
       transform="matrix(0.02014493,0,0,0.02388047,240.62522,428.73162)" />
    <path
       style="opacity:1;fill:#ff0000;fill-opacity:0.76751589;stroke-width:2"
       d="M 650.36477,113.81492 V 67.814919 h 41 41 v 46.000001 46 h -41 -41 z"
       id="path4516"
       transform="matrix(0.02014493,0,0,0.02388047,240.62522,428.73162)" />
    <path
       style="opacity:1;fill:#ff0000;fill-opacity:0.76751589;stroke-width:2"
       d="m 374.36477,879.81492 v -76 h 51 51 v 76 76 h -51 -51 z"
       id="path4518"
       transform="matrix(0.02014493,0,0,0.02388047,240.62522,428.73162)" />
    <path
       style="opacity:1;fill:#ff0000;fill-opacity:0.76751589;stroke-width:2"
       d="m 526.36477,879.81492 v -76 h 51 51 v 76 76 h -51 -51 z"
       id="path4520"
       transform="matrix(0.02014493,0,0,0.02388047,240.62522,428.73162)" />
  </g>
  <path
     id="path6290"
     d="m 93.257197,288.39889 -1.872634,-1.87263"
     style="fill:none;stroke:#000000;stroke-width:1px;stroke-linecap:butt;stroke-linejoin:miter;stroke-opacity:1" />
  <rect
     y="265.36713"
     x="876.09375"
     height="41.197945"
     width="49.624813"
     id="rect6302"
     style="opacity:1;fill:#000000;fill-opacity:1" />
  <path
     id="path4526"
     d="m 540.33212,819.99312 v -68.91295 h 49.43755 49.43755 v 68.91295 68.91295 h -49.43755 -49.43755 z"
     style="opacity:1;fill:#00ffff;fill-opacity:0.76751589;stroke-width:2.99621511" />
  <path
     id="path4528"
     d="m 541.83023,819.99312 v -68.91295 h 47.93944 47.93944 v 68.91295 68.91295 h -47.93944 -47.93944 z"
     style="opacity:1;fill:#00ffff;fill-opacity:0.76751589;stroke-width:2.99621511" />
  <path
     id="path4530"
     d="m 541.83023,819.99312 v -68.91295 h 47.93944 47.93944 v 68.91295 68.91295 h -47.93944 -47.93944 z"
     style="opacity:1;fill:#00ffff;fill-opacity:0.76751589;stroke-width:2.99621511" />
  <path
     id="path4532"
     d="m 541.83023,819.99312 v -68.91295 h 47.93944 47.93944 v 68.91295 68.91295 h -47.93944 -47.93944 z"
     style="opacity:1;fill:#00ffff;fill-opacity:0.76751589;stroke-width:2.99621511" />
  <path
     id="path4534"
     d="m 386.02704,819.99312 v -68.91295 h 50.93566 50.93565 v 68.91295 68.91295 H 436.9627 386.02704 Z"
     style="opacity:1;fill:#00ffff;fill-opacity:0.76751589;stroke-width:2.99621511" />
  <path
     id="path4536"
     d="m 386.02704,819.99312 v -68.91295 h 50.93566 50.93565 v 68.91295 68.91295 H 436.9627 386.02704 Z"
     style="opacity:1;fill:#00ffff;fill-opacity:0.76751589;stroke-width:2.99621511" />
  <path
     id="path4538"
     d="m 386.02704,819.99312 v -68.91295 h 50.93566 50.93565 v 68.91295 68.91295 H 436.9627 386.02704 Z"
     style="opacity:1;fill:#00ffff;fill-opacity:0.76751589;stroke-width:2.99621511" />
  <path
     id="path4540"
     d="m 386.02704,819.99312 v -68.91295 h 50.93566 50.93565 v 68.91295 68.91295 H 436.9627 386.02704 Z"
     style="opacity:1;fill:#00ffff;fill-opacity:0.76751589;stroke-width:2.99621511" />
  <path
     id="path4542"
     d="m 415.98919,93.410936 v -43.44512 h 37.45269 37.45269 v 43.44512 43.445124 h -37.45269 -37.45269 z"
     style="opacity:1;fill:#00ffff;fill-opacity:0.76751589;stroke-width:2.99621511" />
  <path
     id="path4544"
     d="m 415.98919,93.410936 v -43.44512 h 37.45269 37.45269 v 43.44512 43.445124 h -37.45269 -37.45269 z"
     style="opacity:1;fill:#00ffff;fill-opacity:0.76751589;stroke-width:2.99621511" />
  <path
     id="path4546"
     d="m 415.98919,93.410936 v -43.44512 h 37.45269 37.45269 v 43.44512 43.445124 h -37.45269 -37.45269 z"
     style="opacity:1;fill:#00ffff;fill-opacity:0.76751589;stroke-width:2.99621511" />
  <path
     id="path4548"
     d="m 415.98919,93.410936 v -43.44512 h 37.45269 37.45269 v 43.44512 43.445124 h -37.45269 -37.45269 z"
     style="opacity:1;fill:#00ffff;fill-opacity:0.76751589;stroke-width:2.99621511" />
  <path
     id="path4550"
     d="M 284.15572,112.88634 V 70.939323 h 40.44891 40.4489 v 41.947017 41.94701 h -40.4489 -40.44891 z"
     style="opacity:1;fill:#00ffff;fill-opacity:0.76751589;stroke-width:2.99621511" />
  <path
     id="path4552"
     d="M 284.15572,112.88634 V 70.939323 h 40.44891 40.4489 v 41.947017 41.94701 h -40.4489 -40.44891 z"
     style="opacity:1;fill:#00ffff;fill-opacity:0.76751589;stroke-width:2.99621511" />
  <path
     id="path4554"
     d="M 284.15572,112.88634 V 70.939323 h 40.44891 40.4489 v 41.947017 41.94701 h -40.4489 -40.44891 z"
     style="opacity:1;fill:#00ffff;fill-opacity:0.76751589;stroke-width:2.99621511" />
  <path
     id="path4556"
     d="M 284.15572,112.88634 V 70.939323 h 40.44891 40.4489 v 41.947017 41.94701 h -40.4489 -40.44891 z"
     style="opacity:1;fill:#00ffff;fill-opacity:0.76751589;stroke-width:2.99621511" />
  <path
     id="path4560"
     d="m 587.93497,890.80284 v -0.42135 h 26.07644 26.07643 V 856.1591 821.9367 h 0.84269 0.84269 v 34.64374 34.64374 H 614.8541 587.93497 Z"
     style="opacity:1;fill:#00ffff;fill-opacity:0.76751589;stroke-width:0.09363172" />
  <path
     id="path4562"
     d="m 591.16527,890.80284 v -0.42135 h 24.48469 24.4847 V 856.1591 821.9367 h 0.79587 0.79587 v 34.64374 34.64374 h -25.28057 -25.28056 z"
     style="opacity:1;fill:#00ffff;fill-opacity:0.76751589;stroke-width:0.09363172" />
  <path
     id="path4564"
     d="m 591.16527,890.80284 v -0.42135 h 24.48469 24.4847 V 856.1591 821.9367 h 0.79587 0.79587 v 34.64374 34.64374 h -25.28057 -25.28056 z"
     style="opacity:1;fill:#00ffff;fill-opacity:0.76751589;stroke-width:0.09363172" />
  <path
     id="path4566"
     d="m 591.16527,890.80284 v -0.42135 h 24.48469 24.4847 V 856.1591 821.9367 h 0.79587 0.79587 v 34.64374 34.64374 h -25.28057 -25.28056 z"
     style="opacity:1;fill:#00ffff;fill-opacity:0.76751589;stroke-width:0.09363172" />
  <path
     id="path4568"
     d="m 591.16527,889.67944 v -0.70206 l 24.03994,-0.0236 24.03995,-0.0236 0.0235,-33.49675 0.0235,-33.49675 h 0.3744 0.3744 v 34.2224 34.22239 H 615.60308 591.1652 Z"
     style="opacity:1;fill:#00ffff;fill-opacity:0.76751589;stroke-width:0.09363172" />
  <path
     id="path4570"
     d="m 591.16527,889.67926 v -0.70224 h 24.06335 24.06336 V 855.45686 821.9367 h 0.37452 0.37453 v 34.2224 34.22239 h -24.43788 -24.43788 z"
     style="opacity:1;fill:#00ffff;fill-opacity:0.76751589;stroke-width:0.09363172" />
  <path
     id="path4572"
     d="m 591.16527,889.67926 v -0.70224 h 24.06335 24.06336 V 855.45686 821.9367 h 0.37452 0.37453 v 34.2224 34.22239 h -24.43788 -24.43788 z"
     style="opacity:1;fill:#00ffff;fill-opacity:0.76751589;stroke-width:0.09363172" />
  <path
     id="path4574"
     d="m 591.16527,890.1006 v -1.12358 h 24.06335 24.06336 V 855.45686 821.9367 h 0.3744 0.3744 l 0.0237,34.24581 0.0237,34.2458 0.0233,-34.2458 0.0233,-34.24581 h 0.79587 0.79587 v 34.64374 34.64374 h -25.28057 -25.28056 z"
     style="opacity:1;fill:#00ffff;fill-opacity:0.76751589;stroke-width:0.09363172" />
  <path
     id="path4576"
     d="m 640.1273,799.78368 v -22.00345 h 0.74905 0.74905 v 22.00345 22.00346 h -0.74905 -0.74905 z"
     style="opacity:1;fill:#00ffff;fill-opacity:0.76751589;stroke-width:0.18726344" />
  <path
     id="path4578"
     d="m 640.1273,799.78368 v -22.00345 h 0.74905 0.74905 v 22.00345 22.00346 h -0.74905 -0.74905 z"
     style="opacity:1;fill:#00ffff;fill-opacity:0.76751589;stroke-width:0.18726344" />
  <path
     id="path4580"
     d="m 640.1273,799.78368 v -22.00345 h 0.74905 0.74905 v 22.00345 22.00346 h -0.74905 -0.74905 z"
     style="opacity:1;fill:#00ffff;fill-opacity:0.76751589;stroke-width:0.18726344" />
  <path
     id="path4582"
     d="m 639.37824,799.78368 c 0,-21.87861 0.002,-22.00345 0.37453,-22.00345 0.3724,0 0.37453,0.12484 0.37453,22.00345 0,21.87861 -0.002,22.00346 -0.37453,22.00346 -0.3724,0 -0.37453,-0.12485 -0.37453,-22.00346 z"
     style="opacity:1;fill:#00ffff;fill-opacity:0.76751589;stroke-width:0.18726344" />
  <path
     id="path4584"
     d="m 639.39303,819.80526 c 0.009,-0.21815 0.0534,-0.26252 0.11313,-0.11313 0.0541,0.13518 0.0475,0.29669 -0.0148,0.35892 -0.0622,0.0622 -0.10649,-0.0484 -0.0984,-0.24579 z"
     style="opacity:1;fill:#00ffff;fill-opacity:0.76751589;stroke-width:0.18726344" />
  <path
     id="path4586"
     d="m 639.52432,820.61674 c -0.13982,-1.7776 -0.0558,-42.42746 0.088,-42.57124 0.0773,-0.0772 0.18546,-0.0954 0.24047,-0.0404 0.055,0.055 0.15144,6.11533 0.21428,13.46736 0.11722,13.7125 -0.0562,30.12742 -0.31833,30.12742 -0.0809,0 -0.18189,-0.44241 -0.22442,-0.98313 z"
     style="opacity:1;fill:#00ffff;fill-opacity:0.76751589;stroke-width:0.18726344" />
  <path
     id="path4588"
     d=""
     style="opacity:1;fill:#00ffff;fill-opacity:0.76751589;stroke-width:0.18726344" />
  <path
     id="path4590"
     d="m 639.22221,825.00742 v -10.43994 h 0.0781 0.0781 l 0.0204,2.33494 c 0.0227,2.59291 0.0227,2.64416 -10e-4,2.86709 -0.0122,0.11375 -0.007,0.19845 0.0198,0.3043 0.0221,0.0885 0.0419,0.30465 0.0497,0.54462 0.022,0.67407 0.0754,1.03641 0.16604,1.12702 0.0716,0.0716 0.17386,0.0717 0.24085,4.2e-4 0.10003,-0.10648 0.15457,-0.57068 0.18886,-1.60731 0.01,-0.30254 0.0177,3.0208 0.0171,7.38521 l -10e-4,7.93529 -0.0152,-5.95732 c -0.008,-3.27653 -0.0168,-6.32362 -0.0187,-6.77133 l -0.003,-0.814 -0.38037,0.006 -0.38038,0.006 -0.006,6.75904 c -0.004,4.47877 -0.0138,6.75904 -0.0293,6.75904 -0.0155,0 -0.0234,-3.5075 -0.0234,-10.43993 z"
     style="opacity:1;fill:#00ffff;fill-opacity:0.76751589;stroke-width:0.02340793" />
  <path
     id="path4592"
     d="m 639.23977,828.33134 c -0.01,-2.46544 -0.0176,-6.5709 -0.0176,-9.12324 v -4.64062 h 0.0675 0.0675 l 0.0153,0.7549 c 0.008,0.4152 0.0197,1.645 0.0251,2.73288 0.005,1.08788 0.0206,2.10437 0.0337,2.25887 0.0132,0.15449 0.0345,0.44943 0.0474,0.65542 0.0406,0.64689 0.0933,0.81218 0.26358,0.82646 0.18618,0.0156 0.24411,-0.16173 0.29677,-0.90839 0.015,-0.21243 0.0189,-0.11618 0.0184,0.45645 -3.2e-4,0.39911 -0.005,0.68878 -0.009,0.64372 l -0.009,-0.0819 -0.38515,0.007 -0.38515,0.007 -0.006,5.44711 -0.006,5.4471 z"
     style="opacity:1;fill:#00ffff;fill-opacity:0.76751589;stroke-width:0.02340793" />
  <path
     id="path4594"
     d="m 639.23976,824.64657 c -0.01,-1.14473 -0.0176,-3.88082 -0.0176,-6.08021 v -3.99888 h 0.0674 0.0674 l 0.0147,1.45714 c 0.008,0.80143 0.0199,2.04703 0.0262,2.76799 0.0116,1.31204 0.0624,2.35767 0.13165,2.70992 0.032,0.16286 0.10636,0.2833 0.18149,0.29409 0.1953,0.0281 0.24535,-0.0773 0.31501,-0.66322 0.005,-0.0386 0.01,0.11514 0.0119,0.34169 l 0.004,0.41192 -0.26333,0.0152 c -0.14484,0.008 -0.3186,0.0152 -0.38613,0.0153 l -0.12278,1.1e-4 -0.006,2.40516 -0.006,2.40517 z"
     style="opacity:1;fill:#00ffff;fill-opacity:0.76751589;stroke-width:0.02340793" />
  <path
     id="path4596"
     d="m 639.23976,823.97945 c -0.01,-0.93229 -0.0176,-3.43138 -0.0176,-5.55353 v -3.85844 h 0.0702 0.0702 l 3.6e-4,0.35697 c 10e-4,1.31663 0.0499,5.11299 0.0699,5.4599 0.0516,0.89448 0.0892,1.19438 0.16575,1.32017 0.0763,0.12551 0.24978,0.12662 0.31422,0.002 0.0199,-0.0385 0.0561,-0.18314 0.0805,-0.32152 l 0.0443,-0.25161 0.002,0.37789 0.002,0.37789 -0.38609,0.017 -0.38609,0.017 -0.006,1.87565 -0.006,1.87565 z"
     style="opacity:1;fill:#00ffff;fill-opacity:0.76751589;stroke-width:0.02340793" />
  <path
     id="path4598"
     d="m 640.11171,821.85905 v -0.0585 h 0.76076 0.76075 v -3.61653 -3.61652 h 0.0585 0.0585 v 3.67504 3.67505 h -0.81927 -0.81928 z"
     style="opacity:1;fill:#00ffff;fill-opacity:0.76751589;stroke-width:0.02340793" />
  <path
     id="path4600"
     d="m 640.11171,821.85905 v -0.0585 h 0.76076 0.76075 v -3.61653 -3.61652 h 0.0585 0.0585 v 3.67504 3.67505 h -0.81927 -0.81928 z"
     style="opacity:1;fill:#00ffff;fill-opacity:0.76751589;stroke-width:0.02340793" />
  <path
     id="path4602"
     d="m 640.11171,821.85905 v -0.0585 h 0.76076 0.76075 v -3.61653 -3.61652 h 0.0585 0.0585 v 3.67504 3.67505 h -0.81927 -0.81928 z"
     style="opacity:1;fill:#00ffff;fill-opacity:0.76751589;stroke-width:0.02340793" />
  <path
     id="path4604"
     d="m 640.11171,821.85905 v -0.0585 h 0.76076 0.76075 v -3.61653 -3.61652 h 0.0585 0.0585 v 3.67504 3.67505 h -0.81927 -0.81928 z"
     style="opacity:1;fill:#00ffff;fill-opacity:0.76751589;stroke-width:0.02340793" />
  <path
     id="path4606"
     d="m 640.09694,763.86084 v -13.8374 h -36.08316 -36.08315 v -0.66207 -0.66208 h 36.87765 36.87764 v 14.49947 14.49947 h -0.79449 -0.79449 z"
     style="opacity:1;fill:#00ffff;fill-opacity:0.76751589;stroke-width:0.13241525" />
  <path
     id="path4608"
     d="m 640.09694,763.86084 v -13.8374 h -36.08316 -36.08315 v -0.66207 -0.66208 h 36.87765 36.87764 v 14.49947 14.49947 h -0.79449 -0.79449 z"
     style="opacity:1;fill:#00ffff;fill-opacity:0.76751589;stroke-width:0.13241525" />
  <path
     id="path4610"
     d="m 640.09694,763.86084 v -13.8374 h -36.08316 -36.08315 v -0.66207 -0.66208 h 36.87765 36.87764 v 14.49947 14.49947 h -0.79449 -0.79449 z"
     style="opacity:1;fill:#00ffff;fill-opacity:0.76751589;stroke-width:0.13241525" />
  <path
     id="path4612"
     d="m 640.09694,763.86084 v -13.8374 h -36.08316 -36.08315 v -0.66207 -0.66208 h 36.87765 36.87764 v 14.49947 14.49947 h -0.79449 -0.79449 z"
     style="opacity:1;fill:#00ffff;fill-opacity:0.76751589;stroke-width:0.13241525" />
  <path
     id="path4614"
     d="m 639.3294,765.83379 -0.0269,-14.71137 -1.21208,-0.086 c -0.66664,-0.0473 -16.7253,-0.086 -35.68591,-0.086 h -34.47383 v -0.46346 -0.46345 h 36.08315 36.08316 l -0.008,14.13533 c -0.005,8.56765 -0.0556,14.01798 -0.12815,13.83739 -0.0659,-0.16386 -0.18013,-0.29793 -0.25392,-0.29793 -0.18879,0 -0.26541,0.42441 -0.31077,1.7214 -0.0216,0.61904 -0.0515,-5.49459 -0.0663,-13.58584 z"
     style="opacity:1;fill:#00ffff;fill-opacity:0.76751589;stroke-width:0.13241525" />
  <path
     id="path4616"
     d="m 637.71347,788.56427 v -37.46552 l 0.49655,-0.0519 c 0.27311,-0.0286 -15.42803,-0.062 -34.89142,-0.0742 l -35.38797,-0.0223 v -0.46346 -0.46345 h 36.10489 36.10488 l -0.0879,8.56262 c -0.0484,4.70945 -0.0879,10.9533 -0.0879,13.87523 0,5.22433 -0.004,5.31261 -0.26483,5.31261 -0.2626,0 -0.26499,-0.0944 -0.28315,-11.19382 -0.0101,-6.1566 -0.06,-12.177 -0.11095,-13.37867 -0.0509,-1.20167 -0.0998,14.41009 -0.10857,34.69279 -0.009,20.28271 -0.0184,37.16069 -0.0215,37.50663 l -0.006,0.62897 h -0.72828 -0.72828 z"
     style="opacity:1;fill:#00ffff;fill-opacity:0.76751589;stroke-width:0.13241525" />
  <path
     id="path4618"
     d="m 637.71347,788.56508 v -37.46473 l 0.36414,-0.0552 c 0.20028,-0.0303 -15.50086,-0.0641 -34.89142,-0.075 l -35.25556,-0.0198 v -0.46346 -0.46345 h 36.07199 36.07198 l -0.0594,12.87739 c -0.0582,12.62922 -0.10324,14.7974 -0.30722,14.7974 -0.21471,0 -0.2721,-2.53777 -0.28746,-12.71186 -0.009,-5.78986 -0.0589,-11.30165 -0.11158,-12.24842 -0.0835,-1.50139 -0.0632,59.04347 0.0217,64.81727 0.0177,1.20167 -0.0208,3.60004 -0.0854,5.32972 l -0.1175,3.14486 h -0.70715 -0.70714 z"
     style="opacity:1;fill:#00ffff;fill-opacity:0.76751589;stroke-width:0.13241525" />
  <path
     id="path4620"
     d="m 567.93063,788.55653 v -37.47327 l 35.05694,-0.0336 35.05694,-0.0336 -35.05694,-0.0329 -35.05694,-0.0329 v -1.12553 -1.12553 h 36.87765 36.87764 v 14.49947 14.49947 h -0.79449 -0.79449 l -0.0281,-10.56012 -0.0281,-10.56011 -0.0713,10.48295 c -0.0392,5.76562 -0.11595,10.52761 -0.17057,10.58218 -0.0546,0.0546 -0.144,0.0546 -0.19863,-3e-5 -0.0546,-0.0546 -0.1291,-5.57138 -0.16551,-12.25952 -0.0364,-6.68814 -0.11277,-12.20678 -0.16967,-12.26364 -0.24028,-0.2401 0.0396,68.27199 0.28039,68.63947 0.0119,0.0182 0.11107,0.0331 0.22031,0.0331 0.16828,0 0.19863,0.32368 0.19863,2.11864 v 2.11865 h -0.32768 -0.32767 l -0.0401,-2.08554 -0.0401,-2.08554 -0.0295,2.08554 -0.0295,2.08554 h -35.6197 -35.6197 z"
     style="opacity:1;fill:#00ffff;fill-opacity:0.76751589;stroke-width:0.13241525" />
  <path
     id="path4622"
     d="m 538.40633,826.1557 v -64.13773 h 0.93632 0.93632 v 63.48231 63.48231 h 25.3742 25.37419 v 0.65542 0.65543 h -26.31051 -26.31052 z"
     style="opacity:1;fill:#00ffff;fill-opacity:0.76751589;stroke-width:0.18726344" />
  <path
     id="path4624"
     d="m 538.40633,826.1557 v -64.13773 h 0.93632 0.93632 v 63.48231 63.48231 h 25.3742 25.37419 v 0.65542 0.65543 h -26.31051 -26.31052 z"
     style="opacity:1;fill:#00ffff;fill-opacity:0.76751589;stroke-width:0.18726344" />
  <path
     id="path4626"
     d="m 538.40633,826.1557 v -64.13773 h 0.93632 0.93632 l -10e-6,63.4355 -10e-6,63.43549 48.64169,-0.002 c 26.75293,-0.001 38.17132,0.02 25.37421,0.0475 l -23.26749,0.05 v 0.65469 0.6547 h -26.31051 -26.31052 z"
     style="opacity:1;fill:#00ffff;fill-opacity:0.76751589;stroke-width:0.18726344" />
  <path
     id="path4628"
     d="m 591.18315,890.05936 c -0.0211,-0.78575 -0.0556,-0.93961 -0.10494,-0.46816 l -0.0735,0.70224 H 564.70554 538.40633 V 826.1557 762.01797 h 0.93632 0.93632 v 63.48231 63.48231 h 0.79587 0.79587 l -0.0474,-63.48231 -0.0474,-63.48231 h 48.6741 48.67411 l 0.0618,28.69813 c 0.0372,17.27598 0.13112,28.80597 0.23605,28.96909 0.0959,0.14904 0.15342,0.66453 0.12789,1.14555 -0.0361,0.6804 0.0247,0.90184 0.27384,0.99746 0.17614,0.0676 0.36438,0.0788 0.4183,0.0249 0.0539,-0.0539 0.0208,-0.098 -0.0736,-0.098 -0.10359,10e-6 -0.13453,-8.70631 -0.078,-21.95664 0.0515,-12.07616 0.0498,-24.73752 -0.004,-28.13635 l -0.0975,-6.17969 -0.043,6.03924 c -0.0275,3.87268 -0.11014,6.03925 -0.23022,6.03925 -0.11764,0 -0.18726,-1.20711 -0.18726,-3.24679 0,-1.78573 -0.0556,-5.28288 -0.12359,-7.77143 l -0.12358,-4.52465 h 1.12247 1.12247 l 0.12464,39.46577 c 0.0686,21.70618 0.12467,50.77883 0.1247,64.60589 l 5e-5,25.14012 h -25.28057 -25.28056 z m 48.1215,-33.80106 c -0.0202,-17.99835 -0.0661,-32.15547 -0.10218,-31.46026 l -0.0655,1.26403 h -0.7405 -0.7405 v 31.36586 31.36585 l -21.95664,0.0484 -21.95664,0.0484 22.79933,0.046 22.79932,0.046 z"
     style="opacity:1;fill:#00ffff;fill-opacity:0.76751589;stroke-width:0.18726344" />
  <path
     id="path4630"
     d="m 538.40633,890.76159 v -0.46815 h 24.71878 24.71877 v 0.46815 0.46816 h -24.71877 -24.71878 z"
     style="opacity:1;fill:#00ffff;fill-opacity:0.76751589;stroke-width:0.18726344" />
  <path
     id="path4632"
     d="m 538.40633,890.76159 v -0.46815 h 24.71878 24.71877 v 0.46815 0.46816 h -24.71877 -24.71878 z"
     style="opacity:1;fill:#00ffff;fill-opacity:0.76751589;stroke-width:0.18726344" />
  <path
     id="path4634"
     d="m 538.40633,890.76159 v -0.46815 h 24.71878 24.71877 v 0.46815 0.46816 h -24.71877 -24.71878 z"
     style="opacity:1;fill:#00ffff;fill-opacity:0.76751589;stroke-width:0.18726344" />
  <path
     id="path4636"
     d="m 538.40633,826.62386 v -64.60589 h 0.93632 0.93632 v 63.48231 63.48231 h 0.79587 0.79587 l -0.0474,-63.48231 -0.0474,-63.48231 h 48.68904 48.68904 l 0.0201,20.83306 c 0.011,11.45818 0.0933,24.54088 0.18265,29.07265 0.0894,4.53178 0.1607,8.60607 0.15842,9.05398 -0.003,0.5852 0.0642,0.79162 0.23869,0.73346 0.19738,-0.0658 0.24353,-5.05469 0.24658,-26.65674 0.002,-14.6167 -0.0205,-24.53231 -0.0501,-22.03468 -0.0297,2.49763 -0.12308,4.54114 -0.20762,4.54114 -0.14091,0 -0.40031,-8.75025 -0.40109,-13.52979 l -3.3e-4,-2.01308 h 1.09252 1.09252 l 0.12464,39.46577 c 0.0686,21.70618 0.12467,50.77883 0.1247,64.60589 l 5e-5,25.14012 h -25.28057 -25.28056 l -0.0315,-1.17039 c -0.0211,-0.78575 -0.0556,-0.93961 -0.10494,-0.46816 l -0.0735,0.70224 h -1.58043 c -1.56096,0 -1.58044,0.006 -1.58044,0.46815 v 0.46816 h -24.71877 -24.71878 z m 100.9095,30.47713 c -0.014,-17.53488 -0.062,-31.692 -0.10666,-31.46026 -0.0677,0.35172 -0.20278,0.42134 -0.81718,0.42134 h -0.73603 v 31.36485 31.36484 l -9.12909,0.0504 -9.1291,0.0504 9.97178,0.045 9.97178,0.045 z"
     style="opacity:1;fill:#00ffff;fill-opacity:0.76751589;stroke-width:0.18726344" />
  <path
     id="path4638"
     d="m 540.46623,825.40665 v -63.38868 h 0.65542 0.65543 v 63.38868 63.38868 h -0.65543 -0.65542 z"
     style="opacity:1;fill:#00ffff;fill-opacity:0.76751589;stroke-width:0.18726344" />
  <path
     id="path4640"
     d="m 540.46623,825.40665 v -63.38868 h 0.65542 0.65543 v 63.38868 63.38868 h -0.65543 -0.65542 z"
     style="opacity:1;fill:#00ffff;fill-opacity:0.76751589;stroke-width:0.18726344" />
  <path
     id="path4642"
     d="m 538.40633,826.62386 v -64.60589 h 0.93632 0.93632 v 63.48231 63.48231 l 0.79587,-0.0315 0.79587,-0.0315 -0.70224,-0.0734 -0.70224,-0.0735 v -63.37737 -63.37738 h 49.34392 49.34392 l 0.0138,18.30501 c 0.008,10.06775 0.0956,23.06617 0.19546,28.88538 0.0999,5.81921 0.17956,10.97669 0.17703,11.46106 -0.003,0.48436 0.078,0.93174 0.17906,0.99418 0.10102,0.0624 0.1879,0.0453 0.19307,-0.038 0.005,-0.0833 0.0262,-11.10641 0.0468,-24.49575 0.0206,-13.38934 0.0138,-23.26982 -0.015,-21.95664 -0.13908,6.33617 -0.60149,-1.13638 -0.60258,-9.7377 l -4.3e-4,-3.41756 h 1.09252 1.09252 l 0.12464,39.46577 c 0.0686,21.70618 0.12467,50.77883 0.1247,64.60589 l 5e-5,25.14012 h -25.28057 -25.28056 l -0.0281,-0.98313 c -0.0154,-0.54072 -0.0632,-0.7514 -0.10607,-0.46816 -0.078,0.51492 -0.0782,0.51498 -1.65731,0.51498 -1.55975,0 -1.57931,0.006 -1.57931,0.46815 v 0.46816 h -24.71877 -24.71878 z m 100.935,30.89847 v -31.46026 h -0.84268 -0.84269 v 31.36029 31.3603 l -2.01308,0.0602 c -1.74389,0.0521 -1.63121,0.0655 0.84268,0.1 l 2.85577,0.0398 z"
     style="opacity:1;fill:#00ffff;fill-opacity:0.76751589;stroke-width:0.18726344" />
  <path
     id="path4644"
     d="m 639.24282,846.84832 c 0,-7.36414 0.0232,-10.37674 0.0516,-6.69467 0.0284,3.68206 0.0284,9.70727 0,13.38933 -0.0284,3.68207 -0.0516,0.66947 -0.0516,-6.69466 z"
     style="opacity:1;fill:#00ffff;fill-opacity:0.76751589;stroke-width:0.18726344" />
  <path
     id="path4646"
     d="m 639.24221,841.88583 c 2e-5,-6.48867 0.0235,-9.11598 0.0522,-5.83844 0.0287,3.27753 0.0287,8.58645 -4e-5,11.79759 -0.0287,3.21115 -0.0522,0.52953 -0.0522,-5.95915 z"
     style="opacity:1;fill:#00ffff;fill-opacity:0.76751589;stroke-width:0.18726344" />
  <path
     id="path4648"
     d="m 638.54546,888.83084 -0.70224,-0.0581 V 857.4174 826.06207 h 0.6324 0.63239 l 0.13085,28.69813 c 0.072,15.78396 0.1034,29.92001 0.0698,31.41344 l -0.061,2.71532 z"
     style="opacity:1;fill:#00ffff;fill-opacity:0.76751589;stroke-width:0.18726344" />
  <path
     id="path4650"
     d="m 637.84322,857.4287 v -31.36663 h 0.56179 c 0.48265,0 0.56492,0.0726 0.58395,0.51498 l 0.0222,0.51497 0.11829,-0.55023 c 0.0986,-0.45874 0.15111,57.09167 0.0556,60.98951 l -0.031,1.26403 h -0.65542 -0.65543 z"
     style="opacity:1;fill:#00ffff;fill-opacity:0.76751589;stroke-width:0.18726344" />
  <path
     id="path4652"
     d="m 538.40633,826.62386 v -64.60589 h 0.93632 0.93632 v 63.48231 63.48231 l 0.79587,-0.0315 0.79587,-0.0315 -0.70224,-0.0734 -0.70224,-0.0735 v -63.37737 -63.37738 h 49.34392 49.34392 l 0.008,15.77695 c 0.004,8.67732 0.0964,21.67574 0.20495,28.88539 0.10852,7.20964 0.19096,13.50474 0.1832,13.98911 -0.008,0.48436 0.0685,0.93174 0.16957,0.99418 0.11957,0.0739 0.18381,-6.18092 0.18404,-17.92164 2e-4,-9.91934 0.0331,-20.39468 0.0731,-23.27854 0.04,-2.88385 0.0358,-4.7167 -0.009,-4.07298 -0.26504,3.77891 -0.62601,-2.15034 -0.62601,-10.28278 v -4.08969 h 1.09252 1.09252 l 0.12464,39.46577 c 0.0686,21.70618 0.12467,50.77883 0.1247,64.60589 l 5e-5,25.14012 h -25.28057 -25.28056 l -0.0217,-0.79587 c -0.0119,-0.43773 -0.0603,-0.6484 -0.10736,-0.46816 -0.073,0.27941 -0.31825,0.32772 -1.66365,0.32772 -1.55836,0 -1.57801,0.006 -1.57801,0.46815 v 0.46816 h -24.71877 -24.71878 z m 100.935,30.89847 c 0,-17.30314 -0.0632,-31.46026 -0.14045,-31.46027 -0.0772,0 -0.11817,14.11498 -0.091,31.36663 l 0.0495,31.36664 h -0.6581 -0.65811 l -0.0463,-31.41345 -0.0463,-31.41344 -0.0479,31.40106 -0.0479,31.40106 -0.51443,0.078 c -0.28293,0.0429 0.0965,0.0906 0.84323,0.10601 l 1.35766,0.0281 z"
     style="opacity:1;fill:#00ffff;fill-opacity:0.76751589;stroke-width:0.18726344" />
  <path
     id="path4654"
     d="m 540.52991,756.50945 c 0,-3.00141 0.21372,-5.03178 0.52966,-5.03178 0.31594,0 0.52966,2.03037 0.52966,5.03178 0,3.00142 -0.21372,5.03178 -0.52966,5.03178 -0.31594,0 -0.52966,-2.03036 -0.52966,-5.03178 z"
     style="opacity:1;fill:#00ffff;fill-opacity:0.76751589;stroke-width:0.529661" />
  <path
     id="path4656"
     d="m 541.58923,761.01157 c 0,-0.58262 -0.23835,-1.05932 -0.52966,-1.05932 -0.29878,0 -0.52966,-1.5007 -0.52966,-3.4428 0,-1.89353 0.22087,-3.44279 0.49082,-3.44279 0.26996,0 0.59983,-0.41711 0.73305,-0.92691 0.13323,-0.5098 0.26988,1.51616 0.30367,4.50212 0.0338,2.98596 -0.0577,5.42903 -0.20339,5.42903 -0.14566,0 -0.26483,-0.4767 -0.26483,-1.05933 z"
     style="opacity:1;fill:#00ffff;fill-opacity:0.76751589;stroke-width:0.529661" />
  <path
     id="path4658"
     d="m 538.45177,755.99893 v -5.99179 h 14.7312 14.73119 v 0.49542 0.49542 l 1.67174,0.0189 c 0.91946,0.0104 -5.29247,0.0258 -13.80429,0.0342 l -15.47603,0.0154 v 5.46213 5.46213 h -0.92691 -0.9269 z"
     style="opacity:1;fill:#00ffff;fill-opacity:0.76751589;stroke-width:0.06620762" />
  <path
     id="path4660"
     d="m 538.45177,755.99893 v -5.99179 h 14.7312 14.73119 v 0.49656 0.49655 h -12.10525 c -6.65789,0 -12.86983,0.0197 -13.80429,0.0437 l -1.69904,0.0437 v 5.45151 5.45152 h -0.92691 -0.9269 z"
     style="opacity:1;fill:#00ffff;fill-opacity:0.76751589;stroke-width:0.06620762" />
  <path
     id="path4662"
     d="m 538.45177,755.99893 v -5.99179 h 14.7672 14.7672 l -0.0195,0.48 -0.0195,0.48001 -13.80429,0.0364 c -7.59236,0.02 -13.81174,0.0423 -13.82085,0.0497 -0.009,0.007 -0.0166,2.47126 -0.0166,5.47543 v 5.46213 h -0.92691 -0.9269 z"
     style="opacity:1;fill:#00ffff;fill-opacity:0.76751589;stroke-width:0.06620762" />
  <path
     id="path4664"
     d="m 538.40235,773.73748 c 0.0206,-13.02088 0.0501,-23.68693 0.0656,-23.70233 0.0154,-0.0154 6.64604,-0.028 14.73474,-0.028 h 14.70673 l 0.019,-0.64553 0.019,-0.64552 1.63863,-0.0177 1.63864,-0.0177 v 1.11882 1.11882 l -3.32693,0.0448 c -1.82981,0.0247 -8.43651,0.0506 -14.68154,0.0577 -10.64944,0.0121 -10.44282,0.0139 3.32693,0.0292 l 14.68154,0.0164 v 23.17267 23.17267 H 555.8313 540.4379 l 0.0167,-17.69399 0.0167,-17.69399 0.67863,-0.0189 0.67863,-0.0189 v -5.45982 -5.45981 h -0.76064 -0.76063 l -0.0173,5.51179 c -0.01,3.03148 -0.01,13.45918 -6.3e-4,23.17267 l 0.0167,17.66088 h -0.97051 -0.97051 z"
     style="opacity:1;fill:#00ffff;fill-opacity:0.76751589;stroke-width:0.06620762" />
  <path
     id="path4666"
     d="m 540.38822,774.28879 -0.0164,-23.15612 h 0.72828 0.72829 v 0.42846 c 0,0.32194 -0.0434,0.52358 -0.17445,0.81104 l -0.17445,0.38259 -0.10908,-0.53862 c -0.10134,-0.50045 -0.21435,-0.75243 -0.33743,-0.75243 -0.0944,0 -0.2544,0.50626 -0.32637,1.03281 -0.33414,2.44463 -0.20715,8.14715 0.1983,8.90474 0.16097,0.30077 0.33512,0.0748 0.46029,-0.59723 0.0368,-0.1975 0.0796,-0.37186 0.0952,-0.38746 0.0354,-0.0354 0.0854,0.28576 0.13152,0.84587 0.0195,0.23669 0.0544,0.49738 0.0775,0.57931 0.0415,0.14707 0.0339,0.14897 -0.59458,0.14897 h -0.63657 l -0.0168,17.72709 c -0.0164,17.35265 -0.0171,17.23797 -0.0332,-5.42902 z"
     style="opacity:1;fill:#00ffff;fill-opacity:0.76751589;stroke-width:0.06620762" />
  <path
     id="path4668"
     d="m 540.37179,758.75758 v -7.62491 h 0.73789 0.73788 l -0.0379,0.4469 c -0.0208,0.2458 -0.0578,0.50649 -0.082,0.57932 -0.0357,0.107 -0.0304,0.11335 0.0273,0.0331 0.0514,-0.0714 0.0717,1.29505 0.0725,4.86295 9.1e-4,4.45371 -0.0247,5.27449 -0.14691,4.70405 -0.0245,-0.11424 -0.0322,-0.10969 -0.0561,0.0331 -0.0266,0.1587 -0.0498,0.1663 -0.56392,0.18458 l -0.53619,0.0191 -0.0367,2.15382 c -0.0202,1.1846 -0.0545,2.17162 -0.0762,2.19337 -0.0217,0.0217 -0.0395,-3.39166 -0.0395,-7.58536 z m 1.19135,1.87402 c -0.0799,-0.38471 -0.20279,-0.43409 -0.19164,-0.077 0.006,0.19776 0.01,0.20069 0.0538,0.0457 0.0429,-0.1505 0.0512,-0.14148 0.092,0.0993 0.0247,0.14566 0.0496,0.35421 0.0555,0.46345 l 0.0106,0.19863 0.0277,-0.18305 c 0.0152,-0.10067 -0.006,-0.34687 -0.0479,-0.5471 z m -0.74888,0.35359 c -0.0211,-0.0528 -0.0368,-0.0371 -0.04,0.04 -0.003,0.0698 0.0128,0.1089 0.0348,0.0869 0.022,-0.022 0.0244,-0.0791 0.005,-0.1269 z m -0.0656,-0.43323 c -0.0168,-0.0644 -0.0316,-0.0277 -0.033,0.0815 -10e-4,0.10925 0.0124,0.16195 0.0305,0.11713 0.0181,-0.0448 0.0192,-0.13421 0.002,-0.19863 z m -0.0662,-0.52966 c -0.0168,-0.0644 -0.0316,-0.0277 -0.033,0.0815 -10e-4,0.10924 0.0124,0.16195 0.0305,0.11713 0.0181,-0.0448 0.0192,-0.13421 0.002,-0.19863 z m 0.83828,-3.26198 c 0.005,-1.40195 -0.0154,-2.8387 -0.0461,-3.19278 l -0.0557,-0.64379 -0.25624,0.13073 c -0.19757,0.10079 -0.27129,0.18757 -0.32196,0.37895 -0.094,0.35505 -0.20129,1.0589 -0.21448,1.40687 l -0.0113,0.29793 -0.0389,-0.36414 c -0.0214,-0.20028 -0.0389,0.46118 -0.0389,1.46991 0,1.00872 0.0202,1.78335 0.045,1.7214 0.0258,-0.0645 0.048,0.0289 0.052,0.21838 0.008,0.38487 0.15554,1.24185 0.25936,1.50741 0.0394,0.10079 0.14377,0.21068 0.23192,0.2442 0.0882,0.0335 0.18514,0.10001 0.21554,0.14778 0.11517,0.18098 0.17027,-0.83809 0.17968,-3.32285 z m -0.90364,2.36692 c -0.0158,-0.0819 -0.0287,-0.0149 -0.0287,0.14897 0,0.16386 0.0129,0.2309 0.0287,0.14896 0.0158,-0.0819 0.0158,-0.216 0,-0.29793 z m 10e-4,-5.62765 c -0.0147,-0.11835 -0.0267,-0.0215 -0.0267,0.21518 0,0.23669 0.012,0.33352 0.0267,0.21517 0.0147,-0.11835 0.0147,-0.312 0,-0.43035 z m 0.0638,-0.76216 c -0.0166,-0.0633 -0.0295,0.004 -0.0288,0.14974 7.3e-4,0.14566 0.0143,0.19745 0.0301,0.11509 0.0158,-0.0824 0.0152,-0.20153 -0.001,-0.26483 z m 0.99503,-0.38769 c -0.0194,-0.0194 -0.0549,0.0265 -0.0789,0.10209 -0.0623,0.19621 -0.16573,0.16976 -0.17478,-0.0447 -0.005,-0.12157 -0.0181,-0.14183 -0.039,-0.061 -0.0172,0.0666 -0.0117,0.19929 0.0123,0.29484 l 0.0436,0.17374 0.13603,-0.21485 c 0.0748,-0.11817 0.12015,-0.23075 0.10072,-0.25018 z m -0.93046,-0.0419 c -0.0184,-0.0455 -0.0334,-0.008 -0.0334,0.0828 0,0.091 0.015,0.12828 0.0334,0.0828 0.0184,-0.0455 0.0184,-0.12 0,-0.16552 z m 0.59724,-0.26069 c -0.0211,-0.0528 -0.0368,-0.0371 -0.04,0.04 -0.003,0.0698 0.0128,0.1089 0.0348,0.0869 0.022,-0.022 0.0244,-0.0791 0.005,-0.1269 z"
     style="opacity:1;fill:#00ffff;fill-opacity:0.76751589;stroke-width:0.06620762" />
  <path
     id="path4670"
     d="m 538.40226,773.73759 c 0.0206,-13.02081 0.0501,-23.68686 0.0655,-23.70233 0.0155,-0.0155 6.64723,-0.0281 14.73725,-0.0281 h 14.70913 v -0.66208 -0.66207 h 1.65519 1.65519 v 1.11766 1.11766 l -3.32693,0.0448 c -1.82981,0.0247 -7.28946,0.0507 -12.13255,0.0578 -7.40178,0.0109 -6.87139,0.0155 3.32694,0.0293 l 12.13254,0.0163 v 23.17267 23.17267 h -15.38228 -15.38229 l -0.0432,-23.11833 c -0.0238,-12.71508 -0.0348,-23.12682 -0.0244,-23.13719 0.0104,-0.0104 0.34517,-0.0285 0.744,-0.0403 l 0.72514,-0.0214 -0.77794,-0.0141 -0.77794,-0.0141 v 23.17267 23.17267 h -0.97036 -0.97036 z m 3.41295,-11.87195 c 0.0172,-0.052 3e-4,-0.0734 -0.0388,-0.0492 -0.038,0.0235 -0.0842,0.005 -0.10267,-0.0404 -0.0211,-0.0524 -0.0355,-0.0423 -0.0388,0.0272 -0.003,0.0607 -0.0425,0.12694 -0.088,0.14723 -0.0455,0.0203 -0.0106,0.0302 0.0776,0.0221 0.0882,-0.008 0.17398,-0.0562 0.19066,-0.10679 z m -0.20938,-0.96171 c -0.0232,-0.19718 -0.0603,-0.40574 -0.0824,-0.46346 -0.0643,-0.1676 -0.15861,-0.12143 -0.1575,0.0771 6.9e-4,0.12459 0.0186,0.15426 0.0569,0.094 0.0595,-0.0939 0.14075,0.19106 0.14075,0.49362 0,0.0865 0.019,0.15725 0.0422,0.15725 0.0232,0 0.0233,-0.16133 8e-5,-0.35851 z m -0.85778,-0.31598 c -0.0211,-0.0528 -0.0368,-0.0371 -0.04,0.04 -0.003,0.0698 0.0128,0.10889 0.0348,0.0869 0.022,-0.022 0.0244,-0.0791 0.005,-0.12689 z m -0.0662,-0.52967 c -0.0211,-0.0528 -0.0368,-0.0371 -0.04,0.04 -0.003,0.0698 0.0128,0.1089 0.0348,0.0869 0.022,-0.022 0.0244,-0.0791 0.005,-0.1269 z m -0.0676,-0.86483 c -0.0184,-0.0455 -0.0334,-0.008 -0.0334,0.0828 0,0.091 0.015,0.12827 0.0334,0.0828 0.0184,-0.0455 0.0184,-0.12001 0,-0.16552 z m -0.0648,-4.10074 c -0.0211,-0.0528 -0.0368,-0.0371 -0.04,0.04 -0.003,0.0698 0.0128,0.1089 0.0348,0.0869 0.022,-0.022 0.0244,-0.0791 0.005,-0.1269 z m 0.0666,-1.49381 c -0.0167,-0.0637 -0.0303,-0.0116 -0.0303,0.11587 0,0.12745 0.0136,0.17958 0.0303,0.11586 0.0167,-0.0637 0.0167,-0.168 0,-0.23173 z m 0.0658,-0.75725 c -0.0211,-0.0528 -0.0368,-0.0371 -0.04,0.04 -0.003,0.0698 0.0128,0.1089 0.0348,0.0869 0.022,-0.022 0.0244,-0.0791 0.005,-0.1269 z m 0.99529,-0.49191 c -0.0194,-0.0194 -0.0549,0.0265 -0.0789,0.10209 -0.058,0.18264 -0.16577,0.17541 -0.17233,-0.0116 -0.003,-0.0819 -0.0207,-0.11045 -0.0396,-0.0634 -0.0189,0.0471 -0.0145,0.16486 0.01,0.26174 l 0.0442,0.17613 0.13603,-0.21485 c 0.0748,-0.11817 0.12015,-0.23075 0.10072,-0.25018 z m 0.15122,-0.35637 c 0,-0.10925 -0.0115,-0.19863 -0.0256,-0.19863 -0.0141,0 -0.0387,0.0894 -0.0547,0.19863 -0.016,0.10924 -0.005,0.19862 0.0256,0.19862 0.0301,0 0.0547,-0.0894 0.0547,-0.19862 z"
     style="opacity:1;fill:#00ffff;fill-opacity:0.76751589;stroke-width:0.06620762" />
  <path
     id="path4672"
     d="m 538.38556,749.34506 v -0.66207 h 14.7643 14.7643 v 0.66207 0.66208 h -14.7643 -14.7643 z"
     style="opacity:1;fill:#00ffff;fill-opacity:0.76751589;stroke-width:0.06620762" />
  <path
     id="path4674"
     d="m 538.38556,749.34506 v -0.66207 h 14.7643 14.7643 v 0.66207 0.66208 h -14.7643 -14.7643 z"
     style="opacity:1;fill:#00ffff;fill-opacity:0.76751589;stroke-width:0.06620762" />
  <path
     id="path4676"
     d="m 538.38556,749.34506 v -0.66207 l 14.78085,-1.5e-4 14.78086,-1.4e-4 -0.0209,0.66222 -0.021,0.66222 h -14.75991 -14.7599 z"
     style="opacity:1;fill:#00ffff;fill-opacity:0.76751589;stroke-width:0.06620762" />
  <path
     id="path4678"
     d="M 487.92538,761.1305 V 751.06694 H 475.85904 463.7927 v -0.52966 -0.52966 h 12.39738 12.39738 v 10.59322 10.59322 h -0.33104 -0.33104 z"
     style="opacity:1;fill:#00ffff;fill-opacity:0.76751589;stroke-width:0.03310381" />
  <path
     id="path4680"
     d="M 487.92538,761.1305 V 751.06694 H 475.85904 463.7927 v -0.52966 -0.52966 h 12.39738 12.39738 v 10.59322 10.59322 h -0.33104 -0.33104 z"
     style="opacity:1;fill:#00ffff;fill-opacity:0.76751589;stroke-width:0.03310381" />
  <path
     id="path4682"
     d="m 487.92538,761.13877 v -10.05528 l -12.06634,0.008 -12.06634,0.008 v -0.5463 -0.5463 h 12.39738 12.39738 v 10.59322 10.59322 h -0.33104 -0.33104 z"
     style="opacity:1;fill:#00ffff;fill-opacity:0.76751589;stroke-width:0.03310381" />
  <path
     id="path4684"
     d="M 488.58746,760.60084 V 750.00762 H 476.19008 463.7927 v -0.66208 -0.66208 h 12.5298 12.52979 v 11.2553 11.2553 h -0.13242 -0.13241 z"
     style="opacity:1;fill:#00ffff;fill-opacity:0.76751589;stroke-width:0.03310381" />
  <path
     id="path4686"
     d="M 488.58746,760.60084 V 750.00762 H 476.19008 463.7927 v -0.66208 -0.66208 h 12.5298 12.52979 v 11.2553 11.2553 h -0.13242 -0.13241 z"
     style="opacity:1;fill:#00ffff;fill-opacity:0.76751589;stroke-width:0.03310381" />
  <path
     id="path4688"
     d="m 487.92538,761.13877 v -10.05528 l -12.06634,0.008 -12.06634,0.008 v -1.20838 -1.20838 h 12.5298 12.52979 v 11.2553 11.2553 h -0.46345 -0.46346 z"
     style="opacity:1;fill:#00ffff;fill-opacity:0.76751589;stroke-width:0.03310381" />
  <path
     id="path4690"
     d="m 386.99438,889.69849 v -0.66275 h 50.45022 50.45021 v -58.79237 c 0,-52.12148 0.0451,-58.79238 0.39782,-58.79238 0.3529,0 0.39029,6.70708 0.33104,59.38824 l -0.0668,59.38825 -50.78125,0.0669 -50.78125,0.0669 z"
     style="opacity:1;fill:#00ffff;fill-opacity:0.76751589;stroke-width:0.2648305" />
  <path
     id="path4692"
     d="m 478.42712,890.16201 c 1.85712,-0.0455 4.89605,-0.0455 6.75317,0 1.85713,0.0455 0.33766,0.0828 -3.37658,0.0828 -3.71425,0 -5.23372,-0.0372 -3.37659,-0.0828 z"
     style="opacity:1;fill:#00ffff;fill-opacity:0.76751589;stroke-width:0.2648305" />
  <path
     id="path4694"
     d="m 480.41335,890.16465 c 0.76469,-0.0535 2.01602,-0.0535 2.78072,0 0.76469,0.0535 0.13903,0.0973 -1.39036,0.0973 -1.5294,0 -2.15506,-0.0438 -1.39036,-0.0973 z"
     style="opacity:1;fill:#00ffff;fill-opacity:0.76751589;stroke-width:0.2648305" />
  <path
     id="path4696"
     d="m 481.20784,890.17299 c 0.32772,-0.0631 0.86401,-0.0631 1.19173,0 0.32773,0.0631 0.0596,0.11477 -0.59586,0.11477 -0.65546,0 -0.9236,-0.0516 -0.59587,-0.11477 z"
     style="opacity:1;fill:#00ffff;fill-opacity:0.76751589;stroke-width:0.2648305" />
  <path
     id="path4698"
     d="m 388.41575,890.78012 v -0.39707 l 50.08607,-0.0333 50.08607,-0.0333 0.0666,-34.09692 0.0666,-34.09693 0.0327,34.52728 0.0327,34.52727 h -50.18538 -50.18538 z"
     style="opacity:1;fill:#00ffff;fill-opacity:0.76751589;stroke-width:0.13241525" />
  <path
     id="path4700"
     d="m 388.41575,890.77995 v -0.39725 h 50.11698 50.11697 l 0.0376,-3.4759 0.0376,-3.4759 0.0308,3.87315 0.0308,3.87314 h -50.18538 -50.18538 z"
     style="opacity:1;fill:#00ffff;fill-opacity:0.76751589;stroke-width:0.13241525" />
  <path
     id="path4702"
     d="m 388.41575,890.77995 v -0.39725 h 50.11257 50.11256 l 0.0478,-0.76139 c 0.0371,-0.59064 0.0534,-0.50156 0.0728,0.39725 l 0.025,1.15863 H 438.6011 388.41572 Z"
     style="opacity:1;fill:#00ffff;fill-opacity:0.76751589;stroke-width:0.13241525" />
  <path
     id="path4704"
     d="m 388.41575,890.77995 v -0.39725 h 50.11078 50.11079 l 0.0534,-0.43035 c 0.0295,-0.2376 0.0629,-0.0597 0.0746,0.39725 l 0.0212,0.82759 h -50.18538 -50.18538 z"
     style="opacity:1;fill:#00ffff;fill-opacity:0.76751589;stroke-width:0.13241525" />
  <path
     id="path4706"
     d="m 385.40783,891.21047 c -0.0343,-0.0343 -0.0624,-9.72521 -0.0624,-21.53529 V 848.2023 h 0.32771 0.32771 v 20.3649 20.3649 h 0.46816 0.46816 v 0.74905 0.74906 h 0.70224 0.70224 v 0.37441 0.37441 l 37.42928,0.0236 37.42928,0.0236 -38.86497,0.0233 c -21.37573,0.0128 -38.89306,-0.005 -38.92739,-0.0391 z"
     style="opacity:1;fill:#00ffff;fill-opacity:0.76751589;stroke-width:0.09363172" />
  <path
     id="path4708"
     d="m 385.40776,878.46876 c -0.0342,-6.99078 -0.0623,-16.6606 -0.0623,-21.48849 l -4e-5,-8.77797 h 0.32771 0.32771 v 20.3649 20.3649 h 0.46816 0.46816 v 0.74905 0.74906 h 0.70224 0.70224 v 0.37453 0.37452 h -1.4358 -1.4358 z"
     style="opacity:1;fill:#00ffff;fill-opacity:0.76751589;stroke-width:0.09363172" />
  <path
     id="path4710"
     d="m 385.49752,889.98546 c -0.0308,-0.65659 -0.083,-10.32641 -0.11586,-21.48848 l -0.0598,-20.29468 h 0.38673 0.38673 l -0.0238,20.34149 -0.0238,20.34149 38.52945,-1.8e-4 38.52946,-1.9e-4 -38.0847,0.0238 -38.08471,0.0237 v 0.74894 0.74894 h 0.70224 0.70224 v 0.37452 0.37453 h -1.39403 -1.39404 l -0.056,-1.1938 z"
     style="opacity:1;fill:#00ffff;fill-opacity:0.76751589;stroke-width:0.09363172" />
  <path
     id="path4712"
     d="m 385.49969,889.2364 c -0.0322,-1.06857 -0.0861,-10.73838 -0.11968,-21.48848 l -0.0611,-19.54562 h 38.91723 38.91724 v 20.3649 20.3649 h -38.10812 -38.10811 v 0.74905 0.74906 h 0.70224 0.70224 v 0.37453 0.37452 h -1.39168 -1.39167 z"
     style="opacity:1;fill:#00ffff;fill-opacity:0.76751589;stroke-width:0.09363172" />
  <path
     id="path4714"
     d="m 388.36492,890.78008 v -0.38005 l -0.72,-0.01 -0.72001,-0.01 0.73656,-0.008 0.73656,-0.008 v 0.39724 c 0,0.21849 -0.007,0.39725 -0.0165,0.39725 -0.009,0 -0.0166,-0.17102 -0.0166,-0.38005 z"
     style="opacity:1;fill:#00ffff;fill-opacity:0.76751589;stroke-width:0.03310381" />
  <path
     id="path4716"
     d="m 387.39601,890.37703 c 0.0224,-0.009 0.0671,-0.01 0.0993,-10e-4 0.0322,0.008 0.0139,0.0158 -0.0408,0.0165 -0.0546,6.7e-4 -0.081,-0.006 -0.0586,-0.0153 z"
     style="opacity:1;fill:#00ffff;fill-opacity:0.76751589;stroke-width:0.03310381" />
  <path
     id="path4718"
     d=""
     style="opacity:1;fill:#00ffff;fill-opacity:0.76751589;stroke-width:0.03310381" />
  <path
     id="path4720"
     d=""
     style="opacity:1;fill:#00ffff;fill-opacity:0.76751589;stroke-width:0.03310381" />
  <path
     id="path4722"
     d="m 386.94613,889.64694 v -0.70118 l 0.0966,-0.007 c 0.0531,-0.004 2.28096,-0.007 4.95078,-0.007 l 4.85422,5.7e-4 v 0.0468 0.0468 h -4.92737 -4.92737 v 0.66128 c 0,0.65347 -2.7e-4,0.66127 -0.0234,0.66127 -0.0231,0 -0.0234,-0.008 -0.0234,-0.70119 z"
     style="opacity:1;fill:#00ffff;fill-opacity:0.76751589;stroke-width:0.01170397" />
  <path
     id="path4724"
     d="m 386.95386,890.13453 c -0.004,-0.11104 -0.008,-0.42122 -0.008,-0.68928 -3e-5,-0.40933 0.003,-0.4884 0.0165,-0.49374 0.009,-0.003 2.23695,-0.0102 4.95078,-0.0148 l 4.93422,-0.008 v 0.0487 0.0487 h -4.92737 -4.92737 v 0.46044 c 0,0.48634 -0.01,0.85041 -0.0234,0.85041 -0.004,0 -0.0115,-0.0909 -0.0157,-0.2019 z"
     style="opacity:1;fill:#00ffff;fill-opacity:0.76751589;stroke-width:0.01170397" />
  <path
     id="path4726"
     d="m 386.95182,889.84779 c -0.009,-0.42202 -0.004,-0.87477 0.01,-0.88834 0.007,-0.007 5.90493,-0.0253 8.61334,-0.0268 l 1.2728,-6.9e-4 v 0.0468 0.0468 h -4.92737 -4.92737 l -2e-5,0.29553 c -3e-5,0.40655 -0.0137,0.94509 -0.0239,0.94509 -0.005,0 -0.0124,-0.18829 -0.0172,-0.41841 z"
     style="opacity:1;fill:#00ffff;fill-opacity:0.76751589;stroke-width:0.01170397" />
  <path
     id="path4728"
     d="m 386.95172,889.81267 c -0.008,-0.37755 -0.002,-0.84093 0.0101,-0.85355 0.005,-0.005 6.77031,-0.0262 8.69493,-0.0268 l 1.19088,-3.7e-4 v 0.0468 0.0468 h -4.92737 -4.92737 l -2e-5,0.29553 c -3e-5,0.3984 -0.0135,0.90998 -0.0239,0.90998 -0.005,0 -0.0124,-0.18829 -0.0173,-0.41842 z"
     style="opacity:1;fill:#00ffff;fill-opacity:0.76751589;stroke-width:0.01170397" />
  <path
     id="path4730"
     d="m 385.34804,890.20195 v -1.06553 h 0.0159 0.0159 l 0.003,0.45207 c 0.005,0.8228 0.0152,1.56737 0.0218,1.60906 l 0.002,0.0152 0.0689,0.003 c 0.13259,0.005 0.86532,0.0104 2.05922,0.0147 0.66228,0.002 1.39641,0.006 1.6314,0.007 l 0.42724,0.002 v 0.014 0.014 h -2.12278 -2.12278 z"
     style="opacity:1;fill:#00ffff;fill-opacity:0.76751589;stroke-width:0.00413798" />
  <path
     id="path4732"
     d="m 385.34804,890.20195 v -1.06553 h 0.014 0.014 l 0.002,0.16241 c 10e-4,0.0893 0.004,0.42218 0.007,0.73967 0.006,0.79341 0.0125,1.15792 0.0207,1.17117 0.002,0.004 0.03,0.006 0.11024,0.009 0.15299,0.005 1.21222,0.0112 2.56696,0.0161 0.64294,0.002 1.24579,0.005 1.33967,0.007 l 0.17069,0.003 v 0.0119 0.0119 h -2.12278 -2.12278 z"
     style="opacity:1;fill:#00ffff;fill-opacity:0.76751589;stroke-width:0.00413798" />
  <path
     id="path4734"
     d="m 385.34804,890.20195 v -1.06553 h 0.0145 0.0145 v 0.10448 c -1e-5,0.11235 0.006,0.69985 0.0125,1.3314 0.004,0.37375 0.01,0.62195 0.0147,0.63451 10e-4,0.003 0.01,0.007 0.0196,0.008 0.0495,0.007 0.52666,0.0109 3.19738,0.0234 0.4859,0.002 0.90347,0.005 0.92794,0.007 0.0432,0.003 0.0445,0.003 0.0445,0.0123 v 0.01 h -2.12278 -2.12278 z"
     style="opacity:1;fill:#00ffff;fill-opacity:0.76751589;stroke-width:0.00413798" />
  <path
     id="path4736"
     d="m 385.34804,890.20195 v -1.06553 h 0.0145 0.0145 v 0.10241 c 0,0.17888 0.0121,1.37538 0.0165,1.62933 0.004,0.25329 0.007,0.33306 0.0126,0.34161 0.002,0.004 0.0298,0.006 0.0915,0.008 0.10982,0.004 0.99956,0.0103 2.70151,0.0188 0.72032,0.004 1.32829,0.008 1.35105,0.009 0.0388,0.003 0.0415,0.003 0.0427,0.012 l 0.001,0.009 h -2.12307 -2.12307 z"
     style="opacity:1;fill:#00ffff;fill-opacity:0.76751589;stroke-width:0.00413798" />
  <path
     id="path4738"
     d="m 414.74492,888.98073 v -0.0468 h 7.40276 7.40276 v 0.0468 0.0468 h -7.40276 -7.40276 z"
     style="opacity:1;fill:#00ffff;fill-opacity:0.76751589;stroke-width:0.01170397" />
  <path
     id="path4740"
     d="m 414.74492,888.98073 v -0.0468 h 7.40276 7.40276 v 0.0468 0.0468 h -7.40276 -7.40276 z"
     style="opacity:1;fill:#00ffff;fill-opacity:0.76751589;stroke-width:0.01170397" />
  <path
     id="path4742"
     d="m 414.74492,888.98073 v -0.0468 h 7.40276 7.40276 v 0.0468 0.0468 h -7.40276 -7.40276 z"
     style="opacity:1;fill:#00ffff;fill-opacity:0.76751589;stroke-width:0.01170397" />
  <path
     id="path4744"
     d="m 414.74492,888.98073 v -0.0468 h 7.40276 7.40276 v 0.0468 0.0468 h -7.40276 -7.40276 z"
     style="opacity:1;fill:#00ffff;fill-opacity:0.76751589;stroke-width:0.01170397" />
  <path
     id="path4746"
     d="m 414.74492,889.67712 v -0.63787 h 7.40276 7.40276 v 0.63007 0.63006 l -5.33896,0.008 c -2.93643,0.004 -6.26767,0.008 -7.40276,0.008 h -2.0638 z"
     style="opacity:1;fill:#00ffff;fill-opacity:0.76751589;stroke-width:0.01170397" />
  <path
     id="path4748"
     d="m 414.74492,889.67801 v -0.63876 h 7.40276 7.40276 v 0.62475 0.62476 l -0.77539,0.007 c -0.42646,0.004 -3.75771,0.0102 -7.40276,0.014 l -6.62737,0.007 z"
     style="opacity:1;fill:#00ffff;fill-opacity:0.76751589;stroke-width:0.01170397" />
  <path
     id="path4750"
     d="m 414.74492,889.67839 v -0.63914 h 7.40276 7.40276 v 0.62473 0.62473 l -1.29037,0.007 c -0.7097,0.004 -4.04094,0.0104 -7.40275,0.0144 l -6.1124,0.007 z"
     style="opacity:1;fill:#00ffff;fill-opacity:0.76751589;stroke-width:0.01170397" />
  <path
     id="path4752"
     d="m 414.74492,890.34034 c 0,-0.01 7.54956,-0.0254 12.28526,-0.0254 2.23243,0 2.52026,0.002 2.52026,0.0176 0,0.0156 -0.83033,0.0176 -7.40276,0.0176 -4.07152,0 -7.40276,-0.004 -7.40276,-0.01 z"
     style="opacity:1;fill:#00ffff;fill-opacity:0.76751589;stroke-width:0.01170397" />
</svg>
