<?xml version="1.0" encoding="UTF-8"?>
<svg viewBox="0 0 455.00018 256.01984" xmlns="http://www.w3.org/2000/svg" xmlns:xlink="http://www.w3.org/1999/xlink">
 <defs>
  <linearGradient id="d">
   <stop offset="0"/>
   <stop stop-opacity="0" offset="1"/>
  </linearGradient>
  <linearGradient id="c">
   <stop stop-color="#c83737" stop-opacity="0" offset="0"/>
   <stop stop-color="#c83737" stop-opacity=".25253" offset=".89655"/>
   <stop stop-color="#c83737" stop-opacity=".31313" offset="1"/>
  </linearGradient>
  <linearGradient id="a">
   <stop stop-color="#aeaeae" offset="0"/>
   <stop stop-color="#fff" offset="1"/>
  </linearGradient>
  <linearGradient id="b">
   <stop stop-color="#8b8b8b" offset="0"/>
   <stop stop-color="#cec5c5" offset="1"/>
  </linearGradient>
  <linearGradient id="cn" x1="345.07" x2="352.32" y1="418.26" y2="422.15" gradientTransform="matrix(.94055 0 0 .95305 -63.851 -86.39)" gradientUnits="userSpaceOnUse" xlink:href="#a"/>
  <linearGradient id="co" x1="343.12" x2="354.61" y1="409.96" y2="417.03" gradientTransform="matrix(.94055 0 0 .95305 -63.851 -86.39)" gradientUnits="userSpaceOnUse" xlink:href="#a"/>
  <linearGradient id="cp" x1="257.72" x2="270.78" gradientUnits="userSpaceOnUse" xlink:href="#b"/>
  <linearGradient id="cq" x1="263.78" x2="264.72" gradientUnits="userSpaceOnUse" xlink:href="#c"/>
  <linearGradient id="m" x1="260.18" x2="268.32" gradientUnits="userSpaceOnUse" xlink:href="#d"/>
  <linearGradient id="f" x1="210.89" x2="219.5" gradientUnits="userSpaceOnUse" xlink:href="#d"/>
  <linearGradient id="n" x1="214.7" x2="215.69" gradientUnits="userSpaceOnUse" xlink:href="#c"/>
  <linearGradient id="o" x1="208.29" x2="222.11" gradientUnits="userSpaceOnUse" xlink:href="#b"/>
  <linearGradient id="p" x1="209.5" x2="220.95" y1="292.93" y2="300.06" gradientUnits="userSpaceOnUse" xlink:href="#a"/>
  <linearGradient id="q" x1="211.44" x2="218.66" y1="301.31" y2="305.24" gradientUnits="userSpaceOnUse" xlink:href="#a"/>
  <linearGradient id="cm" x1="199.92" x2="207.14" y1="439.64" y2="443.56" gradientUnits="userSpaceOnUse" xlink:href="#a"/>
  <linearGradient id="cl" x1="197.98" x2="209.43" y1="431.25" y2="438.39" gradientUnits="userSpaceOnUse" xlink:href="#a"/>
  <linearGradient id="ck" x1="196.77" x2="210.59" gradientUnits="userSpaceOnUse" xlink:href="#b"/>
  <linearGradient id="cj" x1="203.18" x2="204.18" gradientUnits="userSpaceOnUse" xlink:href="#c"/>
  <linearGradient id="e" x1="337.7" x2="346.35" gradientUnits="userSpaceOnUse" xlink:href="#d"/>
  <linearGradient id="ci" x1="144.72" x2="151.94" y1="526.8" y2="530.73" gradientUnits="userSpaceOnUse" xlink:href="#a"/>
  <linearGradient id="ch" x1="142.79" x2="154.23" y1="518.42" y2="525.56" gradientUnits="userSpaceOnUse" xlink:href="#a"/>
  <linearGradient id="cg" x1="141.57" x2="155.39" gradientUnits="userSpaceOnUse" xlink:href="#b"/>
  <linearGradient id="cf" x1="147.98" x2="148.98" gradientUnits="userSpaceOnUse" xlink:href="#c"/>
  <linearGradient id="ce" x1="144.17" x2="152.79" gradientUnits="userSpaceOnUse" xlink:href="#d"/>
  <linearGradient id="cd" x1="117.61" x2="124.83" y1="246.91" y2="250.84" gradientUnits="userSpaceOnUse" xlink:href="#a"/>
  <linearGradient id="cc" x1="115.68" x2="127.12" y1="238.53" y2="245.66" gradientUnits="userSpaceOnUse" xlink:href="#a"/>
  <linearGradient id="cb" x1="114.46" x2="128.28" gradientUnits="userSpaceOnUse" xlink:href="#b"/>
  <linearGradient id="ca" x1="120.87" x2="121.87" gradientUnits="userSpaceOnUse" xlink:href="#c"/>
  <linearGradient id="l" x1="117.06" x2="125.68" gradientUnits="userSpaceOnUse" xlink:href="#d"/>
  <linearGradient id="bz" x1="167.15" x2="174.37" y1="254.29" y2="258.21" gradientUnits="userSpaceOnUse" xlink:href="#a"/>
  <linearGradient id="by" x1="165.22" x2="176.66" y1="245.91" y2="253.04" gradientUnits="userSpaceOnUse" xlink:href="#a"/>
  <linearGradient id="bx" x1="164" x2="177.82" gradientUnits="userSpaceOnUse" xlink:href="#b"/>
  <linearGradient id="bw" x1="170.41" x2="171.41" gradientUnits="userSpaceOnUse" xlink:href="#c"/>
  <linearGradient id="bv" x1="166.6" x2="175.22" gradientUnits="userSpaceOnUse" xlink:href="#d"/>
  <linearGradient id="bu" x1="89.073" x2="91.412" y1="253.85" y2="256.73" gradientUnits="userSpaceOnUse" xlink:href="#a"/>
  <linearGradient id="bt" x1="79.049" x2="87.871" y1="243.64" y2="249.22" gradientUnits="userSpaceOnUse" xlink:href="#a"/>
  <linearGradient id="bs" x1="69.559" x2="89.63" y1="243.66" y2="262.66" gradientUnits="userSpaceOnUse" xlink:href="#a"/>
  <linearGradient id="br" x1="80.118" x2="86.759" gradientUnits="userSpaceOnUse" xlink:href="#d"/>
  <linearGradient id="bq" x1="318.95" x2="326.16" y1="267.95" y2="271.87" gradientUnits="userSpaceOnUse" xlink:href="#a"/>
  <linearGradient id="bp" x1="317.01" x2="328.45" y1="259.56" y2="266.7" gradientUnits="userSpaceOnUse" xlink:href="#a"/>
  <linearGradient id="bo" x1="315.79" x2="329.61" gradientUnits="userSpaceOnUse" xlink:href="#b"/>
  <linearGradient id="bn" x1="322.2" x2="323.2" gradientUnits="userSpaceOnUse" xlink:href="#c"/>
  <linearGradient id="k" x1="318.4" x2="327.01" gradientUnits="userSpaceOnUse" xlink:href="#d"/>
  <linearGradient id="bm" x1="213.07" x2="220.29" y1="257.53" y2="261.46" gradientUnits="userSpaceOnUse" xlink:href="#a"/>
  <linearGradient id="bl" x1="211.13" x2="222.58" y1="249.15" y2="256.29" gradientUnits="userSpaceOnUse" xlink:href="#a"/>
  <linearGradient id="bk" x1="209.92" x2="223.74" gradientUnits="userSpaceOnUse" xlink:href="#b"/>
  <linearGradient id="bj" x1="216.33" x2="217.32" gradientUnits="userSpaceOnUse" xlink:href="#c"/>
  <linearGradient id="j" x1="212.52" x2="221.13" gradientUnits="userSpaceOnUse" xlink:href="#d"/>
  <linearGradient id="bi" x1="537.98" x2="556.16" y1="518.15" y2="528.04" gradientUnits="userSpaceOnUse" xlink:href="#a"/>
  <linearGradient id="bh" x1="343.12" x2="354.61" y1="409.96" y2="417.03" gradientTransform="matrix(2.8391 0 0 2.5423 -442.96 -545.22)" gradientUnits="userSpaceOnUse" xlink:href="#a"/>
  <linearGradient id="bg" x1="530.04" x2="564.85" gradientUnits="userSpaceOnUse" xlink:href="#b"/>
  <linearGradient id="bf" x1="546.19" x2="548.7" gradientUnits="userSpaceOnUse" xlink:href="#c"/>
  <linearGradient id="i" x1="536.59" x2="558.29" gradientUnits="userSpaceOnUse" xlink:href="#d"/>
  <linearGradient id="be" x1="296.86" x2="304.07" y1="386.13" y2="390.05" gradientUnits="userSpaceOnUse" xlink:href="#a"/>
  <linearGradient id="bd" x1="294.92" x2="306.36" y1="377.74" y2="384.88" gradientUnits="userSpaceOnUse" xlink:href="#a"/>
  <linearGradient id="bc" x1="293.7" x2="307.52" gradientUnits="userSpaceOnUse" xlink:href="#b"/>
  <linearGradient id="bb" x1="300.12" x2="301.11" gradientUnits="userSpaceOnUse" xlink:href="#c"/>
  <linearGradient id="ba" x1="409.98" x2="428.16" y1="518.15" y2="528.04" gradientUnits="userSpaceOnUse" xlink:href="#a"/>
  <linearGradient id="az" x1="343.12" x2="354.61" y1="409.96" y2="417.03" gradientTransform="matrix(2.8391 0 0 2.5423 -570.96 -545.22)" gradientUnits="userSpaceOnUse" xlink:href="#a"/>
  <linearGradient id="ay" x1="402.04" x2="436.85" gradientUnits="userSpaceOnUse" xlink:href="#b"/>
  <linearGradient id="ax" x1="418.19" x2="420.7" gradientUnits="userSpaceOnUse" xlink:href="#c"/>
  <linearGradient id="h" x1="408.59" x2="430.29" gradientUnits="userSpaceOnUse" xlink:href="#d"/>
  <linearGradient id="aw" x1="238.49" x2="245.71" y1="458.2" y2="462.13" gradientUnits="userSpaceOnUse" xlink:href="#a"/>
  <linearGradient id="av" x1="236.56" x2="248" y1="449.82" y2="456.95" gradientUnits="userSpaceOnUse" xlink:href="#a"/>
  <linearGradient id="au" x1="235.34" x2="249.16" gradientUnits="userSpaceOnUse" xlink:href="#b"/>
  <linearGradient id="at" x1="241.75" x2="242.75" gradientUnits="userSpaceOnUse" xlink:href="#c"/>
  <linearGradient id="as" x1="237.94" x2="246.56" gradientUnits="userSpaceOnUse" xlink:href="#d"/>
  <linearGradient id="ar" x1="345.07" x2="352.32" y1="418.26" y2="422.15" gradientTransform="matrix(.94055 0 0 .95305 -57.852 -131.91)" gradientUnits="userSpaceOnUse" xlink:href="#a"/>
  <linearGradient id="aq" x1="343.12" x2="354.61" y1="409.96" y2="417.03" gradientTransform="matrix(.94055 0 0 .95305 -57.852 -131.91)" gradientUnits="userSpaceOnUse" xlink:href="#a"/>
  <linearGradient id="ap" x1="263.72" x2="276.78" gradientUnits="userSpaceOnUse" xlink:href="#b"/>
  <linearGradient id="ao" x1="269.78" x2="270.72" gradientUnits="userSpaceOnUse" xlink:href="#c"/>
  <linearGradient id="g" x1="266.18" x2="274.32" gradientUnits="userSpaceOnUse" xlink:href="#d"/>
  <linearGradient id="an" x1="240.74" x2="247.96" y1="554.28" y2="558.21" gradientUnits="userSpaceOnUse" xlink:href="#a"/>
  <linearGradient id="am" x1="238.81" x2="250.25" y1="545.9" y2="553.03" gradientUnits="userSpaceOnUse" xlink:href="#a"/>
  <linearGradient id="al" x1="237.59" x2="251.41" gradientUnits="userSpaceOnUse" xlink:href="#b"/>
  <linearGradient id="ak" x1="244" x2="245" gradientUnits="userSpaceOnUse" xlink:href="#c"/>
  <linearGradient id="aj" x1="263.82" x2="271.04" y1="553.78" y2="557.71" gradientUnits="userSpaceOnUse" xlink:href="#a"/>
  <linearGradient id="ai" x1="260.67" x2="274.49" gradientUnits="userSpaceOnUse" xlink:href="#b"/>
  <linearGradient id="ah" x1="267.08" x2="268.08" gradientUnits="userSpaceOnUse" xlink:href="#c"/>
  <linearGradient id="ag" x1="354.48" x2="338.46" y1="410.66" y2="415.45" gradientTransform="matrix(-.99584 0 0 1.0091 615.16 131.72)" gradientUnits="userSpaceOnUse" xlink:href="#a"/>
  <linearGradient id="af" x1="272.07" x2="263.46" gradientUnits="userSpaceOnUse" xlink:href="#d"/>
  <linearGradient id="ae" x1="117.16" x2="124.38" y1="478.78" y2="482.71" gradientUnits="userSpaceOnUse" xlink:href="#a"/>
  <linearGradient id="ad" x1="115.22" x2="126.66" y1="470.4" y2="477.54" gradientUnits="userSpaceOnUse" xlink:href="#a"/>
  <linearGradient id="ac" x1="114" x2="127.83" gradientUnits="userSpaceOnUse" xlink:href="#b"/>
  <linearGradient id="ab" x1="120.42" x2="121.41" gradientUnits="userSpaceOnUse" xlink:href="#c"/>
  <linearGradient id="aa" x1="212.74" x2="219.96" y1="533.28" y2="537.21" gradientUnits="userSpaceOnUse" xlink:href="#a"/>
  <linearGradient id="z" x1="210.81" x2="222.25" y1="524.9" y2="532.03" gradientUnits="userSpaceOnUse" xlink:href="#a"/>
  <linearGradient id="y" x1="209.59" x2="223.41" gradientUnits="userSpaceOnUse" xlink:href="#b"/>
  <linearGradient id="x" x1="216" x2="217" gradientUnits="userSpaceOnUse" xlink:href="#c"/>
  <linearGradient id="w" x1="222.21" x2="235.29" y1="439.83" y2="453.27" gradientUnits="userSpaceOnUse" xlink:href="#a"/>
  <linearGradient id="v" x1="353.65" x2="366.73" y1="259.91" y2="273.35" gradientUnits="userSpaceOnUse" xlink:href="#a"/>
  <linearGradient id="u" x1="164.11" x2="166.49" y1="437.48" y2="440.36" gradientUnits="userSpaceOnUse" xlink:href="#a"/>
  <linearGradient id="t" x1="153.94" x2="162.89" y1="427.26" y2="432.85" gradientUnits="userSpaceOnUse" xlink:href="#a"/>
  <linearGradient id="s" x1="144.3" x2="164.68" y1="427.29" y2="446.29" gradientUnits="userSpaceOnUse" xlink:href="#a"/>
  <linearGradient id="r" x1="155.02" x2="161.76" gradientUnits="userSpaceOnUse" xlink:href="#d"/>
 </defs>
 <g transform="matrix(2.56 0 0 2.56 -279.95 -601.1)">
  <g transform="translate(0 1.4153)" stroke="#000">
   <path d="m210.78 300.17h8.8349v6.3955h-8.8349z" fill="url(#q)"/>
   <path d="m208.7 292.14h12.998v8.3966h-12.998z" fill="url(#p)"/>
   <path d="m211.91 287.89h6.5703v5.3751h-6.5703z" fill="#fff"/>
   <path d="m208.78 305.42h12.825v2.4717h-12.825z" fill="url(#o)"/>
   <path d="m215.2 307.75v-5.4725" fill="url(#n)" fill-rule="evenodd"/>
   <path d="m211.39 300.28v-5.2565" fill="url(#f)" fill-rule="evenodd"/>
   <path d="m219 300.28v-5.2565" fill="url(#f)" fill-rule="evenodd"/>
   <path transform="matrix(.91338,-.40712,.40712,.91338,0,0)" d="m69.07 345.01h1.625v22.5h-1.625z" fill="#f60"/>
  </g>
 </g>
 <g transform="matrix(2.56 0 0 2.56 -335.79 -624.51)" stroke="#000">
  <path d="m261.3 303.22h5.5488l9.4448 15.23h-14.994v-15.23z" fill="#f60" stroke-width=".998"/>
  <path d="m260.08 311.16h8.3444v6.0404h-8.3444z" fill="url(#cn)" stroke-width=".998"/>
  <path d="m258.11 303.58h12.276v7.9304h-12.276z" fill="url(#co)" stroke-width=".998"/>
  <path d="m261.1 300.68h6.3043v4.0067h-6.3043z" fill="#fff" stroke-width=".998"/>
  <path d="m258.19 316.12h12.113v2.3344h-12.113z" fill="url(#cp)" stroke-width=".998"/>
  <path d="m264.25 318.32v-5.1686" fill="url(#cq)" fill-rule="evenodd" stroke-width=".998"/>
  <path d="m260.65 311.26v-4.9646" fill="url(#m)" fill-rule="evenodd" stroke-width=".998"/>
  <path d="m267.85 311.26v-4.9646" fill="url(#m)" fill-rule="evenodd" stroke-width=".998"/>
  <path d="m265.19 294.45 2.4528 6.0525h-6.6328l4.18-6.0525z" fill="#f60" stroke-width=".998"/>
  <path d="m258.92 310.34-4.125-3.875" fill="none"/>
 </g>
 <g transform="matrix(2.56 0 0 2.56 -269.65 -1135)">
  <g transform="translate(-35.654 -68)" stroke="#000">
   <path d="m240.08 553.14h8.8349v6.3955h-8.8349z" fill="url(#an)"/>
   <path d="m238 545.11h12.998v8.3966h-12.998z" fill="url(#am)"/>
   <path d="m240.68 545.08h2.595v6.6609h-2.595z" fill="#4a0" stroke-width=".96824"/>
   <path d="m245.67 545.1h2.595v6.6609h-2.595z" fill="#4a0" stroke-width=".96824"/>
   <path d="m241.21 540.86h6.5703v5.3751h-6.5703z" fill="#fff"/>
   <path d="m238.09 558.39h12.825v2.4717h-12.825z" fill="url(#al)"/>
   <path d="m244.5 560.72v-5.4725" fill="url(#ak)" fill-rule="evenodd"/>
   <g transform="matrix(.99584 0 0 1.0091 -96.105 127.05)" fill="url(#e)" fill-rule="evenodd" stroke-width=".99756">
    <path d="m338.2 422.37v-5.2092"/>
    <path d="m345.85 422.37v-5.2092"/>
   </g>
  </g>
 </g>
 <g transform="matrix(2.56 0 0 2.56 -84.213 -1205.4)">
  <g transform="translate(-104.04 -65)" stroke="#000">
   <path d="m263.16 552.64h8.8349v6.3955h-8.8349z" fill="url(#aj)"/>
   <path d="m261.17 557.89h12.825v2.4717h-12.825z" fill="url(#ai)"/>
   <path d="m267.58 560.22v-5.4725" fill="url(#ah)" fill-rule="evenodd"/>
   <path d="m274.95 554.79 3.0048 1.5739 3.0048-1.7886 0.5008-4.0064-2.504-2.7186-0.21463-3.0048 1.2162-1.5024-4.0779-0.0715 1.3593 1.2878 0.21463 3.2909-2.504 1.717-1.2878 2.1463 1.2878 3.0763z" fill="#4a0" fill-rule="evenodd"/>
   <path d="m279.83 544.61v2.9688h-7.5625v5.4375h-11v-8.4062h18.562z" fill="url(#ag)"/>
   <path d="m264.21 544.64h2.595v6.6609h-2.595z" fill="#4a0" stroke-width=".96824"/>
   <path d="m263.96 552.75v-5.2565" fill="url(#af)" fill-rule="evenodd"/>
   <path d="m269.19 544.67h2.595v6.6609h-2.595z" fill="#4a0" stroke-width=".96824"/>
   <path d="m264.3 540.36h6.5703v5.3751h-6.5703z" fill="#fff"/>
  </g>
 </g>
 <g transform="matrix(2.56 0 0 2.56 -60.962 -1186.6)">
  <g transform="translate(10.786 2.6617)" stroke="#000">
   <path d="m116.5 477.64h8.8349v6.3955h-8.8349z" fill="url(#ae)"/>
   <path d="m114.42 469.61h12.998v8.3966h-12.998z" fill="url(#ad)"/>
   <path d="m117.63 465.36h6.5703v5.3751h-6.5703z" fill="#fff"/>
   <path d="m114.5 482.89h12.825v2.4717h-12.825z" fill="url(#ac)"/>
   <path d="m120.92 485.22v-5.4725" fill="url(#ab)" fill-rule="evenodd"/>
   <g transform="matrix(.99584 0 0 1.0091 -219.69 51.548)" fill="url(#e)" fill-rule="evenodd" stroke-width=".99756">
    <path d="m338.2 422.37v-5.2092"/>
    <path d="m345.85 422.37v-5.2092"/>
   </g>
   <path transform="matrix(.86603,-.5,.5,.86603,0,0)" d="m-138.89 459.41h1.9514v12.116h-1.9514z" fill="#4a0" stroke-width="1.25"/>
   <path d="m105.8 470.2 7.9199-2.7682 1.7163 2.9727-6.4441 5.3244-3.1921-5.5289z" fill="#4a0" stroke-width="1.25"/>
  </g>
 </g>
 <g transform="matrix(2.56 0 0 2.56 -84.806 -1319.3)">
  <g transform="translate(-14.722)" stroke="#000">
   <path d="m212.08 532.14h8.8349v6.3955h-8.8349z" fill="url(#aa)"/>
   <path d="m210 524.11h12.998v8.3966h-12.998z" fill="url(#z)"/>
   <path d="m213.21 519.86h6.5703v5.3751h-6.5703z" fill="#fff"/>
   <path d="m210.09 537.39h12.825v2.4717h-12.825z" fill="url(#y)"/>
   <path d="m216.5 539.72v-5.4725" fill="url(#x)" fill-rule="evenodd"/>
   <g transform="matrix(.99584 0 0 1.0091 -124.1 106.05)" fill="url(#e)" fill-rule="evenodd" stroke-width=".99756">
    <path d="m338.2 422.37v-5.2092"/>
    <path d="m345.85 422.37v-5.2092"/>
   </g>
   <g transform="translate(26.5,5)" fill="#4a0">
    <path transform="matrix(.92104,-.38948,.38948,.92104,0,0)" d="m-36.085 548.94h1.806v16.404h-1.806z" stroke-width=".94395"/>
    <path d="m177.04 519.11 0.64508 1.5255 0.10954 0.25904 7.2923-3.0837-0.75462-1.7845-2.1543-5.0945 0.3698 5.8491-0.97535 0.41245-2.1543-5.0945 0.3698 5.8491-0.96343 0.4074-2.1543-5.0945 0.3698 5.8491z"/>
   </g>
  </g>
 </g>
 <g transform="matrix(2.56 0 0 2.56 -442.52 -1020.9)">
  <g transform="translate(-6.1882 21.964)" stroke="#000">
   <path d="m309 418.59v6.4062h3.1875v-4.2812h2.625v4.2812h3.0312v-6.4062h-8.8438z" fill="#fff"/>
   <path d="m307.68 410.57h11.623v8.3966h-11.623v-8.3966z" fill="#fff"/>
   <path d="m307 423.84v2.4688h5.0625v-2.4688h-5.0625zm7.9062 0v2.4688h4.9375v-2.4688h-4.9375z" fill="#fff"/>
   <g transform="matrix(.99584 0 0 1.0091 -27.18 -7.495)" fill="url(#e)" fill-rule="evenodd" stroke-width=".99756">
    <path d="m338.2 422.37v-5.2092"/>
    <path d="m345.85 422.37v-5.2092"/>
   </g>
   <path d="m310.09 406.19v5.375h1.6562v1.3125h3.25v-1.3125h1.6562v-5.375h-6.5625z" fill="#fff"/>
   <path d="m309.5 414.86 3.25-0.75" fill="none"/>
   <path d="m309.62 416.74 3.25-0.75" fill="none"/>
   <path d="m317.19 414.67-3.25-0.75" fill="none"/>
   <path d="m317.06 416.55-3.25-0.75" fill="none"/>
   <path d="m311.43 407.67h1.1373v1.072h-1.1373z" stroke-width=".48773"/>
   <path d="m314.07 407.71h0.98314v1.0762h-0.98314z" stroke-width=".45436"/>
  </g>
 </g>
 <g transform="matrix(2.56 0 0 2.56 -218.86 -966.61)">
  <g transform="translate(22.163 -2.1974)" stroke="#000">
   <path d="m220.75 438.19v16.094h15.625v-11.312h-0.0312v-4.7812h-2.9375v4.7812h-2.125v-4.6875h-5.4688v4.6875h-2.125v-4.7812h-2.9375zm2.5938 6.75h2.6875v2.6875h-2.6875v-2.6875z" fill="url(#w)"/>
   <path d="m228.56 437.89v-6.364" fill="none"/>
   <g transform="translate(-29.257 21.158)" fill="#f60">
    <path d="m259.44 410.88h3.5489v3.2464h-3.5489v-3.2464z"/>
    <path d="m257.76 410.36h2.5409v3.248h-2.5409v-3.248z"/>
   </g>
   <path d="m225.47 449.59h3.0921v4.6881h-3.0921z" fill="#f60"/>
   <path d="m228.56 449.59h3.0921v4.6881h-3.0921z" fill="#f60"/>
  </g>
 </g>
 <g transform="matrix(2.56 0 0 2.56 -498.6 -575.65)" stroke="#000">
  <path d="m352.19 258.27v16.094h15.625v-11.312h-0.0312v-4.7812h-2.9375v4.7812h-2.125v-4.6875h-5.4688v4.6875h-2.125v-4.7812h-2.9375zm2.5938 6.75h2.6875v2.6875h-2.6875v-2.6875z" fill="url(#v)"/>
  <path d="m360 257.97v-6.364" fill="none"/>
  <path d="m361.62 252.12h3.5489v3.2464h-3.5489v-3.2464z" fill="#37abc8"/>
  <path d="m359.95 251.6h2.5409v3.248h-2.5409v-3.248z" fill="#37abc8"/>
  <path d="m356.9 269.67h3.0921v4.6881h-3.0921z" fill="#37abc8"/>
  <path d="m360 269.67h3.0921v4.6881h-3.0921z" fill="#37abc8"/>
 </g>
 <g transform="matrix(2.5214 0 0 2.56 -98.297 -897.49)">
  <g transform="translate(-9.9855 4.0221)" stroke="#000">
   <path d="m164.27 434.3 1.9866 3.3929v4.8109h-1.9866v-8.2037z" fill="url(#u)"/>
   <path d="m148.95 426.64v2.3238h5.9195v4.2562h8.6102v-6.58h-14.53z" fill="url(#t)"/>
   <path d="m147.18 446.06v-14.737h-5.296v-3.454l7.5987-0.92105 2.0724-2.3026v2.5329l1.2513 5.7359h11.643v13.146h-2.5329l-0.92105-5.9868h-10.592l-0.92105 5.9868h-2.3026z" fill="url(#s)" fill-rule="evenodd"/>
   <path d="m153.88 433.11h7.125v4.3125h-7.125z" fill="#f60"/>
   <path d="m155.82 423.32h5.1429v4.2073h-5.1429z" fill="#fff"/>
   <path d="m161.37 433.02v-4.1145" fill="url(#r)" fill-rule="evenodd"/>
  </g>
 </g>
 <g transform="matrix(2.56 0 0 2.56 -395.9 -956.71)">
  <g transform="translate(-6.4946 2.0009)" stroke="#000">
   <path d="m199.26 438.49h8.8349v6.3955h-8.8349z" fill="url(#cm)"/>
   <path d="m197.18 430.46h12.998v8.3966h-12.998z" fill="url(#cl)"/>
   <path d="m200.12 430.62v8.25h6.875v-8.25h-1.7812v3.1562h-3.4062v-3.1562h-1.6875z" fill="#803300"/>
   <path d="m200.39 426.22h6.5703v5.3751h-6.5703z" fill="#fff"/>
   <path d="m197.26 443.74h12.825v2.4717h-12.825z" fill="url(#ck)"/>
   <path d="m203.68 446.07v-5.4725" fill="url(#cj)" fill-rule="evenodd"/>
   <g transform="matrix(.99584 0 0 1.0091 -136.93 12.4)" fill="url(#e)" fill-rule="evenodd" stroke-width=".99756">
    <path d="m338.2 422.37v-5.2092"/>
    <path d="m345.85 422.37v-5.2092"/>
   </g>
   <path transform="rotate(23.083)" d="m362.04 315.75h6.5529v9.1779h-6.5529z" fill="#f60" stroke-width=".82211"/>
   <path d="m193.8 425.54 2.8562 10.817-1.0877 0.28723 0.60637 2.2963 1.0877-0.28722 0.27127 1.0273 2.0546-0.54253-0.27126-1.0273 1.0877-0.28722-0.60635-2.2963-1.0877 0.28722-2.8563-10.817-2.0546 0.54252z" fill="#f60"/>
   <path d="m199.75 424.44v3.4688h2.75v1.8438h2.2812v-1.8438h2.75v-3.4688h-7.7812z" fill="#f60"/>
  </g>
 </g>
 <g transform="matrix(2.56 0 0 2.56 -153.68 -1110.7)">
  <g transform="matrix(1 0 0 .99541 -11.413 2.4512)" stroke="#000">
   <path d="m144.06 525.66h8.8349v6.3955h-8.8349z" fill="url(#ci)"/>
   <path d="m154.23 510.34-6.0006 10.102" fill="none"/>
   <path d="m155.73 511.23-6.0006 10.102" fill="none"/>
   <path d="m157.24 512.13-6.0006 10.102" fill="none"/>
   <path transform="rotate(30.71)" d="m392.77 363.47h4.25v11h-4.25z" fill="#4a0"/>
   <path d="m136.42 517.63v2.9688h7.5625v5.4375h11v-8.4062h-18.562z" fill="url(#ch)"/>
   <path d="m138.98 510.65v17.324" fill="#f60" fill-opacity=".75" fill-rule="evenodd"/>
   <path d="m145.19 513.38h6.5703v5.3751h-6.5703z" fill="#fff"/>
   <path d="m142.07 530.91h12.825v2.4717h-12.825z" fill="url(#cg)"/>
   <path d="m148.48 533.24v-5.4725" fill="url(#cf)" fill-rule="evenodd"/>
   <path d="m152.29 525.77v-5.2565" fill="url(#ce)" fill-rule="evenodd"/>
   <path d="m138.06 509.27-3.75 4.7188-0.21875 0.28125v9.5h0.0625v1.0938l0.21875 0.28125 3.75 4.6875 1.5625-1.25-3.5312-4.4062v-8.8438h-0.0625v-0.375l3.5312-4.4375-1.5625-1.25z" fill="#4a0" fill-rule="evenodd"/>
   <path d="m142.37 513.92h9.6751l1.3314-4.6426-11.007 4.6426z" fill="#4a0" fill-rule="evenodd" stroke-width=".95364"/>
  </g>
 </g>
 <g transform="matrix(2.56 0 0 2.56 -201.82 -522.22)" stroke="#000">
  <path d="m116.95 245.77h8.8349v6.3955h-8.8349z" fill="url(#cd)"/>
  <path d="m114.87 237.74h12.998v8.3966h-12.998z" fill="url(#cc)"/>
  <path d="m117.82 237.9v8.25h6.875v-8.25h-1.7812v3.1562h-3.4062v-3.1562h-1.6875z" fill="#164450"/>
  <path d="m118.08 233.49h6.5703v5.3751h-6.5703z" fill="#fff"/>
  <path d="m114.96 251.02h12.825v2.4717h-12.825z" fill="url(#cb)"/>
  <path d="m121.37 253.35v-5.4725" fill="url(#ca)" fill-rule="evenodd"/>
  <path d="m117.56 245.88v-5.2565" fill="url(#l)" fill-rule="evenodd"/>
  <path d="m125.18 245.88v-5.2565" fill="url(#l)" fill-rule="evenodd"/>
  <path transform="rotate(23.083)" d="m210.76 170.73h6.5529v9.1779h-6.5529z" fill="#37abc8" stroke-width=".82211"/>
  <path d="m111.5 232.82 2.8562 10.817-1.0877 0.28723 0.60637 2.2963 1.0877-0.28722 0.27127 1.0273 2.0546-0.54253-0.27126-1.0273 1.0877-0.28722-0.60635-2.2963-1.0877 0.28722-2.8563-10.817-2.0546 0.54252z" fill="#37abc8"/>
  <path d="m117.44 231.71v3.4688h2.75v1.8438h2.2812v-1.8438h2.75v-3.4688h-7.7812z" fill="#37abc8"/>
 </g>
 <g transform="matrix(2.56 0 0 2.56 -398.32 -477.1)" stroke="#000">
  <path d="m166.49 253.15h8.8349v6.3955h-8.8349z" fill="url(#bz)"/>
  <path d="m176.66 237.82-6.0006 10.102" fill="none"/>
  <path d="m178.16 238.72-6.0006 10.102" fill="none"/>
  <path d="m179.67 239.61-6.0006 10.102" fill="none"/>
  <path transform="rotate(30.71)" d="m272.88 117.72h4.25v11h-4.25z" fill="#37abc8"/>
  <path d="m158.85 245.11v2.9688h7.5625v5.4375h11v-8.4062h-18.562z" fill="url(#by)"/>
  <path d="m161.41 239.14v17.324" fill="#f60" fill-opacity=".75" fill-rule="evenodd"/>
  <path d="m167.62 240.87h6.5703v5.3751h-6.5703z" fill="#fff"/>
  <path d="m164.5 258.4h12.825v2.4717h-12.825z" fill="url(#bx)"/>
  <path d="m170.91 260.72v-5.4725" fill="url(#bw)" fill-rule="evenodd"/>
  <path d="m174.72 253.26v-5.2565" fill="url(#bv)" fill-rule="evenodd"/>
  <path d="m160.49 237.76-3.75 4.7188-0.21875 0.28125v9.5h0.0625v1.0938l0.21875 0.28125 3.75 4.6875 1.5625-1.25-3.5312-4.4062v-8.8438h-0.0625v-0.375l3.5312-4.4375-1.5625-1.25z" fill="#37abc8" fill-rule="evenodd"/>
 </g>
 <g transform="matrix(2.56 0 0 2.56 -170.7 -545.1)" stroke="#000" stroke-width=".99244">
  <path d="m89.229 250.67 1.9567 3.3929v4.8109h-1.9567v-8.2037z" fill="url(#bu)"/>
  <path d="m74.138 243.02v2.3238h5.8304v4.2562h8.4805v-6.58h-14.311z" fill="url(#bt)"/>
  <path d="m72.394 262.43v-14.737h-5.2163v-3.454l7.4842-0.92105 2.0412-2.3026v2.5329l1.2324 5.7359h11.468v13.146h-2.4947l-0.90718-5.9868h-10.433l-0.90717 5.9868h-2.2679z" fill="url(#bs)" fill-rule="evenodd"/>
  <path d="m78.99 249.48h7.0177v4.3125h-7.0177z" fill="#37abc8"/>
  <path d="m80.906 239.69h5.0654v4.2073h-5.0654z" fill="#fff"/>
  <path d="m86.375 249.39v-4.1145" fill="url(#br)" fill-rule="evenodd"/>
 </g>
 <g transform="matrix(2.56 0 0 2.56 -637.26 -576.06)" stroke="#000">
  <path d="m318.28 266.81h8.8349v6.3955h-8.8349z" fill="url(#bq)"/>
  <path d="m316.2 258.77h12.998v8.3966h-12.998z" fill="url(#bp)"/>
  <path d="m319.42 254.53h6.5703v5.3751h-6.5703z" fill="#fff"/>
  <path d="m316.29 272.05h12.825v2.4717h-12.825z" fill="url(#bo)"/>
  <path d="m322.7 274.38v-5.4725" fill="url(#bn)" fill-rule="evenodd"/>
  <path d="m318.89 266.91v-5.2565" fill="url(#k)" fill-rule="evenodd"/>
  <path d="m326.51 266.91v-5.2565" fill="url(#k)" fill-rule="evenodd"/>
  <path transform="rotate(23.083)" d="m404.22 111.14h6.5529v9.1779h-6.5529z" fill="#37abc8" stroke-width=".82211"/>
  <path d="m312.07 254.11 3.3892 10.662-1.0721 0.34082 0.7195 2.2634 1.0721-0.3408 0.32188 1.0126 2.0251-0.64375-0.32188-1.0126 1.0721-0.34081-0.71949-2.2634-1.0721 0.3408-3.3892-10.662-2.0252 0.64376z" fill="#37abc8"/>
 </g>
 <g transform="matrix(2.56 0 0 2.56 -359.12 -613.41)" stroke="#000">
  <path d="m212.41 256.39h8.8349v6.3955h-8.8349z" fill="url(#bm)"/>
  <path d="m210.33 248.36h12.998v8.3966h-12.998z" fill="url(#bl)"/>
  <path d="m213.54 244.11h6.5703v5.3751h-6.5703z" fill="#fff"/>
  <path d="m210.41 261.64h12.825v2.4717h-12.825z" fill="url(#bk)"/>
  <path d="m216.83 263.97v-5.4725" fill="url(#bj)" fill-rule="evenodd"/>
  <path d="m213.02 256.5v-5.2565" fill="url(#j)" fill-rule="evenodd"/>
  <path d="m220.63 256.5v-5.2565" fill="url(#j)" fill-rule="evenodd"/>
  <path transform="matrix(.91338,-.40712,.40712,.91338,0,0)" d="m88.381 305.69h1.625v22.5h-1.625z" fill="#37abc8"/>
 </g>
 <g transform="translate(-433 -280)" stroke="#000" stroke-width="2.56">
  <path d="m536.31 515.27h22.255v16.113h-22.255z" fill="url(#bi)"/>
  <path d="m528.91 495.04h37.056v21.155h-37.056z" fill="url(#bh)"/>
  <path d="m538.49 495.45v20.786h17.318v-20.786h-4.4868v7.952h-8.5801v-7.952h-4.2507z" fill="#164450"/>
  <path d="m539.17 488.43h16.55v11.451h-16.55z" fill="#fff"/>
  <path d="m531.29 528.49h32.305v6.2272h-32.305z" fill="url(#bg)"/>
  <path d="m547.44 534.36v-13.788" fill="url(#bf)" fill-rule="evenodd"/>
  <path d="m537.85 515.55v-13.243" fill="url(#i)" fill-rule="evenodd"/>
  <path d="m557.04 515.55v-13.243" fill="url(#i)" fill-rule="evenodd"/>
  <path d="m561.97 518.52-32.427-10.499 6.9079-7.9886-13.232-4.5006-1.9137 9.8207-1.6492 5.0934-3.6799 8.2329 11.764 3.3755 0.15313-8.94 32.427 10.499 1.6492-5.0934z" fill="#37abc8"/>
  <path d="m543.61 481.88c3.9782 0.56582-1.4144 8.7344-4.5508 7.3812s-7.0107-13.778-7.0107-13.778 4.8583 5.4436 11.561 6.3971z" fill="#a5bec4" fill-rule="evenodd"/>
  <path d="m551.24 481.88c-3.9782 0.56582 1.4144 8.7344 4.5508 7.3812s7.0107-13.778 7.0107-13.778-4.8583 5.4436-11.561 6.3971z" fill="#a5bec4" fill-rule="evenodd"/>
  <path d="m537.55 490.6h19.6c-2.8078-9.3783-7.5877-12.799-9.9847-12.799-2.3205 0-7.5182 5.347-9.6157 12.799z" fill="#37abc8"/>
 </g>
 <g transform="matrix(2.56 0 0 2.56 -577.56 -880.55)">
  <g transform="translate(-1.231 25.76)" stroke="#000">
   <path d="m296.2 384.99h8.8349v6.3955h-8.8349z" fill="url(#be)"/>
   <path d="m294.12 376.96h12.998v8.3966h-12.998z" fill="url(#bd)"/>
   <path d="m297.33 372.71h6.5703v5.3751h-6.5703z" fill="#fff"/>
   <path d="m294.2 390.23h12.825v2.4717h-12.825z" fill="url(#bc)"/>
   <path d="m300.61 392.56v-5.4725" fill="url(#bb)" fill-rule="evenodd"/>
   <g transform="matrix(.99584 0 0 1.0091 -39.991 -41.108)" fill="url(#e)" fill-rule="evenodd" stroke-width=".99756">
    <path d="m338.2 422.37v-5.2092"/>
    <path d="m345.85 422.37v-5.2092"/>
   </g>
   <path transform="rotate(23.083)" d="m430.24 228.52h6.5529v9.1779h-6.5529z" fill="#f60" stroke-width=".82211"/>
   <path d="m289.98 372.3 3.3892 10.662-1.0721 0.34082 0.7195 2.2634 1.0721-0.3408 0.32188 1.0126 2.0251-0.64375-0.32188-1.0126 1.0721-0.34081-0.71949-2.2634-1.0721 0.3408-3.3892-10.662-2.0252 0.64376z" fill="#f60"/>
  </g>
 </g>
 <g transform="translate(-305 -472)" stroke="#000" stroke-width="2.56">
  <path d="m408.31 515.27h22.255v16.113h-22.255z" fill="url(#ba)"/>
  <path d="m400.91 495.04h37.056v21.155h-37.056z" fill="url(#az)"/>
  <path d="m410.49 495.45v20.786h17.318v-20.786h-4.4868v7.952h-8.5801v-7.952h-4.2507z" fill="#803300"/>
  <path d="m411.17 488.43h16.55v11.451h-16.55z" fill="#fff"/>
  <path d="m403.29 528.49h32.305v6.2272h-32.305z" fill="url(#ay)"/>
  <path d="m419.44 534.36v-13.788" fill="url(#ax)" fill-rule="evenodd"/>
  <path d="m409.85 515.55v-13.243" fill="url(#h)" fill-rule="evenodd"/>
  <path d="m429.04 515.55v-13.243" fill="url(#h)" fill-rule="evenodd"/>
  <path d="m433.97 518.52-32.427-10.499 6.9079-7.9886-13.232-4.5006-1.9137 9.8207-1.6492 5.0934-3.6799 8.2329 11.764 3.3755 0.15313-8.94 32.427 10.499 1.6492-5.0934z" fill="#f60"/>
  <path d="m415.61 481.88c3.9782 0.56582-1.4144 8.7344-4.5508 7.3812s-7.0107-13.778-7.0107-13.778 4.8583 5.4436 11.561 6.3971z" fill="#ffcdab" fill-rule="evenodd"/>
  <path d="m423.24 481.88c-3.9782 0.56582 1.4144 8.7344 4.5508 7.3812s7.0107-13.778 7.0107-13.778-4.8583 5.4436-11.561 6.3971z" fill="#ffcdab" fill-rule="evenodd"/>
  <path d="m409.55 490.6h19.6c-2.8078-9.3783-7.5877-12.799-9.9847-12.799-2.3205 0-7.5182 5.347-9.6157 12.799z" fill="#f60"/>
 </g>
 <g transform="matrix(2.56 0 0 2.56 -563.98 -1127.1)">
  <g transform="translate(-6.6285)" stroke="#000">
   <path d="m237.83 457.06h8.8349v6.3955h-8.8349z" fill="url(#aw)"/>
   <g transform="matrix(.85977 .51069 -.51069 .85977 258.46 -38.404)">
    <path d="m236.21 418.15v11.75" fill="none"/>
    <path d="m237.96 418.15v11.75" fill="none"/>
    <path d="m239.71 418.15v11.75" fill="none"/>
    <path d="m235.75 421.61h4.25v11h-4.25z" fill="#f60"/>
   </g>
   <path d="m230.19 449.03v2.9688h7.5625v5.4375h11v-8.4062h-18.562z" fill="url(#av)"/>
   <path d="m232.75 443.06v17.324" fill="#f60" fill-opacity=".75" fill-rule="evenodd"/>
   <path d="m238.96 444.78h6.5703v5.3751h-6.5703z" fill="#fff"/>
   <path d="m235.84 462.31h12.825v2.4717h-12.825z" fill="url(#au)"/>
   <path d="m242.25 464.64v-5.4725" fill="url(#at)" fill-rule="evenodd"/>
   <path d="m246.06 457.17v-5.2565" fill="url(#as)" fill-rule="evenodd"/>
   <path d="m231.83 441.67-3.75 4.7188-0.21875 0.28125v9.5h0.0625v1.0938l0.21875 0.28125 3.75 4.6875 1.5625-1.25-3.5312-4.4062v-8.8438h-0.0625v-0.375l3.5312-4.4375-1.5625-1.25z" fill="#f60" fill-rule="evenodd"/>
  </g>
 </g>
 <g transform="matrix(2.56 0 0 2.56 -663.15 -443.98)" stroke="#000">
  <path d="m267.3 257.7h5.5488l9.4448 15.23h-14.994v-15.23z" fill="#37abc8" stroke-width=".998"/>
  <path d="m266.08 265.64h8.3444v6.0404h-8.3444z" fill="url(#ar)" stroke-width=".998"/>
  <path d="m264.11 258.05h12.276v7.9304h-12.276z" fill="url(#aq)" stroke-width=".998"/>
  <path d="m267.1 255.16h6.3043v4.0067h-6.3043z" fill="#fff" stroke-width=".998"/>
  <path d="m264.19 270.6h12.113v2.3344h-12.113z" fill="url(#ap)" stroke-width=".998"/>
  <path d="m270.25 272.8v-5.1686" fill="url(#ao)" fill-rule="evenodd" stroke-width=".998"/>
  <path d="m266.65 265.74v-4.9646" fill="url(#g)" fill-rule="evenodd" stroke-width=".998"/>
  <path d="m273.85 265.74v-4.9646" fill="url(#g)" fill-rule="evenodd" stroke-width=".998"/>
  <path d="m271.19 248.93 2.4528 6.0525h-6.6328l4.18-6.0525z" fill="#37abc8" stroke-width=".998"/>
  <path d="m264.92 264.82-4.125-3.875" fill="none"/>
 </g>
</svg>
