<?xml version="1.0" encoding="UTF-8" standalone="no"?>
<svg
   xmlns:ooo="http://xml.openoffice.org/svg/export"
   xmlns:dc="http://purl.org/dc/elements/1.1/"
   xmlns:cc="http://creativecommons.org/ns#"
   xmlns:rdf="http://www.w3.org/1999/02/22-rdf-syntax-ns#"
   xmlns:svg="http://www.w3.org/2000/svg"
   xmlns="http://www.w3.org/2000/svg"
   version="1.2"
   viewBox="0 0 430 430"
   fill-rule="evenodd"
   stroke-width="28.222"
   stroke-linejoin="round"
   xml:space="preserve"
   id="svg159"><metadata
     id="metadata163"><rdf:RDF><cc:Work
         rdf:about=""><dc:format>image/svg+xml</dc:format><dc:type
           rdf:resource="http://purl.org/dc/dcmitype/StillImage" /><dc:title></dc:title></cc:Work></rdf:RDF></metadata><defs
     class="ClipPathGroup"
     id="defs8"><clipPath
       id="presentation_clip_path"
       clipPathUnits="userSpaceOnUse"><rect
         x="0"
         y="0"
         width="244141"
         height="244141"
         id="rect2" /></clipPath><clipPath
       id="presentation_clip_path_shrink"
       clipPathUnits="userSpaceOnUse"><rect
         x="244"
         y="244"
         width="243653"
         height="243653"
         id="rect5" /></clipPath></defs><defs
     class="TextShapeIndex"
     id="defs12"><g
       ooo:slide="id1"
       ooo:id-list="id3 id4 id5 id6 id7 id8 id9 id10 id11 id12 id13 id14"
       id="g10" /></defs><defs
     class="EmbeddedBulletChars"
     id="defs44"><g
       id="bullet-char-template(57356)"
       transform="scale(0.00048828125,-0.00048828125)"><path
         d="M 580,1141 L 1163,571 580,0 -4,571 580,1141 Z"
         id="path14" /></g><g
       id="bullet-char-template(57354)"
       transform="scale(0.00048828125,-0.00048828125)"><path
         d="M 8,1128 L 1137,1128 1137,0 8,0 8,1128 Z"
         id="path17" /></g><g
       id="bullet-char-template(10146)"
       transform="scale(0.00048828125,-0.00048828125)"><path
         d="M 174,0 L 602,739 174,1481 1456,739 174,0 Z M 1358,739 L 309,1346 659,739 1358,739 Z"
         id="path20" /></g><g
       id="bullet-char-template(10132)"
       transform="scale(0.00048828125,-0.00048828125)"><path
         d="M 2015,739 L 1276,0 717,0 1260,543 174,543 174,936 1260,936 717,1481 1274,1481 2015,739 Z"
         id="path23" /></g><g
       id="bullet-char-template(10007)"
       transform="scale(0.00048828125,-0.00048828125)"><path
         d="M 0,-2 C -7,14 -16,27 -25,37 L 356,567 C 262,823 215,952 215,954 215,979 228,992 255,992 264,992 276,990 289,987 310,991 331,999 354,1012 L 381,999 492,748 772,1049 836,1024 860,1049 C 881,1039 901,1025 922,1006 886,937 835,863 770,784 769,783 710,716 594,584 L 774,223 C 774,196 753,168 711,139 L 727,119 C 717,90 699,76 672,76 641,76 570,178 457,381 L 164,-76 C 142,-110 111,-127 72,-127 30,-127 9,-110 8,-76 1,-67 -2,-52 -2,-32 -2,-23 -1,-13 0,-2 Z"
         id="path26" /></g><g
       id="bullet-char-template(10004)"
       transform="scale(0.00048828125,-0.00048828125)"><path
         d="M 285,-33 C 182,-33 111,30 74,156 52,228 41,333 41,471 41,549 55,616 82,672 116,743 169,778 240,778 293,778 328,747 346,684 L 369,508 C 377,444 397,411 428,410 L 1163,1116 C 1174,1127 1196,1133 1229,1133 1271,1133 1292,1118 1292,1087 L 1292,965 C 1292,929 1282,901 1262,881 L 442,47 C 390,-6 338,-33 285,-33 Z"
         id="path29" /></g><g
       id="bullet-char-template(9679)"
       transform="scale(0.00048828125,-0.00048828125)"><path
         d="M 813,0 C 632,0 489,54 383,161 276,268 223,411 223,592 223,773 276,916 383,1023 489,1130 632,1184 813,1184 992,1184 1136,1130 1245,1023 1353,916 1407,772 1407,592 1407,412 1353,268 1245,161 1136,54 992,0 813,0 Z"
         id="path32" /></g><g
       id="bullet-char-template(8226)"
       transform="scale(0.00048828125,-0.00048828125)"><path
         d="M 346,457 C 273,457 209,483 155,535 101,586 74,649 74,723 74,796 101,859 155,911 209,963 273,989 346,989 419,989 480,963 531,910 582,859 608,796 608,723 608,648 583,586 532,535 482,483 420,457 346,457 Z"
         id="path35" /></g><g
       id="bullet-char-template(8211)"
       transform="scale(0.00048828125,-0.00048828125)"><path
         d="M -4,459 L 1135,459 1135,606 -4,606 -4,459 Z"
         id="path38" /></g><g
       id="bullet-char-template(61548)"
       transform="scale(0.00048828125,-0.00048828125)"><path
         d="M 173,740 C 173,903 231,1043 346,1159 462,1274 601,1332 765,1332 928,1332 1067,1274 1183,1159 1299,1043 1357,903 1357,740 1357,577 1299,437 1183,322 1067,206 928,148 765,148 601,148 462,206 346,322 231,437 173,577 173,740 Z"
         id="path41" /></g></defs><defs
     class="TextEmbeddedBitmaps"
     id="defs46" /><g
     transform="matrix(0.0021779,0,0,0.00162988,-55.144885,0.78046692)"
     id="g51"><g
       id="id2"
       class="Master_Slide"><g
         id="bg-id2"
         class="Background" /><g
         id="bo-id2"
         class="BackgroundObjects" /></g></g><g
     transform="matrix(0.0021779,0,0,0.00162988,-55.144885,0.78046692)"
     class="SlideGroup"
     id="g157"><g
       id="g155"><g
         id="container-id1"><g
           id="id1"
           class="Slide"
           clip-path="url(#presentation_clip_path)"><g
             class="Page"
             id="g151"><g
               class="com.sun.star.drawing.PolyPolygonShape"
               id="g60"><g
                 id="id3"><rect
                   style="fill:none;stroke:none"
                   class="BoundingBox"
                   x="71788"
                   y="151061"
                   width="103787"
                   height="77714"
                   id="rect53" /><path
                   style="fill:#b2b2b2;fill-opacity:0.89800002;stroke:#ffffff;stroke-opacity:0.89800002"
                   d="m 71863,151136 v 77564 h 37347 v -51846 h 30766 v 51846 h 35524 v -77564 z"
                   id="path55" /><path
                   style="fill:none;stroke:#000000;stroke-width:148;stroke-linejoin:miter"
                   d="m 71863,151136 v 77564 h 37347 v -51846 h 30766 v 51846 h 35524 v -77564 z"
                   id="path57" /></g></g><g
               class="com.sun.star.drawing.PolyPolygonShape"
               id="g69"><g
                 id="id4"><rect
                   style="fill:none;stroke:none"
                   class="BoundingBox"
                   x="57326"
                   y="54626"
                   width="136377"
                   height="101794"
                   id="rect62" /><path
                   style="fill:#b2b2b2;fill-opacity:0.87099998;stroke:#ffffff;stroke-opacity:0.87099998"
                   d="M 57400,54700 H 193627 V 156344 H 57400 Z"
                   id="path64" /><path
                   style="fill:none;stroke:#000000;stroke-width:148;stroke-linejoin:miter"
                   d="M 57400,54700 H 193627 V 156344 H 57400 Z"
                   id="path66" /></g></g><g
               class="com.sun.star.drawing.PolyPolygonShape"
               id="g80"><g
                 id="id5"><rect
                   style="fill:none;stroke:none"
                   class="BoundingBox"
                   x="49426"
                   y="214089"
                   width="150649"
                   height="30127"
                   id="rect71" /><path
                   style="fill:#b2b2b2;fill-opacity:0.85900005;stroke:#ffffff;stroke-opacity:0.85900005"
                   d="m 49500,214164 v 29977 h 59312 v -29977 z m 92615,0 v 29977 h 57885 v -29977 z"
                   id="path73" /><path
                   style="fill:none;stroke:#000000;stroke-width:148;stroke-linejoin:miter"
                   d="m 49500,214164 v 29977 h 59312 v -29977 z"
                   id="path75" /><path
                   style="fill:none;stroke:#000000;stroke-width:148;stroke-linejoin:miter"
                   d="m 142115,214164 v 29977 h 57885 v -29977 z"
                   id="path77" /></g></g><g
               class="com.sun.star.drawing.LineShape"
               id="g87"><g
                 id="id6"><rect
                   style="fill:none;stroke:none"
                   class="BoundingBox"
                   x="80033"
                   y="88603"
                   width="149"
                   height="63560"
                   id="rect82" /><path
                   style="fill:none;stroke:#000000;stroke-width:147;stroke-linejoin:miter"
                   d="M 80107,152162 V 88604"
                   id="path84" /></g></g><g
               class="com.sun.star.drawing.LineShape"
               id="g94"><g
                 id="id7"><rect
                   style="fill:none;stroke:none"
                   class="BoundingBox"
                   x="169239"
                   y="88603"
                   width="149"
                   height="63560"
                   id="rect89" /><path
                   style="fill:none;stroke:#000000;stroke-width:147;stroke-linejoin:miter"
                   d="M 169313,152162 V 88604"
                   id="path91" /></g></g><g
               class="com.sun.star.drawing.PolyPolygonShape"
               id="g103"><g
                 id="id8"><rect
                   style="fill:none;stroke:none"
                   class="BoundingBox"
                   x="85584"
                   y="564"
                   width="77065"
                   height="81153"
                   id="rect96" /><path
                   style="fill:#b2b2b2;fill-opacity:0.85100002;stroke:#ffffff;stroke-opacity:0.85100002"
                   d="m 85658,638 v 65114 h 19427 v 15890 h 38061 V 65752 h 19427 V 638 Z"
                   id="path98" /><path
                   style="fill:none;stroke:#000000;stroke-width:148;stroke-linejoin:miter"
                   d="m 85658,638 v 65114 h 19427 v 15890 h 38061 V 65752 h 19427 V 638 Z"
                   id="path100" /></g></g><g
               class="com.sun.star.drawing.LineShape"
               id="g110"><g
                 id="id9"><rect
                   style="fill:none;stroke:none"
                   class="BoundingBox"
                   x="78742"
                   y="96394"
                   width="38177"
                   height="9319"
                   id="rect105" /><path
                   style="fill:none;stroke:#000000;stroke-width:148;stroke-linejoin:miter"
                   d="m 78759,105640 38141,-9173"
                   id="path107" /></g></g><g
               class="com.sun.star.drawing.LineShape"
               id="g117"><g
                 id="id10"><rect
                   style="fill:none;stroke:none"
                   class="BoundingBox"
                   x="80169"
                   y="119082"
                   width="38177"
                   height="9319"
                   id="rect112" /><path
                   style="fill:none;stroke:#000000;stroke-width:148;stroke-linejoin:miter"
                   d="m 80187,128328 38140,-9174"
                   id="path114" /></g></g><g
               class="com.sun.star.drawing.LineShape"
               id="g124"><g
                 id="id11"><rect
                   style="fill:none;stroke:none"
                   class="BoundingBox"
                   x="130759"
                   y="94101"
                   width="38177"
                   height="9319"
                   id="rect119" /><path
                   style="fill:none;stroke:#000000;stroke-width:148;stroke-linejoin:miter"
                   d="M 168917,103347 130776,94173"
                   id="path121" /></g></g><g
               class="com.sun.star.drawing.LineShape"
               id="g131"><g
                 id="id12"><rect
                   style="fill:none;stroke:none"
                   class="BoundingBox"
                   x="129173"
                   y="116788"
                   width="38177"
                   height="9320"
                   id="rect126" /><path
                   style="fill:none;stroke:#000000;stroke-width:148;stroke-linejoin:miter"
                   d="m 167331,126034 -38141,-9173"
                   id="path128" /></g></g><g
               class="com.sun.star.drawing.PolyPolygonShape"
               id="g140"><g
                 id="id13"><rect
                   style="fill:none;stroke:none"
                   class="BoundingBox"
                   x="101322"
                   y="18539"
                   width="13474"
                   height="13097"
                   id="rect133" /><path
                   style="fill:#000000;stroke:none"
                   d="m 101358,18575 h 13401 v 13023 h -13401 z"
                   id="path135" /><path
                   style="fill:none;stroke:#000000;stroke-width:72;stroke-linejoin:miter"
                   d="m 101358,18575 h 13401 v 13023 h -13401 z"
                   id="path137" /></g></g><g
               class="com.sun.star.drawing.PolyPolygonShape"
               id="g149"><g
                 id="id14"><rect
                   style="fill:none;stroke:none"
                   class="BoundingBox"
                   x="132249"
                   y="18951"
                   width="11646"
                   height="13173"
                   id="rect142" /><path
                   style="fill:#000000;stroke:none"
                   d="m 132283,18985 h 11577 v 13104 h -11577 z"
                   id="path144" /><path
                   style="fill:none;stroke:#000000;stroke-width:67;stroke-linejoin:miter"
                   d="m 132283,18985 h 11577 v 13104 h -11577 z"
                   id="path146" /></g></g></g></g></g></g></g></svg>