<?xml version="1.0" encoding="UTF-8" standalone="no"?>
<svg
   xmlns:ooo="http://xml.openoffice.org/svg/export"
   xmlns:dc="http://purl.org/dc/elements/1.1/"
   xmlns:cc="http://creativecommons.org/ns#"
   xmlns:rdf="http://www.w3.org/1999/02/22-rdf-syntax-ns#"
   xmlns:svg="http://www.w3.org/2000/svg"
   xmlns="http://www.w3.org/2000/svg"
   id="svg165"
   xml:space="preserve"
   stroke-linejoin="round"
   stroke-width="28.222"
   fill-rule="evenodd"
   viewBox="0 0 430 430"
   version="1.2"><metadata
     id="metadata169"><rdf:RDF><cc:Work
         rdf:about=""><dc:format>image/svg+xml</dc:format><dc:type
           rdf:resource="http://purl.org/dc/dcmitype/StillImage" /><dc:title></dc:title></cc:Work></rdf:RDF></metadata><defs
     id="defs8"
     class="ClipPathGroup"><clipPath
       clipPathUnits="userSpaceOnUse"
       id="presentation_clip_path"><rect
         id="rect2"
         height="195313"
         width="195313"
         y="0"
         x="0" /></clipPath><clipPath
       clipPathUnits="userSpaceOnUse"
       id="presentation_clip_path_shrink"><rect
         id="rect5"
         height="194923"
         width="194923"
         y="195"
         x="195" /></clipPath></defs><defs
     id="defs12"
     class="TextShapeIndex"><g
       id="g10"
       ooo:id-list="id3 id4 id5 id6 id7 id8 id9 id10"
       ooo:slide="id1" /></defs><defs
     id="defs44"
     class="EmbeddedBulletChars"><g
       transform="scale(0.00048828125,-0.00048828125)"
       id="bullet-char-template(57356)"><path
         id="path14"
         d="M 580,1141 L 1163,571 580,0 -4,571 580,1141 Z" /></g><g
       transform="scale(0.00048828125,-0.00048828125)"
       id="bullet-char-template(57354)"><path
         id="path17"
         d="M 8,1128 L 1137,1128 1137,0 8,0 8,1128 Z" /></g><g
       transform="scale(0.00048828125,-0.00048828125)"
       id="bullet-char-template(10146)"><path
         id="path20"
         d="M 174,0 L 602,739 174,1481 1456,739 174,0 Z M 1358,739 L 309,1346 659,739 1358,739 Z" /></g><g
       transform="scale(0.00048828125,-0.00048828125)"
       id="bullet-char-template(10132)"><path
         id="path23"
         d="M 2015,739 L 1276,0 717,0 1260,543 174,543 174,936 1260,936 717,1481 1274,1481 2015,739 Z" /></g><g
       transform="scale(0.00048828125,-0.00048828125)"
       id="bullet-char-template(10007)"><path
         id="path26"
         d="M 0,-2 C -7,14 -16,27 -25,37 L 356,567 C 262,823 215,952 215,954 215,979 228,992 255,992 264,992 276,990 289,987 310,991 331,999 354,1012 L 381,999 492,748 772,1049 836,1024 860,1049 C 881,1039 901,1025 922,1006 886,937 835,863 770,784 769,783 710,716 594,584 L 774,223 C 774,196 753,168 711,139 L 727,119 C 717,90 699,76 672,76 641,76 570,178 457,381 L 164,-76 C 142,-110 111,-127 72,-127 30,-127 9,-110 8,-76 1,-67 -2,-52 -2,-32 -2,-23 -1,-13 0,-2 Z" /></g><g
       transform="scale(0.00048828125,-0.00048828125)"
       id="bullet-char-template(10004)"><path
         id="path29"
         d="M 285,-33 C 182,-33 111,30 74,156 52,228 41,333 41,471 41,549 55,616 82,672 116,743 169,778 240,778 293,778 328,747 346,684 L 369,508 C 377,444 397,411 428,410 L 1163,1116 C 1174,1127 1196,1133 1229,1133 1271,1133 1292,1118 1292,1087 L 1292,965 C 1292,929 1282,901 1262,881 L 442,47 C 390,-6 338,-33 285,-33 Z" /></g><g
       transform="scale(0.00048828125,-0.00048828125)"
       id="bullet-char-template(9679)"><path
         id="path32"
         d="M 813,0 C 632,0 489,54 383,161 276,268 223,411 223,592 223,773 276,916 383,1023 489,1130 632,1184 813,1184 992,1184 1136,1130 1245,1023 1353,916 1407,772 1407,592 1407,412 1353,268 1245,161 1136,54 992,0 813,0 Z" /></g><g
       transform="scale(0.00048828125,-0.00048828125)"
       id="bullet-char-template(8226)"><path
         id="path35"
         d="M 346,457 C 273,457 209,483 155,535 101,586 74,649 74,723 74,796 101,859 155,911 209,963 273,989 346,989 419,989 480,963 531,910 582,859 608,796 608,723 608,648 583,586 532,535 482,483 420,457 346,457 Z" /></g><g
       transform="scale(0.00048828125,-0.00048828125)"
       id="bullet-char-template(8211)"><path
         id="path38"
         d="M -4,459 L 1135,459 1135,606 -4,606 -4,459 Z" /></g><g
       transform="scale(0.00048828125,-0.00048828125)"
       id="bullet-char-template(61548)"><path
         id="path41"
         d="M 173,740 C 173,903 231,1043 346,1159 462,1274 601,1332 765,1332 928,1332 1067,1274 1183,1159 1299,1043 1357,903 1357,740 1357,577 1299,437 1183,322 1067,206 928,148 765,148 601,148 462,206 346,322 231,437 173,577 173,740 Z" /></g></defs><defs
     id="defs46"
     class="TextEmbeddedBitmaps" /><g
     id="g51"
     transform="matrix(0.00262025,0,0,0.00220522,-24.295608,-2.5329142)"><g
       class="Master_Slide"
       id="id2"><g
         class="Background"
         id="bg-id2" /><g
         class="BackgroundObjects"
         id="bo-id2" /></g></g><g
     transform="matrix(-0.0026209,0,0,0.00203598,414.20858,1.9466383)"
     id="g163"
     class="SlideGroup"><g
       id="g161"><g
         id="container-id1"><g
           clip-path="url(#presentation_clip_path)"
           class="Slide"
           id="id1"><g
             id="g157"
             class="Page"><g
               id="g69"
               class="com.sun.star.drawing.PolyPolygonShape"><g
                 id="id3"><rect
                   style="fill:none;stroke:none"
                   id="rect53"
                   height="58071"
                   width="70041"
                   y="125378"
                   x="66652"
                   class="BoundingBox" /><g
                   id="g64"><defs
                     id="defs60"><linearGradient
                       gradientUnits="userSpaceOnUse"
                       y2="183374"
                       x2="101672"
                       y1="125452"
                       x1="101672"
                       id="gradient1"><stop
                         id="stop55"
                         style="stop-color:rgb(174,174,174)"
                         offset="0" /><stop
                         id="stop57"
                         style="stop-color:rgb(255,255,255)"
                         offset="1" /></linearGradient></defs><path
                     id="path62"
                     d="m 66727,125452 h 69890 v 57922 H 66727 Z"
                     style="fill:url(#gradient1)" /></g><path
                   style="fill:none;stroke:#000000;stroke-width:148;stroke-linejoin:miter"
                   id="path66"
                   d="m 66727,125452 h 69890 v 57922 H 66727 Z" /></g></g><g
               id="g87"
               class="com.sun.star.drawing.PolyPolygonShape"><g
                 id="id4"><rect
                   style="fill:none;stroke:none"
                   id="rect71"
                   height="76134"
                   width="102952"
                   y="52761"
                   x="50223"
                   class="BoundingBox" /><g
                   id="g82"><defs
                     id="defs78"><linearGradient
                       gradientUnits="userSpaceOnUse"
                       y2="128820"
                       x2="101699"
                       y1="52836"
                       x1="101699"
                       id="gradient2"><stop
                         id="stop73"
                         style="stop-color:rgb(174,174,174)"
                         offset="0" /><stop
                         id="stop75"
                         style="stop-color:rgb(255,255,255)"
                         offset="1" /></linearGradient></defs><path
                     id="path80"
                     d="m 50298,52836 h 102802 v 75984 H 50298 Z"
                     style="fill:url(#gradient2)" /></g><path
                   style="fill:none;stroke:#000000;stroke-width:148;stroke-linejoin:miter"
                   id="path84"
                   d="m 50298,52836 h 102802 v 75984 H 50298 Z" /></g></g><g
               id="g96"
               class="com.sun.star.drawing.PolyPolygonShape"><g
                 id="id5"><rect
                   style="fill:none;stroke:none"
                   id="rect89"
                   height="48827"
                   width="52113"
                   y="14310"
                   x="75589"
                   class="BoundingBox" /><path
                   style="fill:#ffffff;stroke:none"
                   id="path91"
                   d="m 75664,14385 h 51963 V 63061 H 75664 Z" /><path
                   style="fill:none;stroke:#000000;stroke-width:148;stroke-linejoin:miter"
                   id="path93"
                   d="m 75664,14385 h 51963 V 63061 H 75664 Z" /></g></g><g
               id="g114"
               class="com.sun.star.drawing.PolyPolygonShape"><g
                 id="id6"><rect
                   style="fill:none;stroke:none"
                   id="rect98"
                   height="22559"
                   width="101561"
                   y="172829"
                   x="50812"
                   class="BoundingBox" /><g
                   id="g109"><defs
                     id="defs105"><linearGradient
                       gradientUnits="userSpaceOnUse"
                       y2="195313"
                       x2="101592"
                       y1="172904"
                       x1="101592"
                       id="gradient3"><stop
                         id="stop100"
                         style="stop-color:rgb(139,139,139)"
                         offset="0" /><stop
                         id="stop102"
                         style="stop-color:rgb(206,197,197)"
                         offset="1" /></linearGradient></defs><path
                     id="path107"
                     d="m 50887,172904 h 101410 v 22409 H 50887 Z"
                     style="fill:url(#gradient3)" /></g><path
                   style="fill:none;stroke:#000000;stroke-width:148;stroke-linejoin:miter"
                   id="path111"
                   d="m 50887,172904 h 101410 v 22409 H 50887 Z" /></g></g><g
               id="g121"
               class="com.sun.star.drawing.LineShape"><g
                 id="id7"><rect
                   style="fill:none;stroke:none"
                   id="rect116"
                   height="49474"
                   width="150"
                   y="144493"
                   x="101598"
                   class="BoundingBox" /><path
                   style="fill:none;stroke:#000000;stroke-width:148;stroke-linejoin:miter"
                   id="path118"
                   d="M 101672,193966 V 144494" /></g></g><g
               id="g128"
               class="com.sun.star.drawing.LineShape"><g
                 id="id8"><rect
                   style="fill:none;stroke:none"
                   id="rect123"
                   height="47514"
                   width="150"
                   y="78919"
                   x="71469"
                   class="BoundingBox" /><path
                   style="fill:none;stroke:#000000;stroke-width:148;stroke-linejoin:miter"
                   id="path125"
                   d="M 71543,126432 V 78919" /></g></g><g
               id="g135"
               class="com.sun.star.drawing.LineShape"><g
                 id="id9"><rect
                   style="fill:none;stroke:none"
                   id="rect130"
                   height="47514"
                   width="150"
                   y="78919"
                   x="131620"
                   class="BoundingBox" /><path
                   style="fill:none;stroke:#000000;stroke-width:148;stroke-linejoin:miter"
                   id="path132"
                   d="M 131694,126432 V 78919" /></g></g><g
               id="g155"
               class="com.sun.star.drawing.PolyPolygonShape"><g
                 id="id10"><rect
                   style="fill:none;stroke:none"
                   id="rect137"
                   height="192097"
                   width="84368"
                   y="321"
                   x="9479"
                   class="BoundingBox" /><g
                   id="g150"><defs
                     id="defs146"><linearGradient
                       gradientUnits="userSpaceOnUse"
                       y2="-730"
                       x2="90893"
                       y1="193468"
                       x1="12431"
                       id="gradient4"><stop
                         id="stop139"
                         style="stop-color:rgb(0,255,255)"
                         offset="0" /><stop
                         id="stop141"
                         style="stop-color:rgb(0,0,128)"
                         offset="0.5" /><stop
                         id="stop143"
                         style="stop-color:rgb(0,255,255)"
                         offset="1" /></linearGradient></defs><path
                     id="path148"
                     d="M 9573,6425 21293,425 93752,186313 82032,192313 Z"
                     style="fill:url(#gradient4)" /></g><path
                   style="fill:none;stroke:#000000;stroke-width:148;stroke-linejoin:miter"
                   id="path152"
                   d="M 9573,6425 21293,425 93752,186313 82032,192313 Z" /></g></g></g></g></g></g></g></svg>