<?xml version="1.0" encoding="UTF-8" standalone="no"?>
<svg
   xmlns:ooo="http://xml.openoffice.org/svg/export"
   xmlns:dc="http://purl.org/dc/elements/1.1/"
   xmlns:cc="http://creativecommons.org/ns#"
   xmlns:rdf="http://www.w3.org/1999/02/22-rdf-syntax-ns#"
   xmlns:svg="http://www.w3.org/2000/svg"
   xmlns="http://www.w3.org/2000/svg"
   version="1.2"
   viewBox="0 0 430 430"
   fill-rule="evenodd"
   stroke-width="28.222"
   stroke-linejoin="round"
   xml:space="preserve"
   id="svg230"><metadata
     id="metadata234"><rdf:RDF><cc:Work
         rdf:about=""><dc:format>image/svg+xml</dc:format><dc:type
           rdf:resource="http://purl.org/dc/dcmitype/StillImage" /><dc:title></dc:title></cc:Work></rdf:RDF></metadata><defs
     class="ClipPathGroup"
     id="defs8"><clipPath
       id="presentation_clip_path"
       clipPathUnits="userSpaceOnUse"><rect
         x="0"
         y="0"
         width="244141"
         height="244141"
         id="rect2" /></clipPath><clipPath
       id="presentation_clip_path_shrink"
       clipPathUnits="userSpaceOnUse"><rect
         x="244"
         y="244"
         width="243653"
         height="243653"
         id="rect5" /></clipPath></defs><defs
     class="TextShapeIndex"
     id="defs12"><g
       ooo:slide="id1"
       ooo:id-list="id3 id4 id5 id6 id7 id8 id9 id10 id11 id12 id13 id14 id15 id16 id17 id18 id19 id20 id21 id22 id23"
       id="g10" /></defs><defs
     class="EmbeddedBulletChars"
     id="defs44"><g
       id="bullet-char-template(57356)"
       transform="scale(0.00048828125,-0.00048828125)"><path
         d="M 580,1141 L 1163,571 580,0 -4,571 580,1141 Z"
         id="path14" /></g><g
       id="bullet-char-template(57354)"
       transform="scale(0.00048828125,-0.00048828125)"><path
         d="M 8,1128 L 1137,1128 1137,0 8,0 8,1128 Z"
         id="path17" /></g><g
       id="bullet-char-template(10146)"
       transform="scale(0.00048828125,-0.00048828125)"><path
         d="M 174,0 L 602,739 174,1481 1456,739 174,0 Z M 1358,739 L 309,1346 659,739 1358,739 Z"
         id="path20" /></g><g
       id="bullet-char-template(10132)"
       transform="scale(0.00048828125,-0.00048828125)"><path
         d="M 2015,739 L 1276,0 717,0 1260,543 174,543 174,936 1260,936 717,1481 1274,1481 2015,739 Z"
         id="path23" /></g><g
       id="bullet-char-template(10007)"
       transform="scale(0.00048828125,-0.00048828125)"><path
         d="M 0,-2 C -7,14 -16,27 -25,37 L 356,567 C 262,823 215,952 215,954 215,979 228,992 255,992 264,992 276,990 289,987 310,991 331,999 354,1012 L 381,999 492,748 772,1049 836,1024 860,1049 C 881,1039 901,1025 922,1006 886,937 835,863 770,784 769,783 710,716 594,584 L 774,223 C 774,196 753,168 711,139 L 727,119 C 717,90 699,76 672,76 641,76 570,178 457,381 L 164,-76 C 142,-110 111,-127 72,-127 30,-127 9,-110 8,-76 1,-67 -2,-52 -2,-32 -2,-23 -1,-13 0,-2 Z"
         id="path26" /></g><g
       id="bullet-char-template(10004)"
       transform="scale(0.00048828125,-0.00048828125)"><path
         d="M 285,-33 C 182,-33 111,30 74,156 52,228 41,333 41,471 41,549 55,616 82,672 116,743 169,778 240,778 293,778 328,747 346,684 L 369,508 C 377,444 397,411 428,410 L 1163,1116 C 1174,1127 1196,1133 1229,1133 1271,1133 1292,1118 1292,1087 L 1292,965 C 1292,929 1282,901 1262,881 L 442,47 C 390,-6 338,-33 285,-33 Z"
         id="path29" /></g><g
       id="bullet-char-template(9679)"
       transform="scale(0.00048828125,-0.00048828125)"><path
         d="M 813,0 C 632,0 489,54 383,161 276,268 223,411 223,592 223,773 276,916 383,1023 489,1130 632,1184 813,1184 992,1184 1136,1130 1245,1023 1353,916 1407,772 1407,592 1407,412 1353,268 1245,161 1136,54 992,0 813,0 Z"
         id="path32" /></g><g
       id="bullet-char-template(8226)"
       transform="scale(0.00048828125,-0.00048828125)"><path
         d="M 346,457 C 273,457 209,483 155,535 101,586 74,649 74,723 74,796 101,859 155,911 209,963 273,989 346,989 419,989 480,963 531,910 582,859 608,796 608,723 608,648 583,586 532,535 482,483 420,457 346,457 Z"
         id="path35" /></g><g
       id="bullet-char-template(8211)"
       transform="scale(0.00048828125,-0.00048828125)"><path
         d="M -4,459 L 1135,459 1135,606 -4,606 -4,459 Z"
         id="path38" /></g><g
       id="bullet-char-template(61548)"
       transform="scale(0.00048828125,-0.00048828125)"><path
         d="M 173,740 C 173,903 231,1043 346,1159 462,1274 601,1332 765,1332 928,1332 1067,1274 1183,1159 1299,1043 1357,903 1357,740 1357,577 1299,437 1183,322 1067,206 928,148 765,148 601,148 462,206 346,322 231,437 173,577 173,740 Z"
         id="path41" /></g></defs><defs
     class="TextEmbeddedBitmaps"
     id="defs46" /><g
     transform="matrix(0.00215045,0,0,0.00176417,0.02773302,-0.70622797)"
     id="g51"><g
       id="id2"
       class="Master_Slide"><g
         id="bg-id2"
         class="Background" /><g
         id="bo-id2"
         class="BackgroundObjects" /></g></g><g
     transform="matrix(0.00206863,0,0,0.00163288,17.39592,-1.4503962)"
     class="SlideGroup"
     id="g228"><g
       id="g226"><g
         id="container-id1"><g
           id="id1"
           class="Slide"
           clip-path="url(#presentation_clip_path)"><g
             class="Page"
             id="g222"><g
               class="com.sun.star.drawing.PolyPolygonShape"
               id="g56"><g
                 id="id3"><rect
                   style="fill:none;stroke:none"
                   class="BoundingBox"
                   x="83314"
                   y="156723"
                   width="87554"
                   height="72592"
                   id="rect53" /></g></g><g
               class="com.sun.star.drawing.PolyPolygonShape"
               id="g72"><g
                 id="id4"><rect
                   style="fill:none;stroke:none"
                   class="BoundingBox"
                   x="83409"
                   y="156815"
                   width="87364"
                   height="72406"
                   id="rect58" /><g
                   id="g69"><defs
                     id="defs65"><linearGradient
                       id="gradient1"
                       x1="127090"
                       y1="156815"
                       x2="127090"
                       y2="229220"
                       gradientUnits="userSpaceOnUse"><stop
                         offset="0"
                         style="stop-color:rgb(174,174,174)"
                         id="stop60" /><stop
                         offset="1"
                         style="stop-color:rgb(255,255,255)"
                         id="stop62" /></linearGradient></defs><path
                     style="fill:url(#gradient1)"
                     d="m 83409,156815 h 87363 v 72405 H 83409 Z"
                     id="path67" /></g></g></g><g
               class="com.sun.star.drawing.PolyPolygonShape"
               id="g79"><g
                 id="id5"><rect
                   style="fill:none;stroke:none"
                   class="BoundingBox"
                   x="83316"
                   y="156722"
                   width="87550"
                   height="72592"
                   id="rect74" /><path
                   style="fill:none;stroke:#000000;stroke-width:185;stroke-linejoin:miter"
                   d="m 83409,156815 h 87363 v 72405 H 83409 Z"
                   id="path76" /></g></g><g
               class="com.sun.star.drawing.PolyPolygonShape"
               id="g84"><g
                 id="id6"><rect
                   style="fill:none;stroke:none"
                   class="BoundingBox"
                   x="62779"
                   y="65951"
                   width="128693"
                   height="95169"
                   id="rect81" /></g></g><g
               class="com.sun.star.drawing.PolyPolygonShape"
               id="g100"><g
                 id="id7"><rect
                   style="fill:none;stroke:none"
                   class="BoundingBox"
                   x="62873"
                   y="66045"
                   width="128504"
                   height="94982"
                   id="rect86" /><g
                   id="g97"><defs
                     id="defs93"><linearGradient
                       id="gradient2"
                       x1="127124"
                       y1="66045"
                       x2="127124"
                       y2="161026"
                       gradientUnits="userSpaceOnUse"><stop
                         offset="0"
                         style="stop-color:rgb(174,174,174)"
                         id="stop88" /><stop
                         offset="1"
                         style="stop-color:rgb(255,255,255)"
                         id="stop90" /></linearGradient></defs><path
                     style="fill:url(#gradient2)"
                     d="m 62873,66045 h 128503 v 94981 H 62873 Z"
                     id="path95" /></g></g></g><g
               class="com.sun.star.drawing.PolyPolygonShape"
               id="g107"><g
                 id="id8"><rect
                   style="fill:none;stroke:none"
                   class="BoundingBox"
                   x="62780"
                   y="65952"
                   width="128690"
                   height="95168"
                   id="rect102" /><path
                   style="fill:none;stroke:#000000;stroke-width:185;stroke-linejoin:miter"
                   d="m 62873,66045 h 128503 v 94981 H 62873 Z"
                   id="path104" /></g></g><g
               class="com.sun.star.drawing.PolyPolygonShape"
               id="g112"><g
                 id="id9"><rect
                   style="fill:none;stroke:none"
                   class="BoundingBox"
                   x="94486"
                   y="17888"
                   width="65143"
                   height="61036"
                   id="rect109" /></g></g><g
               class="com.sun.star.drawing.PolyPolygonShape"
               id="g119"><g
                 id="id10"><rect
                   style="fill:none;stroke:none"
                   class="BoundingBox"
                   x="94580"
                   y="17981"
                   width="64957"
                   height="60847"
                   id="rect114" /><path
                   style="fill:#ffffff;stroke:none"
                   d="m 94580,17981 h 64955 V 78827 H 94580 Z"
                   id="path116" /></g></g><g
               class="com.sun.star.drawing.PolyPolygonShape"
               id="g126"><g
                 id="id11"><rect
                   style="fill:none;stroke:none"
                   class="BoundingBox"
                   x="94487"
                   y="17888"
                   width="65142"
                   height="61033"
                   id="rect121" /><path
                   style="fill:none;stroke:#000000;stroke-width:185;stroke-linejoin:miter"
                   d="m 94580,17981 h 64955 V 78827 H 94580 Z"
                   id="path123" /></g></g><g
               class="com.sun.star.drawing.PolyPolygonShape"
               id="g131"><g
                 id="id12"><rect
                   style="fill:none;stroke:none"
                   class="BoundingBox"
                   x="63515"
                   y="216036"
                   width="126953"
                   height="28201"
                   id="rect128" /></g></g><g
               class="com.sun.star.drawing.PolyPolygonShape"
               id="g147"><g
                 id="id13"><rect
                   style="fill:none;stroke:none"
                   class="BoundingBox"
                   x="63609"
                   y="216129"
                   width="126764"
                   height="28014"
                   id="rect133" /><g
                   id="g144"><defs
                     id="defs140"><linearGradient
                       id="gradient3"
                       x1="126990"
                       y1="216130"
                       x2="126990"
                       y2="244142"
                       gradientUnits="userSpaceOnUse"><stop
                         offset="0"
                         style="stop-color:rgb(139,139,139)"
                         id="stop135" /><stop
                         offset="1"
                         style="stop-color:rgb(206,197,197)"
                         id="stop137" /></linearGradient></defs><path
                     style="fill:url(#gradient3)"
                     d="m 63609,216130 h 126763 v 28012 H 63609 Z"
                     id="path142" /></g></g></g><g
               class="com.sun.star.drawing.PolyPolygonShape"
               id="g154"><g
                 id="id14"><rect
                   style="fill:none;stroke:none"
                   class="BoundingBox"
                   x="63516"
                   y="216037"
                   width="126950"
                   height="28199"
                   id="rect149" /><path
                   style="fill:none;stroke:#000000;stroke-width:185;stroke-linejoin:miter"
                   d="m 63609,216130 h 126763 v 28012 H 63609 Z"
                   id="path151" /></g></g><g
               class="com.sun.star.drawing.PolyPolygonShape"
               id="g159"><g
                 id="id15"><rect
                   style="fill:none;stroke:none"
                   class="BoundingBox"
                   x="126998"
                   y="180616"
                   width="190"
                   height="61845"
                   id="rect156" /></g></g><g
               class="com.sun.star.drawing.LineShape"
               id="g166"><g
                 id="id16"><rect
                   style="fill:none;stroke:none"
                   class="BoundingBox"
                   x="126997"
                   y="180618"
                   width="187"
                   height="61841"
                   id="rect161" /><path
                   style="fill:none;stroke:#000000;stroke-width:185;stroke-linejoin:miter"
                   d="M 127090,242458 V 180618"
                   id="path163" /></g></g><g
               class="com.sun.star.drawing.PolyPolygonShape"
               id="g171"><g
                 id="id17"><rect
                   style="fill:none;stroke:none"
                   class="BoundingBox"
                   x="89336"
                   y="98649"
                   width="189"
                   height="59394"
                   id="rect168" /></g></g><g
               class="com.sun.star.drawing.LineShape"
               id="g178"><g
                 id="id18"><rect
                   style="fill:none;stroke:none"
                   class="BoundingBox"
                   x="89336"
                   y="98649"
                   width="187"
                   height="59392"
                   id="rect173" /><path
                   style="fill:none;stroke:#000000;stroke-width:185;stroke-linejoin:miter"
                   d="M 89429,158040 V 98649"
                   id="path175" /></g></g><g
               class="com.sun.star.drawing.PolyPolygonShape"
               id="g183"><g
                 id="id19"><rect
                   style="fill:none;stroke:none"
                   class="BoundingBox"
                   x="164525"
                   y="98649"
                   width="190"
                   height="59394"
                   id="rect180" /></g></g><g
               class="com.sun.star.drawing.LineShape"
               id="g190"><g
                 id="id20"><rect
                   style="fill:none;stroke:none"
                   class="BoundingBox"
                   x="164525"
                   y="98649"
                   width="187"
                   height="59392"
                   id="rect185" /><path
                   style="fill:none;stroke:#000000;stroke-width:185;stroke-linejoin:miter"
                   d="M 164618,158040 V 98649"
                   id="path187" /></g></g><g
               class="com.sun.star.drawing.PolyPolygonShape"
               id="g195"><g
                 id="id21"><rect
                   style="fill:none;stroke:none"
                   class="BoundingBox"
                   x="11849"
                   y="401"
                   width="105462"
                   height="240123"
                   id="rect192" /></g></g><g
               class="com.sun.star.drawing.PolyPolygonShape"
               id="g213"><g
                 id="id22"><rect
                   style="fill:none;stroke:none"
                   class="BoundingBox"
                   x="11966"
                   y="531"
                   width="105226"
                   height="239862"
                   id="rect197" /><g
                   id="g210"><defs
                     id="defs206"><linearGradient
                       id="gradient4"
                       x1="-25351"
                       y1="45002"
                       x2="154508"
                       y2="195921"
                       gradientUnits="userSpaceOnUse"><stop
                         offset="0"
                         style="stop-color:rgb(128,0,63)"
                         id="stop199" /><stop
                         offset="0.5"
                         style="stop-color:rgb(255,0,0)"
                         id="stop201" /><stop
                         offset="1"
                         style="stop-color:rgb(128,0,63)"
                         id="stop203" /></linearGradient></defs><path
                     style="fill:url(#gradient4)"
                     d="m 11966,8031 14650,-7500 90575,232361 -14650,7500 z"
                     id="path208" /></g></g></g><g
               class="com.sun.star.drawing.PolyPolygonShape"
               id="g220"><g
                 id="id23"><rect
                   style="fill:none;stroke:none"
                   class="BoundingBox"
                   x="11849"
                   y="402"
                   width="105460"
                   height="240120"
                   id="rect215" /><path
                   style="fill:none;stroke:#000000;stroke-width:185;stroke-linejoin:miter"
                   d="m 11966,8031 14650,-7500 90575,232361 -14650,7500 z"
                   id="path217" /></g></g></g></g></g></g></g></svg>