<?xml version="1.0" encoding="UTF-8" standalone="no"?>
<svg
   xmlns:ooo="http://xml.openoffice.org/svg/export"
   xmlns:dc="http://purl.org/dc/elements/1.1/"
   xmlns:cc="http://creativecommons.org/ns#"
   xmlns:rdf="http://www.w3.org/1999/02/22-rdf-syntax-ns#"
   xmlns:svg="http://www.w3.org/2000/svg"
   xmlns="http://www.w3.org/2000/svg"
   version="1.2"
   viewBox="0 0 430 430"
   fill-rule="evenodd"
   stroke-width="28.222"
   stroke-linejoin="round"
   xml:space="preserve"
   id="svg7413"><metadata
     id="metadata7417"><rdf:RDF><cc:Work
         rdf:about=""><dc:format>image/svg+xml</dc:format><dc:type
           rdf:resource="http://purl.org/dc/dcmitype/StillImage" /><dc:title></dc:title></cc:Work></rdf:RDF></metadata><defs
     class="ClipPathGroup"
     id="defs7304"><clipPath
       id="presentation_clip_path"
       clipPathUnits="userSpaceOnUse"><rect
         x="0"
         y="0"
         width="381470"
         height="381470"
         id="rect7298" /></clipPath><clipPath
       id="presentation_clip_path_shrink"
       clipPathUnits="userSpaceOnUse"><rect
         x="381"
         y="381"
         width="380708"
         height="380708"
         id="rect7301" /></clipPath></defs><defs
     class="TextShapeIndex"
     id="defs7308"><g
       ooo:slide="id1"
       ooo:id-list="id3 id4 id5 id6 id7 id8 id9"
       id="g7306" /></defs><defs
     class="EmbeddedBulletChars"
     id="defs7340"><g
       id="bullet-char-template(57356)"
       transform="scale(0.00048828125,-0.00048828125)"><path
         d="M 580,1141 L 1163,571 580,0 -4,571 580,1141 Z"
         id="path7310" /></g><g
       id="bullet-char-template(57354)"
       transform="scale(0.00048828125,-0.00048828125)"><path
         d="M 8,1128 L 1137,1128 1137,0 8,0 8,1128 Z"
         id="path7313" /></g><g
       id="bullet-char-template(10146)"
       transform="scale(0.00048828125,-0.00048828125)"><path
         d="M 174,0 L 602,739 174,1481 1456,739 174,0 Z M 1358,739 L 309,1346 659,739 1358,739 Z"
         id="path7316" /></g><g
       id="bullet-char-template(10132)"
       transform="scale(0.00048828125,-0.00048828125)"><path
         d="M 2015,739 L 1276,0 717,0 1260,543 174,543 174,936 1260,936 717,1481 1274,1481 2015,739 Z"
         id="path7319" /></g><g
       id="bullet-char-template(10007)"
       transform="scale(0.00048828125,-0.00048828125)"><path
         d="M 0,-2 C -7,14 -16,27 -25,37 L 356,567 C 262,823 215,952 215,954 215,979 228,992 255,992 264,992 276,990 289,987 310,991 331,999 354,1012 L 381,999 492,748 772,1049 836,1024 860,1049 C 881,1039 901,1025 922,1006 886,937 835,863 770,784 769,783 710,716 594,584 L 774,223 C 774,196 753,168 711,139 L 727,119 C 717,90 699,76 672,76 641,76 570,178 457,381 L 164,-76 C 142,-110 111,-127 72,-127 30,-127 9,-110 8,-76 1,-67 -2,-52 -2,-32 -2,-23 -1,-13 0,-2 Z"
         id="path7322" /></g><g
       id="bullet-char-template(10004)"
       transform="scale(0.00048828125,-0.00048828125)"><path
         d="M 285,-33 C 182,-33 111,30 74,156 52,228 41,333 41,471 41,549 55,616 82,672 116,743 169,778 240,778 293,778 328,747 346,684 L 369,508 C 377,444 397,411 428,410 L 1163,1116 C 1174,1127 1196,1133 1229,1133 1271,1133 1292,1118 1292,1087 L 1292,965 C 1292,929 1282,901 1262,881 L 442,47 C 390,-6 338,-33 285,-33 Z"
         id="path7325" /></g><g
       id="bullet-char-template(9679)"
       transform="scale(0.00048828125,-0.00048828125)"><path
         d="M 813,0 C 632,0 489,54 383,161 276,268 223,411 223,592 223,773 276,916 383,1023 489,1130 632,1184 813,1184 992,1184 1136,1130 1245,1023 1353,916 1407,772 1407,592 1407,412 1353,268 1245,161 1136,54 992,0 813,0 Z"
         id="path7328" /></g><g
       id="bullet-char-template(8226)"
       transform="scale(0.00048828125,-0.00048828125)"><path
         d="M 346,457 C 273,457 209,483 155,535 101,586 74,649 74,723 74,796 101,859 155,911 209,963 273,989 346,989 419,989 480,963 531,910 582,859 608,796 608,723 608,648 583,586 532,535 482,483 420,457 346,457 Z"
         id="path7331" /></g><g
       id="bullet-char-template(8211)"
       transform="scale(0.00048828125,-0.00048828125)"><path
         d="M -4,459 L 1135,459 1135,606 -4,606 -4,459 Z"
         id="path7334" /></g><g
       id="bullet-char-template(61548)"
       transform="scale(0.00048828125,-0.00048828125)"><path
         d="M 173,740 C 173,903 231,1043 346,1159 462,1274 601,1332 765,1332 928,1332 1067,1274 1183,1159 1299,1043 1357,903 1357,740 1357,577 1299,437 1183,322 1067,206 928,148 765,148 601,148 462,206 346,322 231,437 173,577 173,740 Z"
         id="path7337" /></g></defs><defs
     class="TextEmbeddedBitmaps"
     id="defs7342" /><g
     id="g7347"><g
       id="id2"
       class="Master_Slide"><g
         id="bg-id2"
         class="Background" /><g
         id="bo-id2"
         class="BackgroundObjects" /></g></g><g
     transform="matrix(0.00112722,0,0,0.00112722,0,-6.134e-4)"
     class="SlideGroup"
     id="g7411"><g
       id="g7409"><g
         id="container-id1"><g
           id="id1"
           class="Slide"
           clip-path="url(#presentation_clip_path)"><g
             class="Page"
             id="g7405"><g
               class="com.sun.star.drawing.PolyPolygonShape"
               id="g7352"><g
                 id="id3"><rect
                   style="fill:none;stroke:none"
                   class="BoundingBox"
                   x="-1"
                   y="-1"
                   width="381476"
                   height="381476"
                   id="rect7349" /></g></g><g
               class="com.sun.star.drawing.PolyPolygonShape"
               id="g7368"><g
                 id="id4"><rect
                   style="fill:none;stroke:none"
                   class="BoundingBox"
                   x="0"
                   y="0"
                   width="381472"
                   height="381472"
                   id="rect7354" /><g
                   id="g7365"><defs
                     id="defs7361"><linearGradient
                       id="gradient1"
                       x1="190735"
                       y1="0"
                       x2="190735"
                       y2="381471"
                       gradientUnits="userSpaceOnUse"><stop
                         offset="0"
                         style="stop-color:rgb(0,255,0)"
                         id="stop7356" /><stop
                         offset="1"
                         style="stop-color:rgb(0,128,63)"
                         id="stop7358" /></linearGradient></defs><path
                     style="fill:url(#gradient1)"
                     d="M 190736,381471 H 0 V 0 h 381471 v 381471 z"
                     id="path7363" /></g></g></g><g
               class="com.sun.star.drawing.PolyPolygonShape"
               id="g7375"><g
                 id="id5"><rect
                   style="fill:none;stroke:none"
                   class="BoundingBox"
                   x="-18"
                   y="-18"
                   width="381508"
                   height="381508"
                   id="rect7370" /><path
                   style="fill:none;stroke:#3465a4;stroke-width:35;stroke-linejoin:round"
                   d="M 190736,381471 H 0 V 0 h 381471 v 381471 z"
                   id="path7372" /></g></g><g
               class="com.sun.star.drawing.ClosedBezierShape"
               id="g7382"><g
                 id="id6"><rect
                   style="fill:none;stroke:none"
                   class="BoundingBox"
                   x="160140"
                   y="150120"
                   width="68701"
                   height="66941"
                   id="rect7377" /><path
                   style="fill:#000000;stroke:none"
                   d="m 228840,183580 c 0,6165 -1441,11400 -4614,16749 -3153,5330 -7086,9162 -12556,12235 -5490,3092 -10863,4495 -17189,4495 -6308,0 -11700,-1403 -17170,-4495 -5471,-3073 -9403,-6905 -12576,-12235 -3154,-5349 -4594,-10584 -4594,-16749 0,-6146 1440,-11400 4594,-16730 3173,-5330 7105,-9162 12576,-12253 5470,-3073 10862,-4477 17170,-4477 6326,0 11699,1404 17189,4477 5470,3091 9403,6923 12556,12253 3173,5330 4614,10584 4614,16730 z"
                   id="path7379" /></g></g><g
               class="com.sun.star.drawing.ClosedBezierShape"
               id="g7389"><g
                 id="id7"><rect
                   style="fill:none;stroke:none"
                   class="BoundingBox"
                   x="220235"
                   y="38700"
                   width="145966"
                   height="144901"
                   id="rect7384" /><path
                   style="fill:#000000;stroke:none"
                   d="m 245991,183599 v 0 c 0,-9237 -2161,-17090 -6892,-25095 -4750,-8005 -10648,-13752 -18863,-18380 v 0 L 280331,38700 v 0 0 c 27370,15402 47052,34560 62859,61249 15807,26669 23010,52846 23010,83650 z"
                   id="path7386" /></g></g><g
               class="com.sun.star.drawing.ClosedBezierShape"
               id="g7396"><g
                 id="id8"><rect
                   style="fill:none;stroke:none"
                   class="BoundingBox"
                   x="108649"
                   y="227055"
                   width="171702"
                   height="123847"
                   id="rect7391" /><path
                   style="fill:#000000;stroke:none"
                   d="m 168745,227056 v 0 c 8215,4628 16275,6733 25755,6733 9480,0 17540,-2105 25755,-6733 v 0 l 60095,101423 v 0 c -27371,15403 -54235,22421 -85850,22421 -31615,0 -58479,-7018 -85850,-22421 z"
                   id="path7393" /></g></g><g
               class="com.sun.star.drawing.ClosedBezierShape"
               id="g7403"><g
                 id="id9"><rect
                   style="fill:none;stroke:none"
                   class="BoundingBox"
                   x="22799"
                   y="38700"
                   width="145967"
                   height="144901"
                   id="rect7398" /><path
                   style="fill:#000000;stroke:none"
                   d="m 168764,140124 v 0 c -8215,4628 -14113,10375 -18863,18380 -4750,8005 -6911,15858 -6911,25095 v 0 H 22800 v 0 0 c 0,-30804 7203,-56981 23010,-83650 15807,-26689 35469,-45847 62840,-61249 z"
                   id="path7400" /></g></g></g></g></g></g></g></svg>