<?xml version="1.0" encoding="UTF-8" standalone="no"?>
<svg
   xmlns:ooo="http://xml.openoffice.org/svg/export"
   xmlns:dc="http://purl.org/dc/elements/1.1/"
   xmlns:cc="http://creativecommons.org/ns#"
   xmlns:rdf="http://www.w3.org/1999/02/22-rdf-syntax-ns#"
   xmlns:svg="http://www.w3.org/2000/svg"
   xmlns="http://www.w3.org/2000/svg"
   id="svg8112"
   xml:space="preserve"
   stroke-linejoin="round"
   stroke-width="28.222"
   fill-rule="evenodd"
   viewBox="0 0 430 430"
   version="1.2"><metadata
     id="metadata8116"><rdf:RDF><cc:Work
         rdf:about=""><dc:format>image/svg+xml</dc:format><dc:type
           rdf:resource="http://purl.org/dc/dcmitype/StillImage" /><dc:title></dc:title></cc:Work></rdf:RDF></metadata><defs
     id="defs7968"
     class="ClipPathGroup"><clipPath
       clipPathUnits="userSpaceOnUse"
       id="presentation_clip_path"><rect
         id="rect7962"
         height="381470"
         width="381470"
         y="0"
         x="0" /></clipPath><clipPath
       clipPathUnits="userSpaceOnUse"
       id="presentation_clip_path_shrink"><rect
         id="rect7965"
         height="380708"
         width="380708"
         y="381"
         x="381" /></clipPath></defs><defs
     id="defs7972"
     class="TextShapeIndex"><g
       id="g7970"
       ooo:id-list="id3 id4 id5 id6 id7 id8 id9 id10 id11 id12 id13 id14"
       ooo:slide="id1" /></defs><defs
     id="defs8004"
     class="EmbeddedBulletChars"><g
       transform="scale(0.00048828125,-0.00048828125)"
       id="bullet-char-template(57356)"><path
         id="path7974"
         d="M 580,1141 L 1163,571 580,0 -4,571 580,1141 Z" /></g><g
       transform="scale(0.00048828125,-0.00048828125)"
       id="bullet-char-template(57354)"><path
         id="path7977"
         d="M 8,1128 L 1137,1128 1137,0 8,0 8,1128 Z" /></g><g
       transform="scale(0.00048828125,-0.00048828125)"
       id="bullet-char-template(10146)"><path
         id="path7980"
         d="M 174,0 L 602,739 174,1481 1456,739 174,0 Z M 1358,739 L 309,1346 659,739 1358,739 Z" /></g><g
       transform="scale(0.00048828125,-0.00048828125)"
       id="bullet-char-template(10132)"><path
         id="path7983"
         d="M 2015,739 L 1276,0 717,0 1260,543 174,543 174,936 1260,936 717,1481 1274,1481 2015,739 Z" /></g><g
       transform="scale(0.00048828125,-0.00048828125)"
       id="bullet-char-template(10007)"><path
         id="path7986"
         d="M 0,-2 C -7,14 -16,27 -25,37 L 356,567 C 262,823 215,952 215,954 215,979 228,992 255,992 264,992 276,990 289,987 310,991 331,999 354,1012 L 381,999 492,748 772,1049 836,1024 860,1049 C 881,1039 901,1025 922,1006 886,937 835,863 770,784 769,783 710,716 594,584 L 774,223 C 774,196 753,168 711,139 L 727,119 C 717,90 699,76 672,76 641,76 570,178 457,381 L 164,-76 C 142,-110 111,-127 72,-127 30,-127 9,-110 8,-76 1,-67 -2,-52 -2,-32 -2,-23 -1,-13 0,-2 Z" /></g><g
       transform="scale(0.00048828125,-0.00048828125)"
       id="bullet-char-template(10004)"><path
         id="path7989"
         d="M 285,-33 C 182,-33 111,30 74,156 52,228 41,333 41,471 41,549 55,616 82,672 116,743 169,778 240,778 293,778 328,747 346,684 L 369,508 C 377,444 397,411 428,410 L 1163,1116 C 1174,1127 1196,1133 1229,1133 1271,1133 1292,1118 1292,1087 L 1292,965 C 1292,929 1282,901 1262,881 L 442,47 C 390,-6 338,-33 285,-33 Z" /></g><g
       transform="scale(0.00048828125,-0.00048828125)"
       id="bullet-char-template(9679)"><path
         id="path7992"
         d="M 813,0 C 632,0 489,54 383,161 276,268 223,411 223,592 223,773 276,916 383,1023 489,1130 632,1184 813,1184 992,1184 1136,1130 1245,1023 1353,916 1407,772 1407,592 1407,412 1353,268 1245,161 1136,54 992,0 813,0 Z" /></g><g
       transform="scale(0.00048828125,-0.00048828125)"
       id="bullet-char-template(8226)"><path
         id="path7995"
         d="M 346,457 C 273,457 209,483 155,535 101,586 74,649 74,723 74,796 101,859 155,911 209,963 273,989 346,989 419,989 480,963 531,910 582,859 608,796 608,723 608,648 583,586 532,535 482,483 420,457 346,457 Z" /></g><g
       transform="scale(0.00048828125,-0.00048828125)"
       id="bullet-char-template(8211)"><path
         id="path7998"
         d="M -4,459 L 1135,459 1135,606 -4,606 -4,459 Z" /></g><g
       transform="scale(0.00048828125,-0.00048828125)"
       id="bullet-char-template(61548)"><path
         id="path8001"
         d="M 173,740 C 173,903 231,1043 346,1159 462,1274 601,1332 765,1332 928,1332 1067,1274 1183,1159 1299,1043 1357,903 1357,740 1357,577 1299,437 1183,322 1067,206 928,148 765,148 601,148 462,206 346,322 231,437 173,577 173,740 Z" /></g></defs><defs
     id="defs8006"
     class="TextEmbeddedBitmaps" /><g
     id="g8011"><g
       class="Master_Slide"
       id="id2"><g
         class="Background"
         id="bg-id2" /><g
         class="BackgroundObjects"
         id="bo-id2" /></g></g><g
     id="g8110"
     class="SlideGroup"
     transform="matrix(0.00112722,0,0,0.00112722,0,-6.134e-4)"><g
       id="g8108"><g
         id="container-id1"><g
           clip-path="url(#presentation_clip_path)"
           class="Slide"
           id="id1"><g
             id="g8104"
             class="Page"><g
               id="g8016"
               class="com.sun.star.drawing.PolyPolygonShape"><g
                 id="id3"><rect
                   id="rect8013"
                   height="381476"
                   width="381476"
                   y="-1"
                   x="-1"
                   class="BoundingBox"
                   style="fill:none;stroke:none" /></g></g><g
               id="g8032"
               class="com.sun.star.drawing.PolyPolygonShape"><g
                 id="id4"><rect
                   id="rect8018"
                   height="381472"
                   width="381472"
                   y="0"
                   x="0"
                   class="BoundingBox"
                   style="fill:none;stroke:none" /><g
                   id="g8029"><defs
                     id="defs8025"><linearGradient
                       gradientUnits="userSpaceOnUse"
                       y2="381471"
                       x2="190735"
                       y1="0"
                       x1="190735"
                       id="gradient1"><stop
                         id="stop8020"
                         style="stop-color:rgb(0,255,0)"
                         offset="0" /><stop
                         id="stop8022"
                         style="stop-color:rgb(0,128,63)"
                         offset="1" /></linearGradient></defs><path
                     id="path8027"
                     d="M 190736,381471 H 0 V 0 h 381471 v 381471 z"
                     style="fill:url(#gradient1)" /></g></g></g><g
               id="g8039"
               class="com.sun.star.drawing.PolyPolygonShape"><g
                 id="id5"><rect
                   id="rect8034"
                   height="381508"
                   width="381508"
                   y="-18"
                   x="-18"
                   class="BoundingBox"
                   style="fill:none;stroke:none" /><path
                   id="path8036"
                   d="M 190736,381471 H 0 V 0 h 381471 v 381471 z"
                   style="fill:none;stroke:#3465a4;stroke-width:35;stroke-linejoin:round" /></g></g><g
               id="g8046"
               class="com.sun.star.drawing.ClosedBezierShape"><g
                 id="id6"><rect
                   id="rect8041"
                   height="280285"
                   width="334161"
                   y="57121"
                   x="34510"
                   class="BoundingBox"
                   style="fill:none;stroke:none" /><path
                   id="path8043"
                   d="M 58232,281901 C 43228,250401 47345,190559 34575,115917 32197,102527 96490,67361 128280,57264 c 8231,-2614 26690,31399 28598,44787 1490,9609 -12632,11386 -12632,11386 -678,13607 -15538,13060 -15538,13060 -532,11606 -14257,10698 -14257,10698 -1885,11282 -14616,10059 -14616,10059 3436,45255 20812,35523 54568,95074 0,0 3615,-1901 7661,-26058 16401,-97902 176240,-119023 195908,-26107 4253,20769 36528,46633 -36979,97064 -58365,40055 -149594,27799 -149594,27799 -24545,16674 -77087,32759 -84813,13846 -8964,-21831 -20559,-30789 -28354,-46971 z"
                   style="fill:#ffdd67;stroke:none" /></g></g><g
               id="g8053"
               class="com.sun.star.drawing.ClosedBezierShape"><g
                 id="id7"><rect
                   id="rect8048"
                   height="193866"
                   width="281887"
                   y="143745"
                   x="86736"
                   class="BoundingBox"
                   style="fill:none;stroke:none" /><path
                   id="path8050"
                   d="m 357764,190229 c -4644,-21999 -16784,-37103 -32731,-46484 10928,9320 18948,22272 22639,39306 4253,20770 36528,46633 -36978,97064 -58366,40055 -149594,27799 -149594,27799 -19149,13004 -55843,25862 -74363,21662 8119,18187 60334,2055 84639,-14392 0,0 91229,12256 149595,-27800 73506,-50431 41231,-76294 36793,-97155 z"
                   style="fill:#eba352;stroke:none" /></g></g><g
               id="g8060"
               class="com.sun.star.drawing.ClosedBezierShape"><g
                 id="id8"><rect
                   id="rect8055"
                   height="104303"
                   width="61446"
                   y="147898"
                   x="93819"
                   class="BoundingBox"
                   style="fill:none;stroke:none" /><path
                   id="path8057"
                   d="m 93819,148563 c 2986,53674 22870,44951 56507,103637 l 4937,-9544 c -29947,-59857 -44972,-46658 -55562,-94758 -3122,992 -5882,665 -5882,665 z"
                   style="fill:#eba352;stroke:none" /></g></g><g
               id="g8067"
               class="com.sun.star.drawing.ClosedBezierShape"><g
                 id="id9"><rect
                   id="rect8062"
                   height="56202"
                   width="186886"
                   y="222475"
                   x="150967"
                   class="BoundingBox"
                   style="fill:none;stroke:none" /><path
                   id="path8064"
                   d="m 337852,222476 c -40056,103608 -118655,30763 -186884,38288 62251,-34217 119684,31507 186884,-38288 z"
                   style="fill:#eba352;stroke:none" /></g></g><g
               id="g8074"
               class="com.sun.star.drawing.ClosedBezierShape"><g
                 id="id10"><rect
                   id="rect8069"
                   height="8459"
                   width="14325"
                   y="67864"
                   x="105117"
                   class="BoundingBox"
                   style="fill:none;stroke:none" /><path
                   id="path8071"
                   d="m 119440,75410 c -4717,-4521 -10689,-2173 -14240,911 -1256,-5921 12213,-15165 14240,-911 z"
                   style="fill:#eba352;stroke:none" /></g></g><g
               id="g8081"
               class="com.sun.star.drawing.ClosedBezierShape"><g
                 id="id11"><rect
                   id="rect8076"
                   height="91866"
                   width="102170"
                   y="60401"
                   x="58826"
                   class="BoundingBox"
                   style="fill:none;stroke:none" /><path
                   id="path8078"
                   d="m 156271,86595 c -4664,-10256 -11740,-19746 -21287,-26193 6413,7894 11341,17013 14423,26718 1389,4374 7473,19596 -1125,20069 -5358,348 -6803,-3708 -9568,-7494 -4212,-5885 -10432,-12186 -12078,-19337 184,7465 5059,14945 8125,21646 1684,3828 8280,13772 3222,17033 -2720,1767 -6875,980 -9765,243 -1168,-231 -3136,-3970 -3909,-4928 -4256,-6022 -10606,-12733 -12438,-19976 196,7011 4515,14216 7167,20597 1728,3965 6820,12128 2362,15801 -4950,4582 -7885,-1708 -10149,-4902 -4028,-5793 -9506,-11727 -11535,-18607 618,8833 5971,17816 9045,26019 1630,4147 -6947,11084 -11462,9659 -7022,-2434 -10913,-11732 -13619,-17794 2354,1510 5635,3477 8670,2212 -3565,-1877 -6034,-6209 -8921,-8904 -2386,-2101 -7734,-7625 -11708,-6363 915,913 6697,7804 6532,8760 -693,3229 -1429,6322 -2307,9460 -910,2546 -2997,10733 -7196,9809 -4385,-1015 -7616,-6760 -9923,-10090 1760,4557 4005,12120 9742,13458 5552,1246 9457,-4659 11483,-8613 4261,9481 12642,21114 25155,16238 2609,-1130 5045,-2807 7111,-4667 1726,-1451 3259,-4496 5561,-4625 5914,-73 11287,-2832 13817,-8150 1237,-2499 420,-3594 3334,-3767 3012,-355 5894,-1120 8472,-2842 2239,-1313 3791,-3310 4788,-5583 690,-1273 910,-2546 1087,-3957 244,-2184 1541,-1543 3528,-2174 12883,-4693 7508,-20140 3366,-28756 z"
                   style="fill:#eba352;stroke:none" /></g></g><g
               id="g8088"
               class="com.sun.star.drawing.ClosedBezierShape"><g
                 id="id12"><rect
                   id="rect8083"
                   height="8459"
                   width="14325"
                   y="55396"
                   x="121155"
                   class="BoundingBox"
                   style="fill:none;stroke:none" /><path
                   id="path8085"
                   d="m 135479,62942 c -4761,-4657 -10690,-2172 -14241,912 -1255,-5921 12214,-15165 14241,-912 z"
                   style="fill:#eba352;stroke:none" /></g></g><g
               id="g8095"
               class="com.sun.star.drawing.ClosedBezierShape"><g
                 id="id13"><rect
                   id="rect8090"
                   height="8459"
                   width="14325"
                   y="79751"
                   x="92800"
                   class="BoundingBox"
                   style="fill:none;stroke:none" /><path
                   id="path8092"
                   d="m 107123,87297 c -4717,-4521 -10689,-2173 -14240,911 -1256,-5921 12213,-15165 14240,-911 z"
                   style="fill:#eba352;stroke:none" /></g></g><g
               id="g8102"
               class="com.sun.star.drawing.ClosedBezierShape"><g
                 id="id14"><rect
                   id="rect8097"
                   height="8459"
                   width="14325"
                   y="92769"
                   x="78342"
                   class="BoundingBox"
                   style="fill:none;stroke:none" /><path
                   id="path8099"
                   d="m 92666,100315 c -4717,-4521 -10689,-2173 -14241,911 -1255,-5921 12214,-15164 14241,-911 z"
                   style="fill:#eba352;stroke:none" /></g></g></g></g></g></g></g></svg>