<?xml version="1.0" encoding="UTF-8" standalone="no"?>
<svg
   xmlns:ooo="http://xml.openoffice.org/svg/export"
   xmlns:dc="http://purl.org/dc/elements/1.1/"
   xmlns:cc="http://creativecommons.org/ns#"
   xmlns:rdf="http://www.w3.org/1999/02/22-rdf-syntax-ns#"
   xmlns:svg="http://www.w3.org/2000/svg"
   xmlns="http://www.w3.org/2000/svg"
   id="svg4741"
   xml:space="preserve"
   stroke-linejoin="round"
   stroke-width="28.222"
   fill-rule="evenodd"
   viewBox="0 0 430 430"
   version="1.2"><metadata
     id="metadata4745"><rdf:RDF><cc:Work
         rdf:about=""><dc:format>image/svg+xml</dc:format><dc:type
           rdf:resource="http://purl.org/dc/dcmitype/StillImage" /><dc:title></dc:title></cc:Work></rdf:RDF></metadata><defs
     id="defs4624"
     class="ClipPathGroup"><clipPath
       clipPathUnits="userSpaceOnUse"
       id="presentation_clip_path"><rect
         id="rect4618"
         height="381470"
         width="381470"
         y="0"
         x="0" /></clipPath><clipPath
       clipPathUnits="userSpaceOnUse"
       id="presentation_clip_path_shrink"><rect
         id="rect4621"
         height="380708"
         width="380708"
         y="381"
         x="381" /></clipPath></defs><defs
     id="defs4628"
     class="TextShapeIndex"><g
       id="g4626"
       ooo:id-list="id3 id4 id5 id6 id7"
       ooo:slide="id1" /></defs><defs
     id="defs4660"
     class="EmbeddedBulletChars"><g
       transform="scale(0.00048828125,-0.00048828125)"
       id="bullet-char-template(57356)"><path
         id="path4630"
         d="M 580,1141 L 1163,571 580,0 -4,571 580,1141 Z" /></g><g
       transform="scale(0.00048828125,-0.00048828125)"
       id="bullet-char-template(57354)"><path
         id="path4633"
         d="M 8,1128 L 1137,1128 1137,0 8,0 8,1128 Z" /></g><g
       transform="scale(0.00048828125,-0.00048828125)"
       id="bullet-char-template(10146)"><path
         id="path4636"
         d="M 174,0 L 602,739 174,1481 1456,739 174,0 Z M 1358,739 L 309,1346 659,739 1358,739 Z" /></g><g
       transform="scale(0.00048828125,-0.00048828125)"
       id="bullet-char-template(10132)"><path
         id="path4639"
         d="M 2015,739 L 1276,0 717,0 1260,543 174,543 174,936 1260,936 717,1481 1274,1481 2015,739 Z" /></g><g
       transform="scale(0.00048828125,-0.00048828125)"
       id="bullet-char-template(10007)"><path
         id="path4642"
         d="M 0,-2 C -7,14 -16,27 -25,37 L 356,567 C 262,823 215,952 215,954 215,979 228,992 255,992 264,992 276,990 289,987 310,991 331,999 354,1012 L 381,999 492,748 772,1049 836,1024 860,1049 C 881,1039 901,1025 922,1006 886,937 835,863 770,784 769,783 710,716 594,584 L 774,223 C 774,196 753,168 711,139 L 727,119 C 717,90 699,76 672,76 641,76 570,178 457,381 L 164,-76 C 142,-110 111,-127 72,-127 30,-127 9,-110 8,-76 1,-67 -2,-52 -2,-32 -2,-23 -1,-13 0,-2 Z" /></g><g
       transform="scale(0.00048828125,-0.00048828125)"
       id="bullet-char-template(10004)"><path
         id="path4645"
         d="M 285,-33 C 182,-33 111,30 74,156 52,228 41,333 41,471 41,549 55,616 82,672 116,743 169,778 240,778 293,778 328,747 346,684 L 369,508 C 377,444 397,411 428,410 L 1163,1116 C 1174,1127 1196,1133 1229,1133 1271,1133 1292,1118 1292,1087 L 1292,965 C 1292,929 1282,901 1262,881 L 442,47 C 390,-6 338,-33 285,-33 Z" /></g><g
       transform="scale(0.00048828125,-0.00048828125)"
       id="bullet-char-template(9679)"><path
         id="path4648"
         d="M 813,0 C 632,0 489,54 383,161 276,268 223,411 223,592 223,773 276,916 383,1023 489,1130 632,1184 813,1184 992,1184 1136,1130 1245,1023 1353,916 1407,772 1407,592 1407,412 1353,268 1245,161 1136,54 992,0 813,0 Z" /></g><g
       transform="scale(0.00048828125,-0.00048828125)"
       id="bullet-char-template(8226)"><path
         id="path4651"
         d="M 346,457 C 273,457 209,483 155,535 101,586 74,649 74,723 74,796 101,859 155,911 209,963 273,989 346,989 419,989 480,963 531,910 582,859 608,796 608,723 608,648 583,586 532,535 482,483 420,457 346,457 Z" /></g><g
       transform="scale(0.00048828125,-0.00048828125)"
       id="bullet-char-template(8211)"><path
         id="path4654"
         d="M -4,459 L 1135,459 1135,606 -4,606 -4,459 Z" /></g><g
       transform="scale(0.00048828125,-0.00048828125)"
       id="bullet-char-template(61548)"><path
         id="path4657"
         d="M 173,740 C 173,903 231,1043 346,1159 462,1274 601,1332 765,1332 928,1332 1067,1274 1183,1159 1299,1043 1357,903 1357,740 1357,577 1299,437 1183,322 1067,206 928,148 765,148 601,148 462,206 346,322 231,437 173,577 173,740 Z" /></g></defs><defs
     id="defs4662"
     class="TextEmbeddedBitmaps" /><g
     id="g4667"><g
       class="Master_Slide"
       id="id2"><g
         class="Background"
         id="bg-id2" /><g
         class="BackgroundObjects"
         id="bo-id2" /></g></g><g
     id="g4739"
     class="SlideGroup"
     transform="matrix(0.00112722,0,0,0.00112722,0,-6.134e-4)"><g
       id="g4737"><g
         id="container-id1"><g
           clip-path="url(#presentation_clip_path)"
           class="Slide"
           id="id1"><g
             id="g4733"
             class="Page"><g
               id="g4672"
               class="com.sun.star.drawing.PolyPolygonShape"><g
                 id="id3"><rect
                   id="rect4669"
                   height="381476"
                   width="381476"
                   y="-1"
                   x="-1"
                   class="BoundingBox"
                   style="fill:none;stroke:none" /></g></g><g
               id="g4688"
               class="com.sun.star.drawing.PolyPolygonShape"><g
                 id="id4"><rect
                   id="rect4674"
                   height="381472"
                   width="381472"
                   y="0"
                   x="-1"
                   class="BoundingBox"
                   style="fill:none;stroke:none" /><g
                   id="g4685"><defs
                     id="defs4681"><linearGradient
                       gradientUnits="userSpaceOnUse"
                       y2="381471"
                       x2="190734"
                       y1="0"
                       x1="190734"
                       id="gradient1"><stop
                         id="stop4676"
                         style="stop-color:rgb(0,255,0)"
                         offset="0" /><stop
                         id="stop4678"
                         style="stop-color:rgb(0,128,63)"
                         offset="1" /></linearGradient></defs><path
                     id="path4683"
                     d="M 190735,381471 H -1 V 0 h 381471 v 381471 z"
                     style="fill:url(#gradient1)" /></g></g></g><g
               id="g4695"
               class="com.sun.star.drawing.PolyPolygonShape"><g
                 id="id5"><rect
                   id="rect4690"
                   height="381508"
                   width="381508"
                   y="-18"
                   x="-18"
                   class="BoundingBox"
                   style="fill:none;stroke:none" /><path
                   id="path4692"
                   d="M 190736,381471 H 0 V 0 h 381471 v 381471 z"
                   style="fill:none;stroke:#3465a4;stroke-width:35;stroke-linejoin:round" /></g></g><g
               id="g4713"
               class="com.sun.star.drawing.CustomShape"><g
                 id="id6"><rect
                   id="rect4697"
                   height="329562"
                   width="52323"
                   y="30639"
                   x="160637"
                   class="BoundingBox"
                   style="fill:none;stroke:none" /><g
                   id="g4708"><defs
                     id="defs4704"><linearGradient
                       gradientUnits="userSpaceOnUse"
                       y2="330333"
                       x2="264691"
                       y1="60506"
                       x1="108906"
                       id="gradient2"><stop
                         id="stop4699"
                         style="stop-color:rgb(255,0,0)"
                         offset="0" /><stop
                         id="stop4701"
                         style="stop-color:rgb(168,0,0)"
                         offset="1" /></linearGradient></defs><path
                     id="path4706"
                     d="m 186539,360199 h -25901 l 518,-329559 h 51802 l -518,329559 z"
                     style="fill:url(#gradient2)" /></g><path
                   id="path4710"
                   d="m 186539,360199 h -25901 l 518,-329559 h 51802 l -518,329559 z"
                   style="fill:none;stroke:#3465a4" /></g></g><g
               id="g4731"
               class="com.sun.star.drawing.CustomShape"><g
                 id="id7"><rect
                   id="rect4715"
                   height="52091"
                   width="329618"
                   y="162855"
                   x="22092"
                   class="BoundingBox"
                   style="fill:none;stroke:none" /><g
                   id="g4726"><defs
                     id="defs4722"><linearGradient
                       gradientUnits="userSpaceOnUse"
                       y2="279797"
                       x2="239380"
                       y1="98003"
                       x1="134420"
                       id="gradient3"><stop
                         id="stop4717"
                         style="stop-color:rgb(255,0,0)"
                         offset="0" /><stop
                         id="stop4719"
                         style="stop-color:rgb(168,0,0)"
                         offset="1" /></linearGradient></defs><path
                     id="path4724"
                     d="m 22116,188756 22,-25900 329570,288 -45,51800 -329570,-288 z"
                     style="fill:url(#gradient3)" /></g><path
                   id="path4728"
                   d="m 22116,188756 22,-25900 329570,288 -45,51800 -329570,-288 z"
                   style="fill:none;stroke:#3465a4" /></g></g></g></g></g></g></g></svg>