<?xml version="1.0" encoding="UTF-8" standalone="no"?>
<svg
   xmlns:ooo="http://xml.openoffice.org/svg/export"
   xmlns:dc="http://purl.org/dc/elements/1.1/"
   xmlns:cc="http://creativecommons.org/ns#"
   xmlns:rdf="http://www.w3.org/1999/02/22-rdf-syntax-ns#"
   xmlns:svg="http://www.w3.org/2000/svg"
   xmlns="http://www.w3.org/2000/svg"
   version="1.2"
   viewBox="0 0 430 430"
   fill-rule="evenodd"
   stroke-width="28.222"
   stroke-linejoin="round"
   xml:space="preserve"
   id="svg6749"><metadata
     id="metadata6753"><rdf:RDF><cc:Work
         rdf:about=""><dc:format>image/svg+xml</dc:format><dc:type
           rdf:resource="http://purl.org/dc/dcmitype/StillImage" /><dc:title></dc:title></cc:Work></rdf:RDF></metadata><defs
     class="ClipPathGroup"
     id="defs6580"><clipPath
       id="presentation_clip_path"
       clipPathUnits="userSpaceOnUse"><rect
         x="0"
         y="0"
         width="381470"
         height="381470"
         id="rect6574" /></clipPath><clipPath
       id="presentation_clip_path_shrink"
       clipPathUnits="userSpaceOnUse"><rect
         x="381"
         y="381"
         width="380708"
         height="380708"
         id="rect6577" /></clipPath><filter
       height="1.2862515"
       y="-0.14312574"
       width="1.2996552"
       x="-0.14982758"
       id="filter6646"
       style="color-interpolation-filters:sRGB"><feGaussianBlur
         id="feGaussianBlur6648"
         stdDeviation="168.37783" /></filter></defs><defs
     class="TextShapeIndex"
     id="defs6584"><g
       ooo:slide="id1"
       ooo:id-list="id3 id4 id5 id6 id7 id8 id9"
       id="g6582" /></defs><defs
     class="EmbeddedBulletChars"
     id="defs6616"><g
       id="bullet-char-template(57356)"
       transform="scale(0.00048828125,-0.00048828125)"><path
         d="M 580,1141 L 1163,571 580,0 -4,571 580,1141 Z"
         id="path6586" /></g><g
       id="bullet-char-template(57354)"
       transform="scale(0.00048828125,-0.00048828125)"><path
         d="M 8,1128 L 1137,1128 1137,0 8,0 8,1128 Z"
         id="path6589" /></g><g
       id="bullet-char-template(10146)"
       transform="scale(0.00048828125,-0.00048828125)"><path
         d="M 174,0 L 602,739 174,1481 1456,739 174,0 Z M 1358,739 L 309,1346 659,739 1358,739 Z"
         id="path6592" /></g><g
       id="bullet-char-template(10132)"
       transform="scale(0.00048828125,-0.00048828125)"><path
         d="M 2015,739 L 1276,0 717,0 1260,543 174,543 174,936 1260,936 717,1481 1274,1481 2015,739 Z"
         id="path6595" /></g><g
       id="bullet-char-template(10007)"
       transform="scale(0.00048828125,-0.00048828125)"><path
         d="M 0,-2 C -7,14 -16,27 -25,37 L 356,567 C 262,823 215,952 215,954 215,979 228,992 255,992 264,992 276,990 289,987 310,991 331,999 354,1012 L 381,999 492,748 772,1049 836,1024 860,1049 C 881,1039 901,1025 922,1006 886,937 835,863 770,784 769,783 710,716 594,584 L 774,223 C 774,196 753,168 711,139 L 727,119 C 717,90 699,76 672,76 641,76 570,178 457,381 L 164,-76 C 142,-110 111,-127 72,-127 30,-127 9,-110 8,-76 1,-67 -2,-52 -2,-32 -2,-23 -1,-13 0,-2 Z"
         id="path6598" /></g><g
       id="bullet-char-template(10004)"
       transform="scale(0.00048828125,-0.00048828125)"><path
         d="M 285,-33 C 182,-33 111,30 74,156 52,228 41,333 41,471 41,549 55,616 82,672 116,743 169,778 240,778 293,778 328,747 346,684 L 369,508 C 377,444 397,411 428,410 L 1163,1116 C 1174,1127 1196,1133 1229,1133 1271,1133 1292,1118 1292,1087 L 1292,965 C 1292,929 1282,901 1262,881 L 442,47 C 390,-6 338,-33 285,-33 Z"
         id="path6601" /></g><g
       id="bullet-char-template(9679)"
       transform="scale(0.00048828125,-0.00048828125)"><path
         d="M 813,0 C 632,0 489,54 383,161 276,268 223,411 223,592 223,773 276,916 383,1023 489,1130 632,1184 813,1184 992,1184 1136,1130 1245,1023 1353,916 1407,772 1407,592 1407,412 1353,268 1245,161 1136,54 992,0 813,0 Z"
         id="path6604" /></g><g
       id="bullet-char-template(8226)"
       transform="scale(0.00048828125,-0.00048828125)"><path
         d="M 346,457 C 273,457 209,483 155,535 101,586 74,649 74,723 74,796 101,859 155,911 209,963 273,989 346,989 419,989 480,963 531,910 582,859 608,796 608,723 608,648 583,586 532,535 482,483 420,457 346,457 Z"
         id="path6607" /></g><g
       id="bullet-char-template(8211)"
       transform="scale(0.00048828125,-0.00048828125)"><path
         d="M -4,459 L 1135,459 1135,606 -4,606 -4,459 Z"
         id="path6610" /></g><g
       id="bullet-char-template(61548)"
       transform="scale(0.00048828125,-0.00048828125)"><path
         d="M 173,740 C 173,903 231,1043 346,1159 462,1274 601,1332 765,1332 928,1332 1067,1274 1183,1159 1299,1043 1357,903 1357,740 1357,577 1299,437 1183,322 1067,206 928,148 765,148 601,148 462,206 346,322 231,437 173,577 173,740 Z"
         id="path6613" /></g></defs><defs
     class="TextEmbeddedBitmaps"
     id="defs6618" /><g
     id="g6623"><g
       id="id2"
       class="Master_Slide"><g
         id="bg-id2"
         class="Background" /><g
         id="bo-id2"
         class="BackgroundObjects" /></g></g><g
     transform="matrix(0.00112722,0,0,0.00112722,0,-6.134e-4)"
     class="SlideGroup"
     id="g6747"><g
       id="g6745"><g
         id="container-id1"><g
           id="id1"
           class="Slide"
           clip-path="url(#presentation_clip_path)"><g
             class="Page"
             id="g6741"><g
               class="com.sun.star.drawing.PolyPolygonShape"
               id="g6628"><g
                 id="id3"><rect
                   style="fill:none;stroke:none"
                   class="BoundingBox"
                   x="-1"
                   y="-1"
                   width="381476"
                   height="381476"
                   id="rect6625" /></g></g><g
               class="com.sun.star.drawing.PolyPolygonShape"
               id="g6644"><g
                 id="id4"><rect
                   style="fill:none;stroke:none"
                   class="BoundingBox"
                   x="0"
                   y="0"
                   width="381472"
                   height="381472"
                   id="rect6630" /><g
                   id="g6641"><defs
                     id="defs6637"><linearGradient
                       id="gradient1"
                       x1="190735"
                       y1="0"
                       x2="190735"
                       y2="381471"
                       gradientUnits="userSpaceOnUse"><stop
                         offset="0"
                         style="stop-color:rgb(0,255,0)"
                         id="stop6632" /><stop
                         offset="1"
                         style="stop-color:rgb(0,128,63)"
                         id="stop6634" /></linearGradient></defs><path
                     style="fill:url(#gradient1)"
                     d="M 190736,381471 H 0 V 0 h 381471 v 381471 z"
                     id="path6639" /></g></g></g><g
               class="com.sun.star.drawing.PolyPolygonShape"
               id="g6651"><g
                 id="id5"><rect
                   style="fill:none;stroke:none"
                   class="BoundingBox"
                   x="-18"
                   y="-18"
                   width="381508"
                   height="381508"
                   id="rect6646" /><path
                   style="fill:none;stroke:#3465a4;stroke-width:35;stroke-linejoin:round"
                   d="M 190736,381471 H 0 V 0 h 381471 v 381471 z"
                   id="path6648" /></g></g><g
               class="com.sun.star.drawing.CustomShape"
               id="g6673"><g
                 id="id6"><rect
                   style="fill:none;stroke:none"
                   class="BoundingBox"
                   x="299131"
                   y="-1301"
                   width="84992"
                   height="386004"
                   id="rect6653" /><g
                   id="g6664"><defs
                     id="defs6660"><linearGradient
                       id="gradient2"
                       x1="247583"
                       y1="28461"
                       x2="435670"
                       y2="354236"
                       gradientUnits="userSpaceOnUse"><stop
                         offset="0"
                         style="stop-color:rgb(168,101,69)"
                         id="stop6655" /><stop
                         offset="1"
                         style="stop-color:rgb(107,92,63)"
                         id="stop6657" /></linearGradient></defs><path
                     style="fill:url(#gradient2)"
                     d="m 302427,-1300 -3295,385297 82980,-74539 2009,-234811 z"
                     id="path6662" /></g><path
                   style="fill:none;stroke:#3465a4"
                   d="m 302427,-1300 -3295,385297 82980,-74539 2009,-234811 z"
                   id="path6666" /><path
                   style="fill:none;stroke:#3465a4"
                   d="M 302427,-1300 Z"
                   id="path6668" /><path
                   style="fill:none;stroke:#3465a4"
                   d="M 381469,384701 Z"
                   id="path6670" /></g></g><g
               class="com.sun.star.drawing.CustomShape"
               id="g6695"><g
                 id="id7"><rect
                   style="fill:none;stroke:none"
                   class="BoundingBox"
                   x="-2720"
                   y="-5802"
                   width="83727"
                   height="394803"
                   id="rect6675" /><g
                   id="g6686"><defs
                     id="defs6682"><linearGradient
                       id="gradient3"
                       x1="-56650"
                       y1="25335"
                       x2="134936"
                       y2="357169"
                       gradientUnits="userSpaceOnUse"><stop
                         offset="0"
                         style="stop-color:rgb(168,101,69)"
                         id="stop6677" /><stop
                         offset="1"
                         style="stop-color:rgb(107,92,63)"
                         id="stop6679" /></linearGradient></defs><path
                     style="fill:url(#gradient3)"
                     d="M 77634,-5801 81005,388305 -656,312559 -2719,71331 Z"
                     id="path6684" /></g><path
                   style="fill:none;stroke:#3465a4"
                   d="M 77634,-5801 81005,388305 -656,312559 -2719,71331 Z"
                   id="path6688" /><path
                   style="fill:none;stroke:#3465a4"
                   d="M 77634,-5801 Z"
                   id="path6690" /><path
                   style="fill:none;stroke:#3465a4"
                   d="M -2,388999 Z"
                   id="path6692" /></g></g><g
               class="com.sun.star.drawing.CustomShape"
               id="g6717"><g
                 id="id8"><rect
                   style="fill:none;stroke:none"
                   class="BoundingBox"
                   x="-3201"
                   y="306399"
                   width="384674"
                   height="75074"
                   id="rect6697" /><g
                   id="g6708"><defs
                     id="defs6704"><linearGradient
                       id="gradient4"
                       x1="189135"
                       y1="306400"
                       x2="189135"
                       y2="381471"
                       gradientUnits="userSpaceOnUse"><stop
                         offset="0"
                         style="stop-color:rgb(168,101,69)"
                         id="stop6699" /><stop
                         offset="1"
                         style="stop-color:rgb(107,92,63)"
                         id="stop6701" /></linearGradient></defs><path
                     style="fill:url(#gradient4)"
                     d="m -3200,306400 h 384671 l -82575,75071 H 79375 Z"
                     id="path6706" /></g><path
                   style="fill:none;stroke:#3465a4"
                   d="m -3200,306400 h 384671 l -82575,75071 H 79375 Z"
                   id="path6710" /><path
                   style="fill:none;stroke:#3465a4"
                   d="M -3200,306400 Z"
                   id="path6712" /><path
                   style="fill:none;stroke:#3465a4"
                   d="M 381471,381471 Z"
                   id="path6714" /></g></g><g
               class="com.sun.star.drawing.CustomShape"
               id="g6739"><g
                 id="id9"><rect
                   style="fill:none;stroke:none"
                   class="BoundingBox"
                   x="-1"
                   y="-2"
                   width="381474"
                   height="75074"
                   id="rect6719" /><g
                   id="g6730"><defs
                     id="defs6726"><linearGradient
                       id="gradient5"
                       x1="190735"
                       y1="-1"
                       x2="190735"
                       y2="75070"
                       gradientUnits="userSpaceOnUse"><stop
                         offset="0"
                         style="stop-color:rgb(168,101,69)"
                         id="stop6721" /><stop
                         offset="1"
                         style="stop-color:rgb(107,92,63)"
                         id="stop6723" /></linearGradient></defs><path
                     style="fill:url(#gradient5)"
                     d="M 0,75070 H 381471 L 301038,-1 H 80433 Z"
                     id="path6728" /></g><path
                   style="fill:none;stroke:#3465a4"
                   d="M 0,75070 H 381471 L 301038,-1 H 80433 Z"
                   id="path6732" /><path
                   style="fill:none;stroke:#3465a4"
                   d="M 0,75070 Z"
                   id="path6734" /><path
                   style="fill:none;stroke:#3465a4"
                   d="M 381471,-1 Z"
                   id="path6736" /></g></g></g></g></g></g></g><rect
     y="819.82141"
     x="901.56116"
     height="2598.6174"
     width="2545.5845"
     id="rect5178"
     style="opacity:0;fill:#87cccc;fill-opacity:0.99681526" /><rect
     y="2251.7126"
     x="1856.1553"
     height="936.9165"
     width="813.17279"
     id="rect5180"
     style="opacity:0;fill:#87cccc;fill-opacity:0.99681528" /><rect
     transform="matrix(0.12058851,0,0,0.1062782,-37.834013,6.019003)"
     y="595"
     x="750"
     height="2823.439"
     width="2697.1455"
     id="rect6548"
     style="opacity:1;fill:#4d4d4d;fill-opacity:0.76751589;filter:url(#filter6646)" /></svg>