<?xml version="1.0" encoding="UTF-8" standalone="no"?>
<svg
   xmlns:ooo="http://xml.openoffice.org/svg/export"
   xmlns:dc="http://purl.org/dc/elements/1.1/"
   xmlns:cc="http://creativecommons.org/ns#"
   xmlns:rdf="http://www.w3.org/1999/02/22-rdf-syntax-ns#"
   xmlns:svg="http://www.w3.org/2000/svg"
   xmlns="http://www.w3.org/2000/svg"
   version="1.2"
   viewBox="0 0 430 430"
   fill-rule="evenodd"
   stroke-width="28.222"
   stroke-linejoin="round"
   xml:space="preserve"
   id="svg8836"><metadata
     id="metadata8840"><rdf:RDF><cc:Work
         rdf:about=""><dc:format>image/svg+xml</dc:format><dc:type
           rdf:resource="http://purl.org/dc/dcmitype/StillImage" /><dc:title></dc:title></cc:Work></rdf:RDF></metadata><defs
     class="ClipPathGroup"
     id="defs8667"><clipPath
       id="presentation_clip_path"
       clipPathUnits="userSpaceOnUse"><rect
         x="0"
         y="0"
         width="381470"
         height="381470"
         id="rect8661" /></clipPath><clipPath
       id="presentation_clip_path_shrink"
       clipPathUnits="userSpaceOnUse"><rect
         x="381"
         y="381"
         width="380708"
         height="380708"
         id="rect8664" /></clipPath><filter
       height="1.2182071"
       y="-0.10910357"
       width="1.2234552"
       x="-0.11172761"
       id="filter8641"
       style="color-interpolation-filters:sRGB"><feGaussianBlur
         id="feGaussianBlur8643"
         stdDeviation="159.26185" /></filter></defs><defs
     class="TextShapeIndex"
     id="defs8671"><g
       ooo:slide="id1"
       ooo:id-list="id3 id4 id5 id6 id7 id8 id9"
       id="g8669" /></defs><defs
     class="EmbeddedBulletChars"
     id="defs8703"><g
       id="bullet-char-template(57356)"
       transform="scale(0.00048828125,-0.00048828125)"><path
         d="M 580,1141 L 1163,571 580,0 -4,571 580,1141 Z"
         id="path8673" /></g><g
       id="bullet-char-template(57354)"
       transform="scale(0.00048828125,-0.00048828125)"><path
         d="M 8,1128 L 1137,1128 1137,0 8,0 8,1128 Z"
         id="path8676" /></g><g
       id="bullet-char-template(10146)"
       transform="scale(0.00048828125,-0.00048828125)"><path
         d="M 174,0 L 602,739 174,1481 1456,739 174,0 Z M 1358,739 L 309,1346 659,739 1358,739 Z"
         id="path8679" /></g><g
       id="bullet-char-template(10132)"
       transform="scale(0.00048828125,-0.00048828125)"><path
         d="M 2015,739 L 1276,0 717,0 1260,543 174,543 174,936 1260,936 717,1481 1274,1481 2015,739 Z"
         id="path8682" /></g><g
       id="bullet-char-template(10007)"
       transform="scale(0.00048828125,-0.00048828125)"><path
         d="M 0,-2 C -7,14 -16,27 -25,37 L 356,567 C 262,823 215,952 215,954 215,979 228,992 255,992 264,992 276,990 289,987 310,991 331,999 354,1012 L 381,999 492,748 772,1049 836,1024 860,1049 C 881,1039 901,1025 922,1006 886,937 835,863 770,784 769,783 710,716 594,584 L 774,223 C 774,196 753,168 711,139 L 727,119 C 717,90 699,76 672,76 641,76 570,178 457,381 L 164,-76 C 142,-110 111,-127 72,-127 30,-127 9,-110 8,-76 1,-67 -2,-52 -2,-32 -2,-23 -1,-13 0,-2 Z"
         id="path8685" /></g><g
       id="bullet-char-template(10004)"
       transform="scale(0.00048828125,-0.00048828125)"><path
         d="M 285,-33 C 182,-33 111,30 74,156 52,228 41,333 41,471 41,549 55,616 82,672 116,743 169,778 240,778 293,778 328,747 346,684 L 369,508 C 377,444 397,411 428,410 L 1163,1116 C 1174,1127 1196,1133 1229,1133 1271,1133 1292,1118 1292,1087 L 1292,965 C 1292,929 1282,901 1262,881 L 442,47 C 390,-6 338,-33 285,-33 Z"
         id="path8688" /></g><g
       id="bullet-char-template(9679)"
       transform="scale(0.00048828125,-0.00048828125)"><path
         d="M 813,0 C 632,0 489,54 383,161 276,268 223,411 223,592 223,773 276,916 383,1023 489,1130 632,1184 813,1184 992,1184 1136,1130 1245,1023 1353,916 1407,772 1407,592 1407,412 1353,268 1245,161 1136,54 992,0 813,0 Z"
         id="path8691" /></g><g
       id="bullet-char-template(8226)"
       transform="scale(0.00048828125,-0.00048828125)"><path
         d="M 346,457 C 273,457 209,483 155,535 101,586 74,649 74,723 74,796 101,859 155,911 209,963 273,989 346,989 419,989 480,963 531,910 582,859 608,796 608,723 608,648 583,586 532,535 482,483 420,457 346,457 Z"
         id="path8694" /></g><g
       id="bullet-char-template(8211)"
       transform="scale(0.00048828125,-0.00048828125)"><path
         d="M -4,459 L 1135,459 1135,606 -4,606 -4,459 Z"
         id="path8697" /></g><g
       id="bullet-char-template(61548)"
       transform="scale(0.00048828125,-0.00048828125)"><path
         d="M 173,740 C 173,903 231,1043 346,1159 462,1274 601,1332 765,1332 928,1332 1067,1274 1183,1159 1299,1043 1357,903 1357,740 1357,577 1299,437 1183,322 1067,206 928,148 765,148 601,148 462,206 346,322 231,437 173,577 173,740 Z"
         id="path8700" /></g></defs><defs
     class="TextEmbeddedBitmaps"
     id="defs8705" /><g
     id="g8710"><g
       id="id2"
       class="Master_Slide"><g
         id="bg-id2"
         class="Background" /><g
         id="bo-id2"
         class="BackgroundObjects" /></g></g><g
     transform="matrix(0.00112722,0,0,0.00112068,0,2.4942004)"
     class="SlideGroup"
     id="g8834"><g
       id="g8832"><g
         id="container-id1"><g
           id="id1"
           class="Slide"
           clip-path="url(#presentation_clip_path)"><g
             class="Page"
             id="g8828"><g
               class="com.sun.star.drawing.PolyPolygonShape"
               id="g8715"><g
                 id="id3"><rect
                   style="fill:none;stroke:none"
                   class="BoundingBox"
                   x="-1"
                   y="-1"
                   width="381476"
                   height="381476"
                   id="rect8712" /></g></g><g
               class="com.sun.star.drawing.PolyPolygonShape"
               id="g8731"><g
                 id="id4"><rect
                   style="fill:none;stroke:none"
                   class="BoundingBox"
                   x="0"
                   y="0"
                   width="381472"
                   height="381472"
                   id="rect8717" /><g
                   id="g8728"><defs
                     id="defs8724"><linearGradient
                       id="gradient1"
                       x1="190735"
                       y1="0"
                       x2="190735"
                       y2="381471"
                       gradientUnits="userSpaceOnUse"><stop
                         offset="0"
                         style="stop-color:rgb(0,255,0)"
                         id="stop8719" /><stop
                         offset="1"
                         style="stop-color:rgb(0,128,63)"
                         id="stop8721" /></linearGradient></defs><path
                     style="fill:url(#gradient1)"
                     d="M 190736,381471 H 0 V 0 h 381471 v 381471 z"
                     id="path8726" /></g></g></g><g
               class="com.sun.star.drawing.PolyPolygonShape"
               id="g8738"><g
                 id="id5"><rect
                   style="fill:none;stroke:none"
                   class="BoundingBox"
                   x="-18"
                   y="-18"
                   width="381508"
                   height="381508"
                   id="rect8733" /><path
                   style="fill:none;stroke:#3465a4;stroke-width:35;stroke-linejoin:round"
                   d="M 190736,381471 H 0 V 0 h 381471 v 381471 z"
                   id="path8735" /></g></g><g
               class="com.sun.star.drawing.CustomShape"
               id="g8760"><g
                 id="id6"><rect
                   style="fill:none;stroke:none"
                   class="BoundingBox"
                   x="-3201"
                   y="306398"
                   width="384674"
                   height="75074"
                   id="rect8740" /><g
                   id="g8751"><defs
                     id="defs8747"><linearGradient
                       id="gradient2"
                       x1="189135"
                       y1="306399"
                       x2="189135"
                       y2="381470"
                       gradientUnits="userSpaceOnUse"><stop
                         offset="0"
                         style="stop-color:rgb(168,101,69)"
                         id="stop8742" /><stop
                         offset="1"
                         style="stop-color:rgb(107,92,63)"
                         id="stop8744" /></linearGradient></defs><path
                     style="fill:url(#gradient2)"
                     d="M -3200,381470 H 381471 L 298896,306399 H 79375 Z"
                     id="path8749" /></g><path
                   style="fill:none;stroke:#3465a4"
                   d="M -3200,381470 H 381471 L 298896,306399 H 79375 Z"
                   id="path8753" /><path
                   style="fill:none;stroke:#3465a4"
                   d="M -3200,381470 Z"
                   id="path8755" /><path
                   style="fill:none;stroke:#3465a4"
                   d="M 381471,306399 Z"
                   id="path8757" /></g></g><g
               class="com.sun.star.drawing.CustomShape"
               id="g8782"><g
                 id="id7"><rect
                   style="fill:none;stroke:none"
                   class="BoundingBox"
                   x="299775"
                   y="-1301"
                   width="84992"
                   height="386004"
                   id="rect8762" /><g
                   id="g8773"><defs
                     id="defs8769"><linearGradient
                       id="gradient3"
                       x1="248227"
                       y1="28461"
                       x2="436314"
                       y2="354236"
                       gradientUnits="userSpaceOnUse"><stop
                         offset="0"
                         style="stop-color:rgb(168,101,69)"
                         id="stop8764" /><stop
                         offset="1"
                         style="stop-color:rgb(107,92,63)"
                         id="stop8766" /></linearGradient></defs><path
                     style="fill:url(#gradient3)"
                     d="m 381470,-1300 3295,385297 -82980,-74539 -2009,-234811 z"
                     id="path8771" /></g><path
                   style="fill:none;stroke:#3465a4"
                   d="m 381470,-1300 3295,385297 -82980,-74539 -2009,-234811 z"
                   id="path8775" /><path
                   style="fill:none;stroke:#3465a4"
                   d="M 381470,-1300 Z"
                   id="path8777" /><path
                   style="fill:none;stroke:#3465a4"
                   d="M 302428,384701 Z"
                   id="path8779" /></g></g><g
               class="com.sun.star.drawing.CustomShape"
               id="g8804"><g
                 id="id8"><rect
                   style="fill:none;stroke:none"
                   class="BoundingBox"
                   x="-1"
                   y="-1"
                   width="381474"
                   height="75074"
                   id="rect8784" /><g
                   id="g8795"><defs
                     id="defs8791"><linearGradient
                       id="gradient4"
                       x1="190735"
                       y1="0"
                       x2="190735"
                       y2="75071"
                       gradientUnits="userSpaceOnUse"><stop
                         offset="0"
                         style="stop-color:rgb(168,101,69)"
                         id="stop8786" /><stop
                         offset="1"
                         style="stop-color:rgb(107,92,63)"
                         id="stop8788" /></linearGradient></defs><path
                     style="fill:url(#gradient4)"
                     d="M 0,0 H 381471 L 301038,75071 H 80433 Z"
                     id="path8793" /></g><path
                   style="fill:none;stroke:#3465a4"
                   d="M 0,0 H 381471 L 301038,75071 H 80433 Z"
                   id="path8797" /><path
                   style="fill:none;stroke:#3465a4"
                   d="M 0,0 Z"
                   id="path8799" /><path
                   style="fill:none;stroke:#3465a4"
                   d="M 381471,75071 Z"
                   id="path8801" /></g></g><g
               class="com.sun.star.drawing.CustomShape"
               id="g8826"><g
                 id="id9"><rect
                   style="fill:none;stroke:none"
                   class="BoundingBox"
                   x="-3373"
                   y="-5801"
                   width="83727"
                   height="394803"
                   id="rect8806" /><g
                   id="g8817"><defs
                     id="defs8813"><linearGradient
                       id="gradient5"
                       x1="-57303"
                       y1="25336"
                       x2="134283"
                       y2="357170"
                       gradientUnits="userSpaceOnUse"><stop
                         offset="0"
                         style="stop-color:rgb(168,101,69)"
                         id="stop8808" /><stop
                         offset="1"
                         style="stop-color:rgb(107,92,63)"
                         id="stop8810" /></linearGradient></defs><path
                     style="fill:url(#gradient5)"
                     d="M -1,-5800 -3372,388306 78289,312560 80352,71332 Z"
                     id="path8815" /></g><path
                   style="fill:none;stroke:#3465a4"
                   d="M -1,-5800 -3372,388306 78289,312560 80352,71332 Z"
                   id="path8819" /><path
                   style="fill:none;stroke:#3465a4"
                   d="M -1,-5800 Z"
                   id="path8821" /><path
                   style="fill:none;stroke:#3465a4"
                   d="M 77635,389000 Z"
                   id="path8823" /></g></g></g></g></g></g></g><rect
     y="365.86536"
     x="476.85214"
     height="3503.3542"
     width="3421.0742"
     id="rect8555"
     style="opacity:1;fill:#f9f9f9;fill-opacity:0.76751589;filter:url(#filter8641)"
     transform="matrix(0.0995367,0,0,0.09895958,-0.8797886,1.6195136)" /><rect
     y="86.624664"
     x="90.665222"
     height="262.67249"
     width="249.51117"
     id="rect8645"
     style="opacity:1;fill:#f9f9f9;fill-opacity:0.76751589;stroke-width:2.80096936" /></svg>