<?xml version="1.0" encoding="UTF-8" standalone="no"?>
<svg
   xmlns:ooo="http://xml.openoffice.org/svg/export"
   xmlns:dc="http://purl.org/dc/elements/1.1/"
   xmlns:cc="http://creativecommons.org/ns#"
   xmlns:rdf="http://www.w3.org/1999/02/22-rdf-syntax-ns#"
   xmlns:svg="http://www.w3.org/2000/svg"
   xmlns="http://www.w3.org/2000/svg"
   id="svg369"
   xml:space="preserve"
   stroke-linejoin="round"
   stroke-width="28.222"
   fill-rule="evenodd"
   viewBox="0 0 430 430"
   version="1.2"><metadata
     id="metadata373"><rdf:RDF><cc:Work
         rdf:about=""><dc:format>image/svg+xml</dc:format><dc:type
           rdf:resource="http://purl.org/dc/dcmitype/StillImage" /><dc:title></dc:title></cc:Work></rdf:RDF></metadata><defs
     id="defs8"
     class="ClipPathGroup"><clipPath
       clipPathUnits="userSpaceOnUse"
       id="presentation_clip_path"><rect
         id="rect2"
         height="244141"
         width="244141"
         y="0"
         x="0" /></clipPath><clipPath
       clipPathUnits="userSpaceOnUse"
       id="presentation_clip_path_shrink"><rect
         id="rect5"
         height="243653"
         width="243653"
         y="244"
         x="244" /></clipPath></defs><defs
     id="defs12"
     class="TextShapeIndex"><g
       id="g10"
       ooo:id-list="id3 id4 id5 id6 id7 id8 id9 id10 id11 id12 id13 id14 id15 id16 id17 id18 id19 id20 id21 id22 id23 id24 id25 id26 id27 id28 id29 id30 id31 id32 id33 id34 id35 id36 id37 id38 id39 id40 id41 id42 id43 id44 id45 id46"
       ooo:slide="id1" /></defs><defs
     id="defs44"
     class="EmbeddedBulletChars"><g
       transform="scale(0.00048828125,-0.00048828125)"
       id="bullet-char-template(57356)"><path
         id="path14"
         d="M 580,1141 L 1163,571 580,0 -4,571 580,1141 Z" /></g><g
       transform="scale(0.00048828125,-0.00048828125)"
       id="bullet-char-template(57354)"><path
         id="path17"
         d="M 8,1128 L 1137,1128 1137,0 8,0 8,1128 Z" /></g><g
       transform="scale(0.00048828125,-0.00048828125)"
       id="bullet-char-template(10146)"><path
         id="path20"
         d="M 174,0 L 602,739 174,1481 1456,739 174,0 Z M 1358,739 L 309,1346 659,739 1358,739 Z" /></g><g
       transform="scale(0.00048828125,-0.00048828125)"
       id="bullet-char-template(10132)"><path
         id="path23"
         d="M 2015,739 L 1276,0 717,0 1260,543 174,543 174,936 1260,936 717,1481 1274,1481 2015,739 Z" /></g><g
       transform="scale(0.00048828125,-0.00048828125)"
       id="bullet-char-template(10007)"><path
         id="path26"
         d="M 0,-2 C -7,14 -16,27 -25,37 L 356,567 C 262,823 215,952 215,954 215,979 228,992 255,992 264,992 276,990 289,987 310,991 331,999 354,1012 L 381,999 492,748 772,1049 836,1024 860,1049 C 881,1039 901,1025 922,1006 886,937 835,863 770,784 769,783 710,716 594,584 L 774,223 C 774,196 753,168 711,139 L 727,119 C 717,90 699,76 672,76 641,76 570,178 457,381 L 164,-76 C 142,-110 111,-127 72,-127 30,-127 9,-110 8,-76 1,-67 -2,-52 -2,-32 -2,-23 -1,-13 0,-2 Z" /></g><g
       transform="scale(0.00048828125,-0.00048828125)"
       id="bullet-char-template(10004)"><path
         id="path29"
         d="M 285,-33 C 182,-33 111,30 74,156 52,228 41,333 41,471 41,549 55,616 82,672 116,743 169,778 240,778 293,778 328,747 346,684 L 369,508 C 377,444 397,411 428,410 L 1163,1116 C 1174,1127 1196,1133 1229,1133 1271,1133 1292,1118 1292,1087 L 1292,965 C 1292,929 1282,901 1262,881 L 442,47 C 390,-6 338,-33 285,-33 Z" /></g><g
       transform="scale(0.00048828125,-0.00048828125)"
       id="bullet-char-template(9679)"><path
         id="path32"
         d="M 813,0 C 632,0 489,54 383,161 276,268 223,411 223,592 223,773 276,916 383,1023 489,1130 632,1184 813,1184 992,1184 1136,1130 1245,1023 1353,916 1407,772 1407,592 1407,412 1353,268 1245,161 1136,54 992,0 813,0 Z" /></g><g
       transform="scale(0.00048828125,-0.00048828125)"
       id="bullet-char-template(8226)"><path
         id="path35"
         d="M 346,457 C 273,457 209,483 155,535 101,586 74,649 74,723 74,796 101,859 155,911 209,963 273,989 346,989 419,989 480,963 531,910 582,859 608,796 608,723 608,648 583,586 532,535 482,483 420,457 346,457 Z" /></g><g
       transform="scale(0.00048828125,-0.00048828125)"
       id="bullet-char-template(8211)"><path
         id="path38"
         d="M -4,459 L 1135,459 1135,606 -4,606 -4,459 Z" /></g><g
       transform="scale(0.00048828125,-0.00048828125)"
       id="bullet-char-template(61548)"><path
         id="path41"
         d="M 173,740 C 173,903 231,1043 346,1159 462,1274 601,1332 765,1332 928,1332 1067,1274 1183,1159 1299,1043 1357,903 1357,740 1357,577 1299,437 1183,322 1067,206 928,148 765,148 601,148 462,206 346,322 231,437 173,577 173,740 Z" /></g></defs><defs
     id="defs46"
     class="TextEmbeddedBitmaps" /><g
     id="g51"
     transform="matrix(0.00186435,0,0,0.00178838,-0.13172775,7.3321788)"><g
       class="Master_Slide"
       id="id2"><g
         class="Background"
         id="bg-id2" /><g
         class="BackgroundObjects"
         id="bo-id2" /></g></g><g
     transform="matrix(-0.00221932,0,0,0.00166842,460.20657,-5.5842123)"
     id="g367"
     class="SlideGroup"><g
       id="g365"
       transform="translate(995.66926,625.95852)"><g
         id="container-id1"><g
           clip-path="url(#presentation_clip_path)"
           class="Slide"
           id="id1"><g
             id="g361"
             class="Page"><g
               id="g56"
               class="com.sun.star.drawing.PolyPolygonShape"><g
                 id="id3"><rect
                   style="fill:none;stroke:none"
                   id="rect53"
                   height="70128"
                   width="98337"
                   y="157320"
                   x="82091"
                   class="BoundingBox" /></g></g><g
               id="g61"
               class="com.sun.star.drawing.PolyPolygonShape"><g
                 id="id4"><rect
                   style="fill:none;stroke:none"
                   id="rect58"
                   height="69897"
                   width="98099"
                   y="157436"
                   x="82208"
                   class="BoundingBox" /></g></g><g
               id="g77"
               class="com.sun.star.drawing.PolyPolygonShape"><g
                 id="id5"><rect
                   style="fill:none;stroke:none"
                   id="rect63"
                   height="69894"
                   width="98098"
                   y="157435"
                   x="82208"
                   class="BoundingBox" /><g
                   id="g74"><defs
                     id="defs70"><linearGradient
                       gradientUnits="userSpaceOnUse"
                       y2="227328"
                       x2="131256"
                       y1="157436"
                       x1="131256"
                       id="gradient1"><stop
                         id="stop65"
                         style="stop-color:rgb(174,174,174)"
                         offset="0" /><stop
                         id="stop67"
                         style="stop-color:rgb(255,255,255)"
                         offset="1" /></linearGradient></defs><path
                     id="path72"
                     d="m 82208,157436 h 98097 v 69892 H 82208 Z"
                     style="fill:url(#gradient1)" /></g></g></g><g
               id="g82"
               class="com.sun.star.drawing.PolyPolygonShape"><g
                 id="id6"><rect
                   style="fill:none;stroke:none"
                   id="rect79"
                   height="70127"
                   width="98333"
                   y="157320"
                   x="82090"
                   class="BoundingBox" /></g></g><g
               id="g89"
               class="com.sun.star.drawing.PolyPolygonShape"><g
                 id="id7"><rect
                   style="fill:none;stroke:none"
                   id="rect84"
                   height="70125"
                   width="98330"
                   y="157320"
                   x="82092"
                   class="BoundingBox" /><path
                   style="fill:none;stroke:#000000;stroke-width:231;stroke-linejoin:miter"
                   id="path86"
                   d="m 82208,157436 h 98097 v 69892 H 82208 Z" /></g></g><g
               id="g94"
               class="com.sun.star.drawing.PolyPolygonShape"><g
                 id="id8"><rect
                   style="fill:none;stroke:none"
                   id="rect91"
                   height="91923"
                   width="144526"
                   y="69699"
                   x="59032"
                   class="BoundingBox" /></g></g><g
               id="g99"
               class="com.sun.star.drawing.PolyPolygonShape"><g
                 id="id9"><rect
                   style="fill:none;stroke:none"
                   id="rect96"
                   height="91689"
                   width="144293"
                   y="70689"
                   x="59585"
                   class="BoundingBox" /></g></g><g
               id="g115"
               class="com.sun.star.drawing.PolyPolygonShape"><g
                 id="id10"><rect
                   style="fill:none;stroke:none"
                   id="rect101"
                   height="91687"
                   width="144292"
                   y="70690"
                   x="59585"
                   class="BoundingBox" /><g
                   id="g112"><defs
                     id="defs108"><linearGradient
                       gradientUnits="userSpaceOnUse"
                       y2="162376"
                       x2="131730"
                       y1="70690"
                       x1="131730"
                       id="gradient2"><stop
                         id="stop103"
                         style="stop-color:rgb(174,174,174)"
                         offset="0" /><stop
                         id="stop105"
                         style="stop-color:rgb(255,255,255)"
                         offset="1" /></linearGradient></defs><path
                     id="path110"
                     d="m 59585,70690 h 144291 v 91686 H 59585 Z"
                     style="fill:url(#gradient2)" /></g></g></g><g
               id="g120"
               class="com.sun.star.drawing.PolyPolygonShape"><g
                 id="id11"><rect
                   style="fill:none;stroke:none"
                   id="rect117"
                   height="91921"
                   width="144526"
                   y="69700"
                   x="59032"
                   class="BoundingBox" /></g></g><g
               id="g127"
               class="com.sun.star.drawing.PolyPolygonShape"><g
                 id="id12"><rect
                   style="fill:none;stroke:none"
                   id="rect122"
                   height="91919"
                   width="144524"
                   y="69700"
                   x="59033"
                   class="BoundingBox" /><path
                   style="fill:none;stroke:#000000;stroke-width:231;stroke-linejoin:miter"
                   id="path124"
                   d="m 59149,69816 h 144291 v 91686 H 59149 Z" /></g></g><g
               id="g132"
               class="com.sun.star.drawing.PolyPolygonShape"><g
                 id="id13"><rect
                   style="fill:none;stroke:none"
                   id="rect129"
                   height="90298"
                   width="76551"
                   y="71473"
                   x="91781"
                   class="BoundingBox" /></g></g><g
               id="g137"
               class="com.sun.star.drawing.PolyPolygonShape"><g
                 id="id14"><rect
                   style="fill:none;stroke:none"
                   id="rect134"
                   height="90063"
                   width="76318"
                   y="71588"
                   x="91898"
                   class="BoundingBox" /></g></g><g
               id="g142"
               class="com.sun.star.drawing.PolyPolygonShape"><g
                 id="id15"><rect
                   style="fill:none;stroke:none"
                   id="rect139"
                   height="90297"
                   width="76551"
                   y="71470"
                   x="91781"
                   class="BoundingBox" /></g></g><g
               id="g158"
               class="com.sun.star.drawing.PolyPolygonShape"><g
                 id="id16"><rect
                   style="fill:none;stroke:none"
                   id="rect144"
                   height="90062"
                   width="76317"
                   y="71588"
                   x="91898"
                   class="BoundingBox" /><g
                   id="g155"><defs
                     id="defs151"><linearGradient
                       gradientUnits="userSpaceOnUse"
                       y2="161649"
                       x2="130056"
                       y1="71588"
                       x1="130056"
                       id="gradient3"><stop
                         id="stop146"
                         style="stop-color:rgb(0,255,255)"
                         offset="0" /><stop
                         id="stop148"
                         style="stop-color:rgb(0,63,128)"
                         offset="1" /></linearGradient></defs><path
                     id="path153"
                     d="m 91898,71588 v 90061 h 76316 V 71588 h -19755 v 34504 H 110602 V 71588 Z"
                     style="fill:url(#gradient3)" /></g></g></g><g
               id="g165"
               class="com.sun.star.drawing.PolyPolygonShape"><g
                 id="id17"><rect
                   style="fill:none;stroke:none"
                   id="rect160"
                   height="90294"
                   width="76549"
                   y="71472"
                   x="91782"
                   class="BoundingBox" /><path
                   style="fill:none;stroke:#000000;stroke-width:231;stroke-linejoin:miter"
                   id="path162"
                   d="m 91898,71588 v 90061 h 76316 V 71588 h -19755 v 34504 H 110602 V 71588 Z" /></g></g><g
               id="g170"
               class="com.sun.star.drawing.PolyPolygonShape"><g
                 id="id18"><rect
                   style="fill:none;stroke:none"
                   id="rect167"
                   height="58973"
                   width="73172"
                   y="23376"
                   x="94636"
                   class="BoundingBox" /></g></g><g
               id="g175"
               class="com.sun.star.drawing.PolyPolygonShape"><g
                 id="id19"><rect
                   style="fill:none;stroke:none"
                   id="rect172"
                   height="58739"
                   width="72937"
                   y="23491"
                   x="94751"
                   class="BoundingBox" /></g></g><g
               id="g182"
               class="com.sun.star.drawing.PolyPolygonShape"><g
                 id="id20"><rect
                   style="fill:none;stroke:none"
                   id="rect177"
                   height="58737"
                   width="72936"
                   y="23493"
                   x="94751"
                   class="BoundingBox" /><path
                   style="fill:#ffffff;stroke:none"
                   id="path179"
                   d="m 94751,23493 h 72935 V 82229 H 94751 Z" /></g></g><g
               id="g187"
               class="com.sun.star.drawing.PolyPolygonShape"><g
                 id="id21"><rect
                   style="fill:none;stroke:none"
                   id="rect184"
                   height="58971"
                   width="73169"
                   y="23376"
                   x="94635"
                   class="BoundingBox" /></g></g><g
               id="g194"
               class="com.sun.star.drawing.PolyPolygonShape"><g
                 id="id22"><rect
                   style="fill:none;stroke:none"
                   id="rect189"
                   height="58969"
                   width="73168"
                   y="23377"
                   x="94635"
                   class="BoundingBox" /><path
                   style="fill:none;stroke:#000000;stroke-width:231;stroke-linejoin:miter"
                   id="path191"
                   d="m 94751,23493 h 72935 V 82229 H 94751 Z" /></g></g><g
               id="g199"
               class="com.sun.star.drawing.PolyPolygonShape"><g
                 id="id23"><rect
                   style="fill:none;stroke:none"
                   id="rect196"
                   height="27280"
                   width="142575"
                   y="214650"
                   x="60009"
                   class="BoundingBox" /></g></g><g
               id="g204"
               class="com.sun.star.drawing.PolyPolygonShape"><g
                 id="id24"><rect
                   style="fill:none;stroke:none"
                   id="rect201"
                   height="27044"
                   width="142342"
                   y="214768"
                   x="60124"
                   class="BoundingBox" /></g></g><g
               id="g220"
               class="com.sun.star.drawing.PolyPolygonShape"><g
                 id="id25"><rect
                   style="fill:none;stroke:none"
                   id="rect206"
                   height="27043"
                   width="142340"
                   y="214768"
                   x="60124"
                   class="BoundingBox" /><g
                   id="g217"><defs
                     id="defs213"><linearGradient
                       gradientUnits="userSpaceOnUse"
                       y2="241809"
                       x2="131294"
                       y1="214768"
                       x1="131294"
                       id="gradient4"><stop
                         id="stop208"
                         style="stop-color:rgb(139,139,139)"
                         offset="0" /><stop
                         id="stop210"
                         style="stop-color:rgb(206,197,197)"
                         offset="1" /></linearGradient></defs><path
                     id="path215"
                     d="m 60125,214768 h 142338 v 27041 H 60125 Z"
                     style="fill:url(#gradient4)" /></g></g></g><g
               id="g225"
               class="com.sun.star.drawing.PolyPolygonShape"><g
                 id="id26"><rect
                   style="fill:none;stroke:none"
                   id="rect222"
                   height="27276"
                   width="142573"
                   y="214651"
                   x="60009"
                   class="BoundingBox" /></g></g><g
               id="g232"
               class="com.sun.star.drawing.PolyPolygonShape"><g
                 id="id27"><rect
                   style="fill:none;stroke:none"
                   id="rect227"
                   height="27274"
                   width="142571"
                   y="214652"
                   x="60009"
                   class="BoundingBox" /><path
                   style="fill:none;stroke:#000000;stroke-width:231;stroke-linejoin:miter"
                   id="path229"
                   d="m 60125,214768 h 142338 v 27041 H 60125 Z" /></g></g><g
               id="g237"
               class="com.sun.star.drawing.PolyPolygonShape"><g
                 id="id28"><rect
                   style="fill:none;stroke:none"
                   id="rect234"
                   height="59707"
                   width="238"
                   y="180486"
                   x="131139"
                   class="BoundingBox" /></g></g><g
               id="g242"
               class="com.sun.star.drawing.PolyPolygonShape"><g
                 id="id29"><rect
                   style="fill:none;stroke:none"
                   id="rect239"
                   height="59699"
                   width="236"
                   y="180486"
                   x="131140"
                   class="BoundingBox" /></g></g><g
               id="g249"
               class="com.sun.star.drawing.LineShape"><g
                 id="id30"><rect
                   style="fill:none;stroke:none"
                   id="rect244"
                   height="59696"
                   width="233"
                   y="180486"
                   x="131140"
                   class="BoundingBox" /><path
                   style="fill:none;stroke:#000000;stroke-width:231;stroke-linejoin:miter"
                   id="path246"
                   d="M 131256,240181 V 180486" /></g></g><g
               id="g254"
               class="com.sun.star.drawing.PolyPolygonShape"><g
                 id="id31"><rect
                   style="fill:none;stroke:none"
                   id="rect251"
                   height="57338"
                   width="240"
                   y="101286"
                   x="88851"
                   class="BoundingBox" /></g></g><g
               id="g259"
               class="com.sun.star.drawing.PolyPolygonShape"><g
                 id="id32"><rect
                   style="fill:none;stroke:none"
                   id="rect256"
                   height="57334"
                   width="236"
                   y="101288"
                   x="88853"
                   class="BoundingBox" /></g></g><g
               id="g266"
               class="com.sun.star.drawing.LineShape"><g
                 id="id33"><rect
                   style="fill:none;stroke:none"
                   id="rect261"
                   height="57332"
                   width="233"
                   y="101288"
                   x="88853"
                   class="BoundingBox" /><path
                   style="fill:none;stroke:#000000;stroke-width:231;stroke-linejoin:miter"
                   id="path263"
                   d="M 88969,158619 V 101288" /></g></g><g
               id="g271"
               class="com.sun.star.drawing.PolyPolygonShape"><g
                 id="id34"><rect
                   style="fill:none;stroke:none"
                   id="rect268"
                   height="57338"
                   width="241"
                   y="101286"
                   x="173425"
                   class="BoundingBox" /></g></g><g
               id="g276"
               class="com.sun.star.drawing.PolyPolygonShape"><g
                 id="id35"><rect
                   style="fill:none;stroke:none"
                   id="rect273"
                   height="57334"
                   width="236"
                   y="101288"
                   x="173428"
                   class="BoundingBox" /></g></g><g
               id="g283"
               class="com.sun.star.drawing.LineShape"><g
                 id="id36"><rect
                   style="fill:none;stroke:none"
                   id="rect278"
                   height="57332"
                   width="233"
                   y="101288"
                   x="173428"
                   class="BoundingBox" /><path
                   style="fill:none;stroke:#000000;stroke-width:231;stroke-linejoin:miter"
                   id="path280"
                   d="M 173544,158619 V 101288" /></g></g><g
               id="g288"
               class="com.sun.star.drawing.PolyPolygonShape"><g
                 id="id37"><rect
                   style="fill:none;stroke:none"
                   id="rect285"
                   height="160607"
                   width="73676"
                   y="11103"
                   x="21575"
                   class="BoundingBox" /></g></g><g
               id="g293"
               class="com.sun.star.drawing.PolyPolygonShape"><g
                 id="id38"><rect
                   style="fill:none;stroke:none"
                   id="rect290"
                   height="160323"
                   width="73387"
                   y="11245"
                   x="21719"
                   class="BoundingBox" /></g></g><g
               id="g298"
               class="com.sun.star.drawing.PolyPolygonShape"><g
                 id="id39"><rect
                   style="fill:none;stroke:none"
                   id="rect295"
                   height="160604"
                   width="73672"
                   y="11104"
                   x="21576"
                   class="BoundingBox" /></g></g><g
               id="g314"
               class="com.sun.star.drawing.PolyPolygonShape"><g
                 id="id40"><rect
                   style="fill:none;stroke:none"
                   id="rect300"
                   height="160321"
                   width="73386"
                   y="11245"
                   x="21719"
                   class="BoundingBox" /><g
                   id="g311"><defs
                     id="defs307"><linearGradient
                       gradientUnits="userSpaceOnUse"
                       y2="171565"
                       x2="58411"
                       y1="11245"
                       x1="58411"
                       id="gradient5"><stop
                         id="stop302"
                         style="stop-color:rgb(0,255,255)"
                         offset="0" /><stop
                         id="stop304"
                         style="stop-color:rgb(0,63,128)"
                         offset="1" /></linearGradient></defs><path
                     id="path309"
                     d="m 21719,17155 31698,118061 -12093,3176 6760,25045 12093,-3102 3004,11230 22835,-5985 -3005,-11155 12093,-3177 -6759,-25045 -12093,3103 L 44554,11245 Z"
                     style="fill:url(#gradient5)" /></g></g></g><g
               id="g321"
               class="com.sun.star.drawing.PolyPolygonShape"><g
                 id="id41"><rect
                   style="fill:none;stroke:none"
                   id="rect316"
                   height="160603"
                   width="73670"
                   y="11104"
                   x="21577"
                   class="BoundingBox" /><path
                   style="fill:none;stroke:#000000;stroke-width:231;stroke-linejoin:miter"
                   id="path318"
                   d="m 21719,17155 31698,118061 -12093,3176 6760,25045 12093,-3102 3004,11230 22835,-5985 -3005,-11155 12093,-3177 -6759,-25045 -12093,3103 L 44554,11245 Z" /></g></g><g
               id="g326"
               class="com.sun.star.drawing.PolyPolygonShape"><g
                 id="id42"><rect
                   style="fill:none;stroke:none"
                   id="rect323"
                   height="58307"
                   width="86617"
                   y="3948"
                   x="87575"
                   class="BoundingBox" /></g></g><g
               id="g331"
               class="com.sun.star.drawing.PolyPolygonShape"><g
                 id="id43"><rect
                   style="fill:none;stroke:none"
                   id="rect328"
                   height="58074"
                   width="86382"
                   y="4061"
                   x="87691"
                   class="BoundingBox" /></g></g><g
               id="g347"
               class="com.sun.star.drawing.PolyPolygonShape"><g
                 id="id44"><rect
                   style="fill:none;stroke:none"
                   id="rect333"
                   height="58072"
                   width="86381"
                   y="4063"
                   x="87691"
                   class="BoundingBox" /><g
                   id="g344"><defs
                     id="defs340"><linearGradient
                       gradientUnits="userSpaceOnUse"
                       y2="62134"
                       x2="130881"
                       y1="4063"
                       x1="130881"
                       id="gradient6"><stop
                         id="stop335"
                         style="stop-color:rgb(0,0,168)"
                         offset="0" /><stop
                         id="stop337"
                         style="stop-color:rgb(0,255,255)"
                         offset="1" /></linearGradient></defs><path
                     id="path342"
                     d="m 87691,4063 v 37902 h 30572 v 20169 h 25312 V 41965 h 30496 V 4063 Z"
                     style="fill:url(#gradient6)" /></g></g></g><g
               id="g352"
               class="com.sun.star.drawing.PolyPolygonShape"><g
                 id="id45"><rect
                   style="fill:none;stroke:none"
                   id="rect349"
                   height="58307"
                   width="86614"
                   y="3945"
                   x="87575"
                   class="BoundingBox" /></g></g><g
               id="g359"
               class="com.sun.star.drawing.PolyPolygonShape"><g
                 id="id46"><rect
                   style="fill:none;stroke:none"
                   id="rect354"
                   height="58304"
                   width="86613"
                   y="3947"
                   x="87575"
                   class="BoundingBox" /><path
                   style="fill:none;stroke:#000000;stroke-width:231;stroke-linejoin:miter"
                   id="path356"
                   d="m 87691,4063 v 37902 h 30572 v 20169 h 25312 V 41965 h 30496 V 4063 Z" /></g></g></g></g></g></g></g></svg>