<?xml version="1.0" encoding="UTF-8" standalone="no"?>
<svg
   xmlns:ooo="http://xml.openoffice.org/svg/export"
   xmlns:dc="http://purl.org/dc/elements/1.1/"
   xmlns:cc="http://creativecommons.org/ns#"
   xmlns:rdf="http://www.w3.org/1999/02/22-rdf-syntax-ns#"
   xmlns:svg="http://www.w3.org/2000/svg"
   xmlns="http://www.w3.org/2000/svg"
   xmlns:sodipodi="http://sodipodi.sourceforge.net/DTD/sodipodi-0.dtd"
   xmlns:inkscape="http://www.inkscape.org/namespaces/inkscape"
   id="svg99"
   xml:space="preserve"
   stroke-linejoin="round"
   stroke-width="28.222"
   fill-rule="evenodd"
   viewBox="0 0 430 430"
   version="1.2"
   sodipodi:docname="zakaz.svg"
   inkscape:version="0.92.1 r15371"><sodipodi:namedview
     pagecolor="#ffffff"
     bordercolor="#666666"
     borderopacity="1"
     objecttolerance="10"
     gridtolerance="10"
     guidetolerance="10"
     inkscape:pageopacity="0"
     inkscape:pageshadow="2"
     inkscape:window-width="1366"
     inkscape:window-height="705"
     id="namedview63"
     showgrid="false"
     inkscape:zoom="0.32"
     inkscape:cx="1134.9069"
     inkscape:cy="-1045.4747"
     inkscape:window-x="-8"
     inkscape:window-y="-8"
     inkscape:window-maximized="1"
     inkscape:current-layer="svg99" /><metadata
     id="metadata103"><rdf:RDF><cc:Work
         rdf:about=""><dc:format>image/svg+xml</dc:format><dc:type
           rdf:resource="http://purl.org/dc/dcmitype/StillImage" /><dc:title></dc:title></cc:Work></rdf:RDF></metadata><defs
     id="defs8"
     class="ClipPathGroup"><clipPath
       clipPathUnits="userSpaceOnUse"
       id="presentation_clip_path"><rect
         id="rect2"
         height="381470"
         width="381470"
         y="0"
         x="0" /></clipPath><clipPath
       clipPathUnits="userSpaceOnUse"
       id="presentation_clip_path_shrink"><rect
         id="rect5"
         height="380708"
         width="380708"
         y="381"
         x="381" /></clipPath></defs><defs
     id="defs12"
     class="TextShapeIndex"><g
       id="g10"
       ooo:id-list="id3 id4 id5"
       ooo:slide="id1" /></defs><defs
     id="defs44"
     class="EmbeddedBulletChars"><g
       transform="scale(0.00048828125,-0.00048828125)"
       id="bullet-char-template(57356)"><path
         id="path14"
         d="M 580,1141 L 1163,571 580,0 -4,571 580,1141 Z" /></g><g
       transform="scale(0.00048828125,-0.00048828125)"
       id="bullet-char-template(57354)"><path
         id="path17"
         d="M 8,1128 L 1137,1128 1137,0 8,0 8,1128 Z" /></g><g
       transform="scale(0.00048828125,-0.00048828125)"
       id="bullet-char-template(10146)"><path
         id="path20"
         d="M 174,0 L 602,739 174,1481 1456,739 174,0 Z M 1358,739 L 309,1346 659,739 1358,739 Z" /></g><g
       transform="scale(0.00048828125,-0.00048828125)"
       id="bullet-char-template(10132)"><path
         id="path23"
         d="M 2015,739 L 1276,0 717,0 1260,543 174,543 174,936 1260,936 717,1481 1274,1481 2015,739 Z" /></g><g
       transform="scale(0.00048828125,-0.00048828125)"
       id="bullet-char-template(10007)"><path
         id="path26"
         d="M 0,-2 C -7,14 -16,27 -25,37 L 356,567 C 262,823 215,952 215,954 215,979 228,992 255,992 264,992 276,990 289,987 310,991 331,999 354,1012 L 381,999 492,748 772,1049 836,1024 860,1049 C 881,1039 901,1025 922,1006 886,937 835,863 770,784 769,783 710,716 594,584 L 774,223 C 774,196 753,168 711,139 L 727,119 C 717,90 699,76 672,76 641,76 570,178 457,381 L 164,-76 C 142,-110 111,-127 72,-127 30,-127 9,-110 8,-76 1,-67 -2,-52 -2,-32 -2,-23 -1,-13 0,-2 Z" /></g><g
       transform="scale(0.00048828125,-0.00048828125)"
       id="bullet-char-template(10004)"><path
         id="path29"
         d="M 285,-33 C 182,-33 111,30 74,156 52,228 41,333 41,471 41,549 55,616 82,672 116,743 169,778 240,778 293,778 328,747 346,684 L 369,508 C 377,444 397,411 428,410 L 1163,1116 C 1174,1127 1196,1133 1229,1133 1271,1133 1292,1118 1292,1087 L 1292,965 C 1292,929 1282,901 1262,881 L 442,47 C 390,-6 338,-33 285,-33 Z" /></g><g
       transform="scale(0.00048828125,-0.00048828125)"
       id="bullet-char-template(9679)"><path
         id="path32"
         d="M 813,0 C 632,0 489,54 383,161 276,268 223,411 223,592 223,773 276,916 383,1023 489,1130 632,1184 813,1184 992,1184 1136,1130 1245,1023 1353,916 1407,772 1407,592 1407,412 1353,268 1245,161 1136,54 992,0 813,0 Z" /></g><g
       transform="scale(0.00048828125,-0.00048828125)"
       id="bullet-char-template(8226)"><path
         id="path35"
         d="M 346,457 C 273,457 209,483 155,535 101,586 74,649 74,723 74,796 101,859 155,911 209,963 273,989 346,989 419,989 480,963 531,910 582,859 608,796 608,723 608,648 583,586 532,535 482,483 420,457 346,457 Z" /></g><g
       transform="scale(0.00048828125,-0.00048828125)"
       id="bullet-char-template(8211)"><path
         id="path38"
         d="M -4,459 L 1135,459 1135,606 -4,606 -4,459 Z" /></g><g
       transform="scale(0.00048828125,-0.00048828125)"
       id="bullet-char-template(61548)"><path
         id="path41"
         d="M 173,740 C 173,903 231,1043 346,1159 462,1274 601,1332 765,1332 928,1332 1067,1274 1183,1159 1299,1043 1357,903 1357,740 1357,577 1299,437 1183,322 1067,206 928,148 765,148 601,148 462,206 346,322 231,437 173,577 173,740 Z" /></g></defs><defs
     id="defs46"
     class="TextEmbeddedBitmaps" /><g
     id="g51"
     transform="scale(0.00112722,0.00112722)"><g
       class="Master_Slide"
       id="id2"><g
         class="Background"
         id="bg-id2" /><g
         class="BackgroundObjects"
         id="bo-id2" /></g></g><g
     id="g97"
     class="SlideGroup"
     transform="scale(0.00112722,0.00112722)"><g
       id="g95"><g
         id="container-id1"><g
           clip-path="url(#presentation_clip_path)"
           class="Slide"
           id="id1"><g
             id="g91"
             class="Page"><g
               id="g56"
               class="com.sun.star.drawing.PolyPolygonShape"><g
                 id="id3"><rect
                   id="rect53"
                   height="381476"
                   width="381476"
                   y="-1"
                   x="-1"
                   class="BoundingBox"
                   style="fill:none;stroke:none" /></g></g><g
               id="g63"
               class="com.sun.star.drawing.PolyPolygonShape"><g
                 id="id4"><rect
                   id="rect58"
                   height="381508"
                   width="381508"
                   y="-18"
                   x="-18"
                   class="BoundingBox"
                   style="fill:none;stroke:none" /><path
                   id="path60"
                   d="M 190736,381471 H 0 V 0 h 381471 v 381471 z"
                   inkscape:connector-curvature="0"
                   style="fill:none;stroke:#3465a4;stroke-width:35;stroke-linejoin:round" /></g></g><g
               id="g89"
               class="com.sun.star.drawing.CustomShape"><g
                 id="id5"><rect
                   id="rect65"
                   height="381474"
                   width="381474"
                   y="-1"
                   x="-1"
                   class="BoundingBox"
                   style="fill:none;stroke:none" /><g
                   id="g76"><defs
                     id="defs72"><linearGradient
                       gradientUnits="userSpaceOnUse"
                       y2="242193"
                       x2="413625"
                       y1="139277"
                       x1="-32155"
                       id="gradient1"><stop
                         id="stop67"
                         style="stop-color:rgb(255,0,0)"
                         offset="0" /><stop
                         id="stop69"
                         style="stop-color:rgb(128,0,0)"
                         offset="1" /></linearGradient></defs><path
                     id="path74"
                     d="m 190735,0 19964,954 19282,2806 18515,4575 17666,6259 16732,7861 15716,9379 14616,10814 13432,12164 12164,13432 10814,14616 9379,15716 7861,16732 6259,17666 4575,18515 2806,19282 954,19964 -954,19964 -2806,19282 -4575,18515 -6259,17666 -7861,16732 -9379,15716 -10814,14616 -12164,13432 -13432,12164 -14616,10814 -15716,9379 -16732,7861 -17666,6259 -18515,4575 -19282,2806 -19964,954 -19964,-954 -19282,-2806 -18515,-4575 -17666,-6259 L 98576,359015 82860,349636 68244,338822 54812,326658 42648,313226 31834,298610 22455,282894 14594,266162 8335,248496 3760,229981 954,210699 0,190735 954,170771 3760,151489 8335,132974 14594,115308 22455,98576 31834,82860 42648,68244 54812,54812 68244,42648 82860,31834 98576,22455 115308,14594 132974,8335 151489,3760 170771,954 Z m -116597,107856 -2023,2921 -1949,2971 -1875,3018 -1799,3064 -1723,3107 -1645,3149 -1566,3190 -1486,3227 -1406,3263 -1325,3297 -1242,3329 -1159,3358 -1075,3387 -991,3412 -906,3435 -820,3457 -734,3477 -648,3493 -561,3509 -473,3521 -386,3532 -297,3541 -210,3547 -122,3551 -33,3552 54,3553 143,3550 232,3546 319,3538 407,3530 494,3518 582,3506 668,3489 755,3472 841,3452 927,3430 1011,3406 1096,3380 1179,3352 1262,3321 1344,3289 1426,3255 1506,3218 1585,3179 1664,3140 1741,3097 1818,3053 1893,3007 1967,2959 2039,2909 2112,2857 2182,2804 2250,2750 2319,2692 2384,2634 2450,2574 2512,2512 2574,2450 2634,2384 2692,2319 2750,2250 2804,2182 2857,2112 2909,2039 2959,1967 3007,1893 3053,1818 3097,1741 3140,1664 3179,1585 3218,1506 3255,1426 3289,1344 3321,1262 3352,1179 3380,1096 3406,1011 3430,927 3452,841 3472,755 3489,668 3506,582 3518,494 3530,407 3538,319 3546,232 3550,143 3553,54 3552,-33 3551,-122 3547,-210 3541,-297 3532,-386 3521,-473 3509,-561 3493,-648 3477,-734 3457,-820 3435,-906 3412,-991 3387,-1075 3358,-1159 3329,-1242 3297,-1325 3263,-1406 3227,-1486 3190,-1566 3149,-1645 3107,-1723 3064,-1799 3018,-1875 2971,-1949 2921,-2023 z m 233194,165758 2023,-2921 1949,-2971 1875,-3018 1799,-3064 1723,-3107 1645,-3149 1566,-3190 1486,-3227 1406,-3263 1325,-3297 1242,-3329 1159,-3358 1075,-3387 991,-3412 906,-3435 820,-3457 734,-3477 648,-3493 561,-3509 473,-3521 386,-3532 297,-3541 210,-3547 122,-3551 33,-3552 -54,-3553 -143,-3550 -232,-3546 -319,-3538 -407,-3530 -494,-3518 -582,-3506 -668,-3489 -755,-3472 -841,-3452 -927,-3430 -1011,-3406 -1096,-3380 -1179,-3352 -1262,-3321 -1344,-3289 -1426,-3255 -1506,-3218 -1585,-3179 -1664,-3140 -1741,-3097 -1818,-3053 -1893,-3007 -1967,-2959 -2039,-2909 -2112,-2857 -2182,-2804 -2250,-2750 -2319,-2692 -2384,-2634 -2450,-2574 -2512,-2512 -2574,-2450 -2634,-2384 -2692,-2319 -2750,-2250 -2804,-2182 -2857,-2112 -2909,-2039 -2959,-1967 -3007,-1893 -3053,-1818 -3097,-1741 -3140,-1664 -3179,-1585 -3218,-1506 -3255,-1426 -3289,-1344 -3321,-1262 -3352,-1179 -3380,-1096 -3406,-1011 -3430,-927 -3452,-841 -3472,-755 -3489,-668 -3506,-582 -3518,-494 -3530,-407 -3538,-319 -3546,-232 -3550,-143 -3553,-54 -3552,33 -3551,122 -3547,210 -3541,297 -3532,386 -3521,473 -3509,561 -3493,648 -3477,734 -3457,820 -3435,906 -3412,991 -3387,1075 -3358,1159 -3329,1242 -3297,1325 -3263,1406 -3227,1486 -3190,1566 -3149,1645 -3107,1723 -3064,1799 -3018,1875 -2971,1949 -2921,2023 z"
                     style="fill:url(#gradient1)"
                     inkscape:connector-curvature="0" /></g><path
                   id="path78"
                   d="m 190735,0 c 108147,0 190735,82588 190735,190735 0,108147 -82588,190735 -190735,190735 C 82588,381470 0,298882 0,190735 0,82588 82588,0 190735,0 Z"
                   inkscape:connector-curvature="0"
                   style="fill:none;stroke:#3465a4" /><path
                   id="path80"
                   d="m 74138,107856 -2023,2921 -1949,2971 -1875,3018 -1799,3064 -1723,3107 -1645,3149 -1566,3190 -1486,3227 -1406,3263 -1325,3297 -1242,3329 -1159,3358 -1075,3387 -991,3412 -906,3435 -820,3457 -734,3477 -648,3493 -561,3509 -473,3521 -386,3532 -297,3541 -210,3547 -122,3551 -33,3552 54,3553 143,3550 232,3546 319,3538 407,3530 494,3518 582,3506 668,3489 755,3472 841,3452 927,3430 1011,3406 1096,3380 1179,3352 1262,3321 1344,3289 1426,3255 1506,3218 1585,3179 1664,3140 1741,3097 1818,3053 1893,3007 1967,2959 2039,2909 2112,2857 2182,2804 2250,2750 2319,2692 2384,2634 2450,2574 2512,2512 2574,2450 2634,2384 2692,2319 2750,2250 2804,2182 2857,2112 2909,2039 2959,1967 3007,1893 3053,1818 3097,1741 3140,1664 3179,1585 3218,1506 3255,1426 3289,1344 3321,1262 3352,1179 3380,1096 3406,1011 3430,927 3452,841 3472,755 3489,668 3506,582 3518,494 3530,407 3538,319 3546,232 3550,143 3553,54 3552,-33 3551,-122 3547,-210 3541,-297 3532,-386 3521,-473 3509,-561 3493,-648 3477,-734 3457,-820 3435,-906 3412,-991 3387,-1075 3358,-1159 3329,-1242 3297,-1325 3263,-1406 3227,-1486 3190,-1566 3149,-1645 3107,-1723 3064,-1799 3018,-1875 2971,-1949 2921,-2023 z"
                   inkscape:connector-curvature="0"
                   style="fill:none;stroke:#3465a4" /><path
                   id="path82"
                   d="m 307332,273614 2023,-2921 1949,-2971 1875,-3018 1799,-3064 1723,-3107 1645,-3149 1566,-3190 1486,-3227 1406,-3263 1325,-3297 1242,-3329 1159,-3358 1075,-3387 991,-3412 906,-3435 820,-3457 734,-3477 648,-3493 561,-3509 473,-3521 386,-3532 297,-3541 210,-3547 122,-3551 33,-3552 -54,-3553 -143,-3550 -232,-3546 -319,-3538 -407,-3530 -494,-3518 -582,-3506 -668,-3489 -755,-3472 -841,-3452 -927,-3430 -1011,-3406 -1096,-3380 -1179,-3352 -1262,-3321 -1344,-3289 -1426,-3255 -1506,-3218 -1585,-3179 -1664,-3140 -1741,-3097 -1818,-3053 -1893,-3007 -1967,-2959 -2039,-2909 -2112,-2857 -2182,-2804 -2250,-2750 -2319,-2692 -2384,-2634 -2450,-2574 -2512,-2512 -2574,-2450 -2634,-2384 -2692,-2319 -2750,-2250 -2804,-2182 -2857,-2112 -2909,-2039 -2959,-1967 -3007,-1893 -3053,-1818 -3097,-1741 -3140,-1664 -3179,-1585 -3218,-1506 -3255,-1426 -3289,-1344 -3321,-1262 -3352,-1179 -3380,-1096 -3406,-1011 -3430,-927 -3452,-841 -3472,-755 -3489,-668 -3506,-582 -3518,-494 -3530,-407 -3538,-319 -3546,-232 -3550,-143 -3553,-54 -3552,33 -3551,122 -3547,210 -3541,297 -3532,386 -3521,473 -3509,561 -3493,648 -3477,734 -3457,820 -3435,906 -3412,991 -3387,1075 -3358,1159 -3329,1242 -3297,1325 -3263,1406 -3227,1486 -3190,1566 -3149,1645 -3107,1723 -3064,1799 -3018,1875 -2971,1949 -2921,2023 z"
                   inkscape:connector-curvature="0"
                   style="fill:none;stroke:#3465a4" /><path
                   id="path84"
                   d="M 0,0 Z"
                   inkscape:connector-curvature="0"
                   style="fill:none;stroke:#3465a4" /><path
                   id="path86"
                   d="M 381471,381471 Z"
                   inkscape:connector-curvature="0"
                   style="fill:none;stroke:#3465a4" /></g></g></g></g></g></g></g></svg>